<svg width="20" height="20" viewBox="0 0 20 20" fill="none" xmlns="http://www.w3.org/2000/svg">
<rect x="3.31641" y="2.86328" width="13.3619" height="15.4717" rx="2.10977" fill="#669AFF"/>
<rect x="6.83301" y="1.66797" width="6.32932" height="2.39108" rx="1.05489" fill="#FBA907"/>
<path d="M14.203 7.48438C14.4943 7.48438 14.7304 7.72052 14.7304 8.01182C14.7304 8.30312 14.4943 8.53926 14.203 8.53926H10.3351C10.0438 8.53926 9.80762 8.30312 9.80762 8.01182C9.80762 7.72052 10.0438 7.48438 10.3351 7.48438H14.203Z" fill="#DEDEDE"/>
<path d="M7.8168 6.9232C7.99519 6.74468 8.28446 6.74425 8.46305 6.92251C8.64154 7.10087 8.64192 7.39017 8.46374 7.56877L6.93773 9.09616C6.76688 9.26712 6.49238 9.27549 6.31139 9.11539L5.49 8.3874C5.30107 8.21995 5.28341 7.93077 5.45086 7.74183C5.61822 7.55303 5.90681 7.53553 6.09574 7.70269L6.59502 8.14497L7.8168 6.9232Z" fill="#FFB626"/>
<path d="M14.203 10.668C14.4943 10.668 14.7304 10.9041 14.7304 11.1954C14.7304 11.4867 14.4943 11.7229 14.203 11.7229H10.3351C10.0438 11.7229 9.80762 11.4867 9.80762 11.1954C9.80762 10.9041 10.0438 10.668 10.3351 10.668H14.203Z" fill="#DEDEDE"/>
<path d="M7.8168 10.1068C7.99519 9.92828 8.28446 9.92784 8.46305 10.1061C8.64154 10.2845 8.64192 10.5738 8.46374 10.7524L6.93773 12.2797C6.76688 12.4507 6.49238 12.4591 6.31139 12.299L5.49 11.571C5.30107 11.4035 5.28341 11.1144 5.45086 10.9254C5.61822 10.7366 5.90681 10.7191 6.09574 10.8863L6.59502 11.3286L7.8168 10.1068Z" fill="#FFB626"/>
<path d="M14.203 13.8516C14.4943 13.8516 14.7304 14.0877 14.7304 14.379C14.7304 14.6703 14.4943 14.9064 14.203 14.9064H10.3351C10.0438 14.9064 9.80762 14.6703 9.80762 14.379C9.80762 14.0877 10.0438 13.8516 10.3351 13.8516H14.203Z" fill="#DEDEDE"/>
<path d="M7.8168 13.2943C7.99519 13.1158 8.28446 13.1153 8.46305 13.2936C8.64154 13.472 8.64192 13.7613 8.46374 13.9399L6.93773 15.4672C6.76688 15.6382 6.49238 15.6466 6.31139 15.4865L5.49 14.7585C5.30107 14.591 5.28341 14.3019 5.45086 14.1129C5.61822 13.9241 5.90681 13.9066 6.09574 14.0738L6.59502 14.5161L7.8168 13.2943Z" fill="#FFB626"/>
</svg>
