<svg width="1em" height="1em" viewBox="0 0 24 24" fill="none" xmlns="http://www.w3.org/2000/svg">
<path d="M3.3206 3.3206C3.74806 2.89313 4.44112 2.89313 4.86858 3.3206L12 10.452L19.1313 3.3206C19.5588 2.89313 20.2519 2.89313 20.6793 3.3206C21.1068 3.74806 21.1068 4.44112 20.6793 4.86859L13.548 12L20.6793 19.1314C21.1068 19.5589 21.1068 20.2519 20.6793 20.6794C20.2519 21.1069 19.5588 21.1069 19.1313 20.6794L12 13.548L4.86858 20.6794C4.44112 21.1069 3.74806 21.1069 3.3206 20.6794C2.89313 20.2519 2.89313 19.5589 3.3206 19.1314L10.452 12L3.3206 4.86859C2.89313 4.44112 2.89313 3.74806 3.3206 3.3206Z" fill="currentColor"/>
</svg>
