<svg width="24" height="24" viewBox="0 0 24 24" fill="none" xmlns="http://www.w3.org/2000/svg">
<path d="M10.808 3.49167C11.4885 2.89345 12.5078 2.89335 13.1883 3.49167L21.6904 10.9695C22.314 11.5182 21.9262 12.547 21.0955 12.5472H19.2582V19.6009C19.2581 20.3471 18.6528 20.9523 17.9066 20.9525H15.6055C15.1079 20.9525 14.7044 20.549 14.7044 20.0514V15.1158C14.7044 14.6181 14.301 14.2147 13.8034 14.2147H10.1991C9.70143 14.2147 9.29801 14.6181 9.29801 15.1158V20.0514C9.29801 20.549 8.89459 20.9525 8.39695 20.9525H6.09059C5.34418 20.9525 4.73908 20.3473 4.73899 19.6009V12.5472H2.90077C2.06987 12.5472 1.68199 11.5182 2.30592 10.9695L10.808 3.49167Z" fill="black"/>
</svg>
