<svg width="26" height="20" viewBox="0 0 26 20" fill="none" xmlns="http://www.w3.org/2000/svg">
<path d="M0.843872 8.5H11.9244C12.3974 8.5 12.8321 8.2403 13.0564 7.82385L16.6938 1.06857C16.8322 0.811603 16.6461 0.5 16.3542 0.5H15.8462H7.51073C7.13753 0.5 6.78274 0.662163 6.53853 0.944368L0.55221 7.86189C0.33601 8.11172 0.513481 8.5 0.843872 8.5Z" fill="#3974E7"/>
<path d="M2.00977 7.73481L8.00195 1L14.0098 7.33051V19.4991H3.29546C2.58539 19.4991 2.00977 18.9235 2.00977 18.2134L2.00977 7.73481Z" fill="#90B6FF"/>
<path d="M14.0098 6.5H24.0098V18.2143C24.0098 18.9244 23.4341 19.5 22.7241 19.5H14.0098V6.5Z" fill="#699CFF"/>
<path d="M5.00781 13.5C5.00781 11.8431 6.35096 10.5 8.00781 10.5C9.66467 10.5 11.0078 11.8431 11.0078 13.5V19.5H5.00781V13.5Z" fill="#3974E7"/>
<path d="M6.00391 7.5C6.00391 6.39543 6.89934 5.5 8.00391 5.5C9.10848 5.5 10.0039 6.39543 10.0039 7.5C10.0039 8.05228 9.55619 8.5 9.00391 8.5H7.00391C6.45162 8.5 6.00391 8.05228 6.00391 7.5Z" fill="#3974E7"/>
<path d="M16 12C16 11.1716 16.6716 10.5 17.5 10.5C18.3284 10.5 19 11.1716 19 12V13.8333V14.9C19 15.2314 18.7314 15.5 18.4 15.5H16.6C16.2686 15.5 16 15.2314 16 14.9V13.8333V12Z" fill="#3974E7"/>
<path d="M20 12C20 11.1716 20.6716 10.5 21.5 10.5C22.3284 10.5 23 11.1716 23 12V13.8333V14.9C23 15.2314 22.7314 15.5 22.4 15.5H20.6C20.2686 15.5 20 15.2314 20 14.9V13.8333V12Z" fill="#3974E7"/>
<path d="M25.1016 8.5H14.2061C13.8223 8.5 13.4585 8.32854 13.2143 8.0325L7.27 0.827277C7.16239 0.696833 7.25517 0.5 7.42428 0.5H8.26667H17.848C18.2005 0.5 18.5374 0.644667 18.7802 0.900175L25.3812 7.84863C25.6146 8.09432 25.4404 8.5 25.1016 8.5Z" fill="#4081FF"/>
</svg>
