<svg width="18" height="20" viewBox="0 0 18 20" fill="none" xmlns="http://www.w3.org/2000/svg">
<path d="M8.99938 13.6836C7.35874 13.6836 5.82773 14.05 4.68218 14.754C3.53744 15.4575 2.6836 16.5709 2.6836 18.0556L2.6836 18.3209C2.68357 18.472 2.68355 18.6258 2.69297 18.7573C2.70345 18.9037 2.7287 19.0852 2.81123 19.27C2.92349 19.5214 3.10263 19.7258 3.32297 19.8538C3.48494 19.948 3.64408 19.9768 3.77233 19.9887C3.88761 19.9994 4.02246 19.9994 4.15492 19.9994L13.844 19.9987C13.9765 19.9987 14.1113 19.9988 14.2266 19.988C14.3548 19.976 14.5139 19.9472 14.6759 19.8531C14.8962 19.725 15.0753 19.5206 15.1876 19.2693C15.2701 19.0845 15.2953 18.903 15.3058 18.7567C15.3152 18.6251 15.3152 18.4713 15.3152 18.3202L15.3152 18.0556C15.3152 16.5709 14.4613 15.4575 13.3166 14.754C12.171 14.05 10.64 13.6836 8.99938 13.6836Z" fill="#FBA907"/>
<path d="M5.1601 15.1815L7.09718 17.506C7.26551 17.708 7.57577 17.708 7.7441 17.506L9.68119 15.1815C9.86432 14.9617 9.7797 14.6272 9.5141 14.521L7.57702 13.7461C7.47663 13.706 7.36465 13.706 7.26427 13.7461L5.32718 14.521C5.06158 14.6272 4.97696 14.9617 5.1601 15.1815Z" fill="#F28D00"/>
<path d="M12.8399 15.1815L10.9028 17.506C10.7345 17.708 10.4242 17.708 10.2559 17.506L8.31881 15.1815C8.13568 14.9617 8.2203 14.6272 8.4859 14.521L10.423 13.7461C10.5234 13.706 10.6353 13.706 10.7357 13.7461L12.6728 14.521C12.9384 14.6272 13.023 14.9617 12.8399 15.1815Z" fill="#F28D00"/>
<ellipse cx="9.00144" cy="11.0532" rx="5.26316" ry="4.73684" fill="#FFDD99"/>
<path d="M4.79071 11.0516C4.79071 12.1042 4.08379 12.6306 3.21176 12.6306C2.33973 12.6306 1.63281 11.9236 1.63281 11.0516C1.63281 10.1796 2.33973 9.47266 3.21176 9.47266C4.08379 9.47266 4.79071 10.1796 4.79071 11.0516Z" fill="#FFDD99"/>
<path d="M13.2093 11.0516C13.2093 12.1042 13.9162 12.6306 14.7882 12.6306C15.6603 12.6306 16.3672 11.9236 16.3672 11.0516C16.3672 10.1796 15.6603 9.47266 14.7882 9.47266C13.9162 9.47266 13.2093 10.1796 13.2093 11.0516Z" fill="#FFDD99"/>
<path d="M1.78077 7.06712C1.12236 6.07951 1.41013 4.74316 2.41666 4.11407L4.53603 2.78947C7.26673 1.08278 10.7316 1.08278 13.4623 2.78947L15.5817 4.11407C16.5882 4.74316 16.876 6.07952 16.2176 7.06712L15.315 8.42105H2.68339L1.78077 7.06712Z" fill="#F28D00"/>
<path d="M15.4582 7.83828C15.8862 8.46716 15.5263 9.32841 14.7781 9.46583L11.2807 10.1082C9.77202 10.3853 8.22551 10.3853 6.71685 10.1082L3.21941 9.46583C2.47123 9.32841 2.11136 8.46716 2.53935 7.83828L2.60681 7.73915C2.76759 7.5029 3.01752 7.34217 3.29918 7.29389L6.86449 6.68269C8.27704 6.44054 9.72049 6.44054 11.133 6.68269L14.6984 7.29389C14.98 7.34217 15.2299 7.5029 15.3907 7.73915L15.4582 7.83828Z" fill="#FBA907"/>
<path d="M7.06473 4.71596C6.98764 4.40759 7.26696 4.12826 7.57533 4.20536L8.0462 4.32307C8.20871 4.3637 8.3804 4.34485 8.53023 4.26994L8.81149 4.12931C8.93003 4.07004 9.06956 4.07004 9.18809 4.12931L9.46936 4.26994C9.61919 4.34485 9.79088 4.3637 9.95339 4.32307L10.4243 4.20536C10.7326 4.12826 11.012 4.40759 10.9349 4.71596L10.4816 6.52905C10.4319 6.72779 10.2978 6.8949 10.1146 6.98652L9.18809 7.44978C9.06956 7.50905 8.93003 7.50905 8.81149 7.44978L7.88497 6.98652C7.70174 6.8949 7.56769 6.72779 7.518 6.52905L7.06473 4.71596Z" fill="#FFEFCF"/>
<circle cx="6.37007" cy="11.0537" r="0.526316" fill="#F28D00"/>
<circle cx="11.6318" cy="11.0537" r="0.526316" fill="#F28D00"/>
</svg>
