<svg width="1em" height="1em" viewBox="0 0 24 24" fill="none" xmlns="http://www.w3.org/2000/svg">
<path d="M12.002 2C17.5248 2 22.002 6.47715 22.002 12C22.002 17.5228 17.5248 22 12.002 22C6.47911 22 2.00195 17.5228 2.00195 12C2.00195 6.47715 6.47911 2 12.002 2ZM12.002 3.5C7.30753 3.5 3.50195 7.30558 3.50195 12C3.50195 16.6944 7.30753 20.5 12.002 20.5C16.6964 20.5 20.502 16.6944 20.502 12C20.502 7.30558 16.6964 3.5 12.002 3.5ZM14.7031 10.8711C14.8685 10.8713 15.0056 11.0062 14.9824 11.1699C14.8051 12.4094 13.539 13.3708 12.0039 13.3711H12.0029C11.9115 13.3711 11.8208 13.367 11.7314 13.3604C11.7001 13.358 11.6687 13.3537 11.6377 13.3506C11.5734 13.3441 11.5093 13.337 11.4463 13.3271C11.4359 13.3255 11.4254 13.323 11.415 13.3213C11.3392 13.3087 11.2641 13.2946 11.1904 13.2773C11.1639 13.2711 11.1375 13.2636 11.1113 13.2568C11.0527 13.2416 10.9945 13.2251 10.9375 13.207C10.9077 13.1976 10.878 13.187 10.8486 13.1768C10.801 13.1602 10.7534 13.1435 10.707 13.125C10.6654 13.1083 10.6246 13.0895 10.584 13.0713C10.5508 13.0564 10.5177 13.0413 10.4854 13.0254C10.4477 13.0069 10.4106 12.9875 10.374 12.9678C10.3304 12.9442 10.2872 12.9199 10.2451 12.8945C10.2205 12.8796 10.196 12.8641 10.1719 12.8486C10.131 12.8223 10.091 12.7946 10.0518 12.7666C10.0231 12.7461 9.99448 12.7255 9.9668 12.7041C9.92931 12.6752 9.89309 12.6447 9.85742 12.6143C9.83389 12.5941 9.80983 12.5745 9.78711 12.5537C9.7501 12.5199 9.71445 12.4847 9.67969 12.4492C9.66052 12.4296 9.64054 12.4107 9.62207 12.3906C9.58945 12.3552 9.55866 12.3182 9.52832 12.2812C9.50786 12.2564 9.48717 12.2316 9.46777 12.2061C9.43455 12.1623 9.40401 12.1168 9.37402 12.0713C9.36306 12.0546 9.35134 12.0383 9.34082 12.0215C9.31026 11.9725 9.28255 11.9219 9.25586 11.8711C9.24789 11.8559 9.2381 11.8415 9.23047 11.8262C9.20639 11.7777 9.18549 11.7277 9.16504 11.6777C9.1561 11.6559 9.14593 11.6344 9.1377 11.6123C9.11177 11.5426 9.08895 11.4716 9.07031 11.3994L9.02441 11.1699C9.00994 11.0678 9.05778 10.9768 9.13574 10.9229C9.16698 10.9013 9.20322 10.885 9.24219 10.877C9.26161 10.8729 9.28216 10.8711 9.30273 10.8711H14.7031ZM8.38867 7.60156C8.94096 7.60156 9.38867 8.04928 9.38867 8.60156C9.38867 9.15385 8.94096 9.60156 8.38867 9.60156C7.83639 9.60156 7.38867 9.15385 7.38867 8.60156C7.38867 8.04928 7.83248 7.60156 8.38867 7.60156ZM15.6152 7.60156C16.1675 7.60156 16.6152 8.04928 16.6152 8.60156C16.6152 9.15385 16.1675 9.60156 15.6152 9.60156C15.0629 9.60156 14.6152 9.15385 14.6152 8.60156C14.6152 8.04928 15.0629 7.60156 15.6152 7.60156Z" fill="currentColor"/>
</svg>
