<svg width="26" height="26" viewBox="0 0 26 26" fill="none" xmlns="http://www.w3.org/2000/svg">
<g clip-path="url(#clip0_1877_22927)">
<rect width="26" height="26" rx="13" fill="white"/>
<path d="M4.82767 10.7127C4.58682 12.4055 4.58444 13.6447 5.67353 14.1133C6.26458 14.3676 6.86245 14.1146 7.45517 14.709C10.7252 18.8708 8.34883 16.1956 10.1307 17.3844C12.2492 18.798 13.0832 17.1974 15.2226 17.1443C17.362 17.0912 17.8242 17.7109 19.051 17.1443C20.2778 16.5776 20.2385 14.7081 19.6136 13.9899C21.1305 13.8166 21.0697 10.8264 19.8242 10.7109C20.7736 9.24159 19.9424 7.87112 19.051 7.87045C19.3312 7.55704 19.2423 6.4745 18.7536 5.7903C17.3343 3.80332 12.0261 4.72906 10.5144 5.59304C10.3865 5.66611 10.2447 5.71475 10.0974 5.71499C6.81264 5.72028 6.53719 5.89287 5.97048 6.9789C5.39089 8.08962 5.08163 8.92775 4.82767 10.7127Z" fill="#FBA907"/>
<path d="M19.6284 13.81C18.8341 13.5195 18.1729 13.5195 17.5117 13.5195" stroke="#FFEFCF" stroke-linecap="round" stroke-linejoin="round"/>
<path d="M18.9603 7.47953C18.1535 7.15399 17.4889 7.12387 16.8242 7.09375" stroke="#FFEFCF" stroke-linecap="round" stroke-linejoin="round"/>
<path d="M19.9382 10.5448C18.9155 10.1796 18.1038 10.0655 17.2812 10.0664" stroke="#FFEFCF" stroke-linecap="round" stroke-linejoin="round"/>
<path d="M9.54661 20.3301C10.0724 18.6296 9.14664 17.224 8.47148 15.9745C8.1083 15.3574 8.30809 14.6057 8.5061 14.0848C8.52907 14.0243 8.561 13.9688 8.6011 13.9181C9.69086 12.5399 11.7482 10.4227 13.675 15.5529C13.6867 15.5841 13.6966 15.6173 13.703 15.65C13.8531 16.4172 13.8556 17.8754 13.8654 18.6751C13.9241 23.5789 8.34308 24.2227 9.54661 20.3301Z" fill="#FBA907"/>
</g>
<defs>
<clipPath id="clip0_1877_22927">
<rect width="26" height="26" rx="13" fill="white"/>
</clipPath>
</defs>
</svg>
