<svg width="1em" height="1em" viewBox="0 0 24 24" fill="none" xmlns="http://www.w3.org/2000/svg">
<path d="M10.4049 3C14.5279 3 17.8703 6.34237 17.8703 10.4654C17.8703 12.1598 17.305 13.7216 16.3538 14.9745L20.7864 19.4071C21.1509 19.7715 21.1509 20.3623 20.7864 20.7267C20.422 21.0911 19.8313 21.0911 19.4669 20.7267L15.0479 16.3078C13.7731 17.3223 12.1607 17.9308 10.4049 17.9308C6.28183 17.9308 2.93945 14.5884 2.93945 10.4654C2.93945 6.34237 6.28183 3 10.4049 3ZM10.4049 4.86635C7.31258 4.86635 4.8058 7.37313 4.8058 10.4654C4.8058 13.5577 7.31258 16.0645 10.4049 16.0645C13.4971 16.0645 16.0039 13.5577 16.0039 10.4654C16.0039 7.37313 13.4971 4.86635 10.4049 4.86635Z" fill="currentColor"/>
</svg>
