<svg width="20" height="16" viewBox="0 0 20 16" fill="none" xmlns="http://www.w3.org/2000/svg">
<path d="M2 6.85547H17.9999V14.1697C17.9999 15.1796 17.1812 15.9983 16.1714 15.9983H3.82856C2.81867 15.9983 2 15.1796 2 14.1697V6.85547Z" fill="#FBA907"/>
<path d="M2.7244 1.25032C2.97329 0.503642 3.67206 0 4.45913 0H15.5374C16.3245 0 17.0233 0.503641 17.2722 1.25032L19.1411 6.85711H0.855469L2.7244 1.25032Z" fill="#FBA907"/>
<path d="M5.42578 6.85492C5.42578 8.11728 4.40244 9.14062 3.14008 9.14062C1.87772 9.14062 0.854375 8.11728 0.854375 6.85492L5.42578 6.85492Z" fill="#FFEFCF"/>
<path d="M10 6.85492C10 8.11728 8.97666 9.14062 7.7143 9.14062C6.45194 9.14062 5.42859 8.11728 5.42859 6.85492L10 6.85492Z" fill="#FFEFCF"/>
<path d="M14.5703 6.85492C14.5703 8.11728 13.547 9.14062 12.2846 9.14062C11.0223 9.14062 9.99891 8.11728 9.99891 6.85492L14.5703 6.85492Z" fill="#FFEFCF"/>
<path d="M19.1406 6.85492C19.1406 8.11728 18.1173 9.14062 16.8549 9.14062C15.5926 9.14062 14.5692 8.11728 14.5692 6.85492L19.1406 6.85492Z" fill="#FFEFCF"/>
<path d="M7.71484 12.1137C7.71484 11.1038 8.53352 10.2852 9.54341 10.2852H10.4577C11.4676 10.2852 12.2863 11.1038 12.2863 12.1137V15.9994H7.71484V12.1137Z" fill="#FFEFCF"/>
<path d="M6.57254 0L5.42969 6.85711H10.0011V0H6.57254Z" fill="#FFDD99"/>
<path d="M13.4297 0L14.5725 6.85711H19.1439L17.275 1.25032C17.0261 0.503641 16.3274 0 15.5403 0H13.4297Z" fill="#FFDD99"/>
</svg>
