<svg width="18" height="20" viewBox="0 0 18 20" fill="none" xmlns="http://www.w3.org/2000/svg">
<rect x="0.979492" y="1.4375" width="16.0343" height="18.566" rx="2.53173" fill="#EEEEEE"/>
<rect x="5.19922" width="7.59519" height="2.86929" rx="1.26586" fill="#669AFF"/>
<path d="M14.044 6.98047C14.3935 6.98047 14.6769 7.26384 14.6769 7.6134C14.6769 7.96296 14.3935 8.24633 14.044 8.24633H9.40246C9.0529 8.24633 8.76953 7.96296 8.76953 7.6134C8.76953 7.26384 9.0529 6.98047 9.40246 6.98047H14.044Z" fill="#DEDEDE"/>
<path d="M6.38035 6.3094C6.59442 6.09518 6.94155 6.09466 7.15586 6.30858C7.37005 6.52261 7.3705 6.86976 7.15668 7.08408L5.32547 8.91695C5.12046 9.1221 4.79105 9.13215 4.57386 8.94003L3.5882 8.06645C3.36148 7.86551 3.34028 7.51849 3.54122 7.29176C3.74206 7.0652 4.08837 7.0442 4.31508 7.24479L4.91422 7.77553L6.38035 6.3094Z" fill="#FFB626"/>
<path d="M14.044 10.8008C14.3935 10.8008 14.6769 11.0842 14.6769 11.4337C14.6769 11.7833 14.3935 12.0666 14.044 12.0666H9.40246C9.0529 12.0666 8.76953 11.7833 8.76953 11.4337C8.76953 11.0842 9.0529 10.8008 9.40246 10.8008H14.044Z" fill="#DEDEDE"/>
<path d="M6.38035 10.1297C6.59442 9.91549 6.94155 9.91497 7.15586 10.1289C7.37005 10.3429 7.3705 10.6901 7.15668 10.9044L5.32547 12.7373C5.12046 12.9424 4.79105 12.9525 4.57386 12.7603L3.5882 11.8868C3.36148 11.6858 3.34028 11.3388 3.54122 11.1121C3.74206 10.8855 4.08837 10.8645 4.31508 11.0651L4.91422 11.5958L6.38035 10.1297Z" fill="#FFB626"/>
<path d="M14.044 14.6211C14.3935 14.6211 14.6769 14.9045 14.6769 15.254C14.6769 15.6036 14.3935 15.887 14.044 15.887H9.40246C9.0529 15.887 8.76953 15.6036 8.76953 15.254C8.76953 14.9045 9.0529 14.6211 9.40246 14.6211H14.044Z" fill="#DEDEDE"/>
<path d="M6.38035 13.9539C6.59442 13.7397 6.94155 13.7392 7.15586 13.9531C7.37005 14.1671 7.3705 14.5143 7.15668 14.7286L5.32547 16.5615C5.12046 16.7666 4.79105 16.7767 4.57386 16.5846L3.5882 15.711C3.36148 15.51 3.34028 15.163 3.54122 14.9363C3.74206 14.7097 4.08837 14.6887 4.31508 14.8893L4.91422 15.4201L6.38035 13.9539Z" fill="#FFB626"/>
</svg>
