<svg width="25" height="25" viewBox="0 0 25 25" fill="none" xmlns="http://www.w3.org/2000/svg">
<path fill-rule="evenodd" clip-rule="evenodd" d="M11.5 2.5C10.7043 2.5 9.94129 2.81607 9.37868 3.37868C8.81607 3.94129 8.5 4.70435 8.5 5.5V19.5C8.5 20.2956 8.81607 21.0587 9.37868 21.6213C9.94129 22.1839 10.7043 22.5 11.5 22.5H17.5C18.2956 22.5 19.0587 22.1839 19.6213 21.6213C20.1839 21.0587 20.5 20.2956 20.5 19.5V5.5C20.5 4.70435 20.1839 3.94129 19.6213 3.37868C19.0587 2.81607 18.2956 2.5 17.5 2.5H11.5ZM12.793 8.793C12.9805 8.60553 13.2348 8.50021 13.5 8.50021C13.7652 8.50021 14.0195 8.60553 14.207 8.793L17.207 11.793C17.3945 11.9805 17.4998 12.2348 17.4998 12.5C17.4998 12.7652 17.3945 13.0195 17.207 13.207L14.207 16.207C14.0184 16.3892 13.7658 16.49 13.5036 16.4877C13.2414 16.4854 12.9906 16.3802 12.8052 16.1948C12.6198 16.0094 12.5146 15.7586 12.5123 15.4964C12.51 15.2342 12.6108 14.9816 12.793 14.793L14.086 13.5H5.5C5.23478 13.5 4.98043 13.3946 4.79289 13.2071C4.60536 13.0196 4.5 12.7652 4.5 12.5C4.5 12.2348 4.60536 11.9804 4.79289 11.7929C4.98043 11.6054 5.23478 11.5 5.5 11.5H14.086L12.793 10.207C12.6055 10.0195 12.5002 9.76516 12.5002 9.5C12.5002 9.23484 12.6055 8.98053 12.793 8.793Z" fill="#A3ABBE"/>
</svg>
