<svg width="34" height="34" viewBox="0 0 34 34" fill="none" xmlns="http://www.w3.org/2000/svg">
<circle cx="17.0026" cy="16.9987" r="16.6667" fill="#669AFF"/>
<circle cx="11.0529" cy="11.0471" r="4.76191" fill="white"/>
<circle cx="11.0509" cy="11.0489" r="2.38095" fill="#2D2D2D"/>
<path d="M25.3352 7.48047L19.3828 10.7272L25.3352 13.4328" stroke="#2D2D2D" stroke-width="2.09524" stroke-linecap="round" stroke-linejoin="round"/>
<path d="M16.9985 29.489C8.65505 29.7138 6.86119 23.369 6.79706 20.1411C12.2397 19.5977 21.7626 18.7801 27.0539 19.5953C27.274 22.297 24.4439 29.2884 16.9985 29.489Z" fill="#122B5B" stroke="#122B5B" stroke-width="2.09524" stroke-linecap="round" stroke-linejoin="round"/>
<path d="M15.9177 22.9388C12.3509 22.5329 10.8969 24.7902 10.6131 26.0349C12.425 28.3219 16.3532 28.4904 17.4345 28.3165C21.733 27.6253 24.356 24.926 24.4763 23.4984C20.8667 21.2675 18.1671 21.9149 16.9618 22.6831C16.6616 22.8744 16.2964 22.9819 15.9177 22.9388Z" fill="#386CD0"/>
</svg>
