<svg width="24" height="24" viewBox="0 0 24 24" fill="none" xmlns="http://www.w3.org/2000/svg">
<path d="M12.002 2C17.5248 2 22.002 6.47715 22.002 12C22.002 17.5228 17.5248 22 12.002 22C6.47911 22 2.00195 17.5228 2.00195 12C2.00195 6.47715 6.47911 2 12.002 2ZM9.30273 10.8711C9.28216 10.8711 9.26161 10.8729 9.24219 10.877C9.20322 10.885 9.16698 10.9013 9.13574 10.9229C9.05778 10.9768 9.00994 11.0678 9.02441 11.1699L9.07031 11.3994C9.08895 11.4716 9.11177 11.5426 9.1377 11.6123C9.14593 11.6344 9.1561 11.6559 9.16504 11.6777C9.18549 11.7277 9.20639 11.7777 9.23047 11.8262C9.2381 11.8415 9.24789 11.8559 9.25586 11.8711C9.28255 11.9219 9.31026 11.9725 9.34082 12.0215C9.35134 12.0383 9.36306 12.0546 9.37402 12.0713C9.40401 12.1168 9.43455 12.1623 9.46777 12.2061C9.48717 12.2316 9.50786 12.2564 9.52832 12.2812C9.55866 12.3182 9.58945 12.3552 9.62207 12.3906C9.64054 12.4107 9.66052 12.4296 9.67969 12.4492C9.71445 12.4847 9.7501 12.5199 9.78711 12.5537C9.80983 12.5745 9.83389 12.5941 9.85742 12.6143C9.89309 12.6447 9.92931 12.6752 9.9668 12.7041C9.99448 12.7255 10.0231 12.7461 10.0518 12.7666C10.091 12.7946 10.131 12.8223 10.1719 12.8486C10.196 12.8641 10.2205 12.8796 10.2451 12.8945C10.2872 12.9199 10.3304 12.9442 10.374 12.9678C10.4106 12.9875 10.4477 13.0069 10.4854 13.0254C10.5177 13.0413 10.5508 13.0564 10.584 13.0713C10.6246 13.0895 10.6654 13.1083 10.707 13.125C10.7534 13.1435 10.801 13.1602 10.8486 13.1768C10.878 13.187 10.9077 13.1976 10.9375 13.207C10.9945 13.2251 11.0527 13.2416 11.1113 13.2568C11.1375 13.2636 11.1639 13.2711 11.1904 13.2773C11.2641 13.2946 11.3392 13.3087 11.415 13.3213C11.4254 13.323 11.4359 13.3255 11.4463 13.3271C11.5093 13.337 11.5734 13.3441 11.6377 13.3506C11.6687 13.3537 11.7001 13.358 11.7314 13.3604C11.8208 13.367 11.9115 13.3711 12.0029 13.3711H12.0039C13.539 13.3708 14.8051 12.4094 14.9824 11.1699C15.0056 11.0062 14.8685 10.8713 14.7031 10.8711H9.30273ZM8.38867 7.60156C7.83639 7.60156 7.38867 8.04928 7.38867 8.60156C7.38867 9.15385 7.83639 9.60156 8.38867 9.60156C8.94096 9.60156 9.38867 9.15385 9.38867 8.60156C9.38867 8.04928 8.94096 7.60156 8.38867 7.60156ZM15.6152 7.60156C15.0629 7.60156 14.6152 8.04928 14.6152 8.60156C14.6152 9.15385 15.0629 9.60156 15.6152 9.60156C16.1675 9.60156 16.6152 9.15385 16.6152 8.60156C16.6152 8.04928 16.1675 7.60156 15.6152 7.60156Z" fill="black"/>
</svg>
