<svg width="1em" height="1em" viewBox="0 0 24 24" fill="none" xmlns="http://www.w3.org/2000/svg">
<path d="M11.998 2C17.5209 2 21.998 6.47715 21.998 12C21.998 17.5228 17.5209 22 11.998 22C6.4752 22 1.99805 17.5228 1.99805 12C1.99805 6.47715 6.4752 2 11.998 2ZM11.998 3.5C7.30363 3.5 3.49805 7.30558 3.49805 12C3.49805 16.6944 7.30363 20.5 11.998 20.5C16.6925 20.5 20.498 16.6944 20.498 12C20.498 7.30558 16.6925 3.5 11.998 3.5ZM13.3438 11.1221C13.7515 11.0504 14.1399 11.3228 14.2119 11.7305C14.2838 12.1384 14.0114 12.5277 13.6035 12.5996L10.6494 13.1201C10.2415 13.192 9.8522 12.9196 9.78027 12.5117C9.7086 12.1041 9.98108 11.7156 10.3887 11.6436L13.3438 11.1221ZM8.38477 7.60156C8.93705 7.60156 9.38477 8.04928 9.38477 8.60156C9.38477 9.15385 8.93705 9.60156 8.38477 9.60156C7.83248 9.60156 7.38477 9.15385 7.38477 8.60156C7.38477 8.04928 7.83248 7.60156 8.38477 7.60156ZM15.6113 7.60156C16.1636 7.60156 16.6113 8.04928 16.6113 8.60156C16.6113 9.15385 16.1636 9.60156 15.6113 9.60156C15.059 9.60156 14.6113 9.15385 14.6113 8.60156C14.6113 8.04928 15.059 7.60156 15.6113 7.60156Z" fill="currentColor"/>
</svg>
