<svg width="20" height="20" viewBox="0 0 20 20" fill="none" xmlns="http://www.w3.org/2000/svg">
<path d="M9.9974 1.66797C14.5999 1.66797 18.3307 5.3988 18.3307 10.0013C18.3307 14.6038 14.5999 18.3346 9.9974 18.3346H3.33073C2.8887 18.3346 2.46478 18.159 2.15222 17.8465C1.83966 17.5339 1.66406 17.11 1.66406 16.668V10.0013C1.66406 5.3988 5.3949 1.66797 9.9974 1.66797ZM9.9974 11.668H7.4974C7.27638 11.668 7.06442 11.7558 6.90814 11.912C6.75186 12.0683 6.66406 12.2803 6.66406 12.5013C6.66406 12.7223 6.75186 12.9343 6.90814 13.0906C7.06442 13.2468 7.27638 13.3346 7.4974 13.3346H9.9974C10.2184 13.3346 10.4304 13.2468 10.5867 13.0906C10.7429 12.9343 10.8307 12.7223 10.8307 12.5013C10.8307 12.2803 10.7429 12.0683 10.5867 11.912C10.4304 11.7558 10.2184 11.668 9.9974 11.668ZM12.4974 8.33464H7.4974C7.285 8.33487 7.0807 8.4162 6.92626 8.56201C6.77181 8.70782 6.67887 8.9071 6.66642 9.11913C6.65397 9.33117 6.72296 9.53995 6.85928 9.70283C6.99561 9.86571 7.18898 9.97038 7.3999 9.99547L7.4974 10.0013H12.4974C12.7098 10.0011 12.9141 9.91974 13.0685 9.77393C13.223 9.62812 13.3159 9.42884 13.3284 9.21681C13.3408 9.00477 13.2718 8.79599 13.1355 8.63311C12.9992 8.47023 12.8058 8.36555 12.5949 8.34047L12.4974 8.33464Z" fill="#4D89FF"/>
</svg>
