<svg width="24" height="24" viewBox="0 0 24 24" fill="none" xmlns="http://www.w3.org/2000/svg">
<path d="M16.9391 3C18.6788 3 20.0891 4.4103 20.0891 6.15C20.0891 7.8897 18.6788 9.3 16.9391 9.3C16.1258 9.3 15.3842 8.99213 14.8253 8.48613L10.0256 10.9374C10.1446 11.2694 10.2102 11.627 10.2102 12C10.2102 12.3645 10.1473 12.7141 10.0335 13.0397L14.8438 15.4972C15.4004 15.0011 16.1347 14.7 16.9391 14.7C18.6788 14.7 20.0891 16.1103 20.0891 17.85C20.0891 19.5897 18.6788 21 16.9391 21C15.1994 21 13.7891 19.5897 13.7891 17.85C13.7891 17.568 13.8259 17.2945 13.8954 17.0344L8.95859 14.5128C8.4306 14.9123 7.77331 15.15 7.06016 15.15C5.32046 15.15 3.91016 13.7397 3.91016 12C3.91016 10.2603 5.32046 8.85 7.06016 8.85C7.7641 8.85 8.41391 9.08118 8.93838 9.47139L13.8893 6.94277C13.8236 6.68952 13.7891 6.42379 13.7891 6.15C13.7891 4.4103 15.1994 3 16.9391 3Z" fill="black"/>
</svg>
