<svg width="24" height="19" viewBox="0 0 24 19" fill="none" xmlns="http://www.w3.org/2000/svg">
<path d="M2.72656 11.7148L5.86294 11.1839L6.90998 17.369C6.97613 17.7598 6.71296 18.1302 6.32217 18.1964L4.60099 18.4877C4.21019 18.5539 3.83976 18.2907 3.7736 17.8999L2.72656 11.7148Z" fill="#FBA907"/>
<path d="M2.72656 11.7148L5.86294 11.1839L6.28724 13.6903L3.15086 14.2213L2.72656 11.7148Z" fill="#F28D00"/>
<path d="M12.2221 14.221C9.48741 13.0583 6.43311 12.4908 3.97554 12.6233L2.99473 6.82943C5.05922 6.17489 8.77807 4.58472 10.6141 2.58084L12.2221 14.221Z" fill="#FFDD99"/>
<path d="M0.373766 9.21572C0.16784 7.99928 0.98582 6.84583 2.20191 6.63782L3.1838 6.46986C3.50388 6.41512 3.80764 6.63053 3.86184 6.9507L4.72726 12.0629C4.78149 12.3833 4.56527 12.6868 4.24477 12.7402L3.26077 12.9042C2.04454 13.1069 0.893692 12.287 0.687891 11.0713L0.373766 9.21572Z" fill="#FBA907"/>
<rect x="9.9375" y="2.10156" width="1.76178" height="12.9197" rx="0.880892" transform="rotate(-9.60823 9.9375 2.10156)" fill="#FBA907"/>
<path d="M20.2803 8.33317L16.2451 9.11366C16.0142 9.15832 15.848 8.8656 16.0298 8.73431L17.3521 7.77919C17.4681 7.6954 17.4482 7.5191 17.3133 7.43477L16.8247 7.12933C16.6534 7.02219 16.6794 6.78675 16.8667 6.75053L21.1213 5.92761C21.3714 5.87924 21.53 6.21497 21.3085 6.32382L19.696 7.1163C19.5617 7.18232 19.5564 7.36353 19.6859 7.46316L20.343 7.96879C20.4935 8.08458 20.4566 8.29908 20.2803 8.33317Z" fill="#FBA907"/>
<path d="M17.7076 3.26087L14.3625 5.28159C14.1678 5.39919 13.8862 5.22407 13.9837 5.04597L14.7456 3.65292C14.8041 3.54584 14.72 3.41771 14.5708 3.3868L13.837 3.23479C13.6381 3.1936 13.5748 2.99344 13.7308 2.89921L17.3117 0.736068C17.5248 0.607308 17.8207 0.825386 17.6705 1.0005L16.5109 2.35201C16.4245 2.45273 16.489 2.59591 16.641 2.64076L17.6261 2.93146C17.8084 2.98526 17.8546 3.17206 17.7076 3.26087Z" fill="#FBA907"/>
<path d="M16.4802 13.7262L20.5682 14.2769C20.802 14.3084 20.94 14.0024 20.7464 13.8818L19.3497 13.011C19.2255 12.9336 19.2294 12.753 19.3574 12.6603L19.8058 12.3356C19.9676 12.2184 19.9212 11.9813 19.7314 11.9557L15.4283 11.3761C15.1754 11.342 15.0487 11.6903 15.2792 11.7862L16.9443 12.4787C17.0848 12.5371 17.1063 12.7209 16.9852 12.8287L16.3864 13.362C16.2461 13.4869 16.3015 13.7021 16.4802 13.7262Z" fill="#FBA907"/>
</svg>
