<svg width="20" height="20" viewBox="0 0 20 20" fill="none" xmlns="http://www.w3.org/2000/svg">
<path fill-rule="evenodd" clip-rule="evenodd" d="M2.88406 2.88602C1.66406 4.10768 1.66406 6.07101 1.66406 9.99935C1.66406 13.9277 1.66406 15.8918 2.88406 17.1118C4.10573 18.3327 6.06906 18.3327 9.99739 18.3327C13.9257 18.3327 15.8899 18.3327 17.1099 17.1118C18.3307 15.8927 18.3307 13.9277 18.3307 9.99935C18.3307 6.07101 18.3307 4.10685 17.1099 2.88602C15.8907 1.66602 13.9257 1.66602 9.99739 1.66602C6.06906 1.66602 4.1049 1.66602 2.88406 2.88602ZM8.78406 6.26352C8.84064 6.20404 8.88495 6.134 8.91446 6.0574C8.94397 5.98079 8.9581 5.89913 8.95605 5.81707C8.954 5.735 8.93581 5.65415 8.90251 5.57911C8.86921 5.50408 8.82146 5.43634 8.76198 5.37977C8.7025 5.32319 8.63246 5.27888 8.55586 5.24937C8.47926 5.21986 8.39759 5.20573 8.31553 5.20778C8.23347 5.20983 8.15261 5.22802 8.07758 5.26132C8.00254 5.29462 7.93481 5.34237 7.87823 5.40185L5.9499 7.42685L5.4499 6.90185C5.39393 6.84 5.32615 6.78998 5.25055 6.75473C5.17495 6.71949 5.09307 6.69973 5.00971 6.69663C4.92636 6.69353 4.84323 6.70714 4.76522 6.73667C4.68721 6.76619 4.6159 6.81104 4.55549 6.86855C4.49508 6.92607 4.4468 6.99509 4.41348 7.07156C4.38017 7.14803 4.36249 7.2304 4.36151 7.3138C4.36052 7.39721 4.37624 7.47996 4.40773 7.5572C4.43923 7.63443 4.48586 7.70458 4.5449 7.76351L5.4974 8.76351C5.55577 8.82478 5.62597 8.87355 5.70375 8.90688C5.78154 8.94021 5.86527 8.95739 5.9499 8.95739C6.03452 8.95739 6.11826 8.94021 6.19604 8.90688C6.27382 8.87355 6.34402 8.82478 6.40239 8.76351L8.78406 6.26352ZM10.8307 6.87435C10.665 6.87435 10.506 6.9402 10.3888 7.05741C10.2716 7.17462 10.2057 7.33359 10.2057 7.49935C10.2057 7.66511 10.2716 7.82408 10.3888 7.94129C10.506 8.0585 10.665 8.12435 10.8307 8.12435H14.9974C15.1632 8.12435 15.3221 8.0585 15.4393 7.94129C15.5565 7.82408 15.6224 7.66511 15.6224 7.49935C15.6224 7.33359 15.5565 7.17462 15.4393 7.05741C15.3221 6.9402 15.1632 6.87435 14.9974 6.87435H10.8307ZM8.78323 12.0968C8.84226 12.0379 8.8889 11.9678 8.92039 11.8905C8.95189 11.8133 8.9676 11.7305 8.96662 11.6471C8.96563 11.5637 8.94796 11.4814 8.91464 11.4049C8.88133 11.3284 8.83304 11.2594 8.77263 11.2019C8.71222 11.1444 8.64091 11.0995 8.5629 11.07C8.48489 11.0405 8.40176 11.0269 8.31841 11.03C8.23506 11.0331 8.15317 11.0528 8.07757 11.0881C8.00197 11.1233 7.93419 11.1733 7.87823 11.2352L5.9499 13.2602L5.4499 12.7352C5.39393 12.6733 5.32615 12.6233 5.25055 12.5881C5.17495 12.5528 5.09307 12.5331 5.00971 12.53C4.92636 12.5269 4.84323 12.5405 4.76522 12.57C4.68721 12.5995 4.6159 12.6444 4.55549 12.7019C4.49508 12.7594 4.4468 12.8284 4.41348 12.9049C4.38017 12.9814 4.36249 13.0637 4.36151 13.1471C4.36052 13.2305 4.37624 13.3133 4.40773 13.3905C4.43923 13.4678 4.48586 13.5379 4.5449 13.5968L5.4974 14.5968C5.55577 14.6581 5.62597 14.7069 5.70375 14.7402C5.78154 14.7735 5.86527 14.7907 5.9499 14.7907C6.03452 14.7907 6.11826 14.7735 6.19604 14.7402C6.27382 14.7069 6.34402 14.6581 6.40239 14.5968L8.78323 12.0968ZM10.8307 12.7077C10.665 12.7077 10.506 12.7735 10.3888 12.8907C10.2716 13.0079 10.2057 13.1669 10.2057 13.3327C10.2057 13.4984 10.2716 13.6574 10.3888 13.7746C10.506 13.8918 10.665 13.9577 10.8307 13.9577H14.9974C15.1632 13.9577 15.3221 13.8918 15.4393 13.7746C15.5565 13.6574 15.6224 13.4984 15.6224 13.3327C15.6224 13.1669 15.5565 13.0079 15.4393 12.8907C15.3221 12.7735 15.1632 12.7077 14.9974 12.7077H10.8307Z" fill="#555555"/>
</svg>
