<svg width="1em" height="1em" viewBox="0 0 24 24" fill="none" xmlns="http://www.w3.org/2000/svg">
<path d="M12.001 2.02344C12.5533 2.02344 13.001 2.47115 13.001 3.02344V4.21387C16.5349 4.66418 19.3326 7.46234 19.7832 10.9961H20.9746C21.5268 10.9962 21.9745 11.4439 21.9746 11.9961C21.9746 12.5483 21.5268 12.996 20.9746 12.9961H19.7842C19.3356 16.5321 16.5363 19.3316 13.001 19.7822V20.9727C13.0007 21.5247 12.5531 21.9727 12.001 21.9727C11.4488 21.9727 11.0012 21.5247 11.001 20.9727V19.7822C7.46411 19.3331 4.66379 16.533 4.21484 12.9961H3.02539C2.47326 12.9959 2.02539 12.5483 2.02539 11.9961C2.02546 11.444 2.47331 10.9963 3.02539 10.9961H4.21582C4.66651 7.46119 7.46552 4.6628 11.001 4.21387V3.02344C11.001 2.47115 11.4487 2.02344 12.001 2.02344ZM11.999 6.14844C8.76847 6.14865 6.14963 8.76749 6.14941 11.998C6.14941 15.2288 8.76834 17.8484 11.999 17.8486C15.2299 17.8486 17.8496 15.2289 17.8496 11.998C17.8494 8.76736 15.2298 6.14844 11.999 6.14844ZM12.001 8.49609C13.934 8.49609 15.501 10.0631 15.501 11.9961C15.501 13.9291 13.934 15.4961 12.001 15.4961C10.068 15.4961 8.50098 13.9291 8.50098 11.9961C8.50098 10.0631 10.068 8.49609 12.001 8.49609Z" fill="currentColor"/>
</svg>
