<svg width="1em" height="1em" viewBox="0 0 24 24" fill="none" xmlns="http://www.w3.org/2000/svg">
<path d="M11.9996 2C14.3897 2 16.3272 3.93752 16.3272 6.32757V6.35763H20.6548C21.1859 6.35763 21.6165 6.78819 21.6165 7.31931C21.6165 7.85043 21.1859 8.28099 20.6548 8.28099H19.694L18.3558 18.6463L18.3285 18.8248C18.016 20.5936 16.5156 21.9129 14.7213 21.9962L14.541 22H9.4602L9.27988 21.9962C7.48555 21.9129 5.9852 20.5936 5.67263 18.8248L5.6454 18.6463L4.30712 8.28099H3.3445C2.81337 8.28099 2.38281 7.85043 2.38281 7.31931C2.38281 6.78819 2.81337 6.35763 3.3445 6.35763H7.67207V6.32757C7.67207 3.93752 9.60959 2 11.9996 2ZM7.5528 18.3993C7.67665 19.3583 8.49331 20.0765 9.4602 20.0766H14.541C15.5079 20.0765 16.3245 19.3583 16.4484 18.3993L17.7557 8.28099H6.24551L7.5528 18.3993ZM12.0015 11.0609C12.3999 11.0609 12.7228 11.3838 12.7228 11.7821V16.5905C12.7228 16.9889 12.3999 17.3118 12.0015 17.3118C11.6032 17.3118 11.2803 16.9889 11.2803 16.5905V11.7821C11.2803 11.3838 11.6032 11.0609 12.0015 11.0609ZM8.99532 11.0749C9.39213 11.0402 9.74194 11.3337 9.77669 11.7305L10.1955 16.521C10.2301 16.9177 9.93673 17.2677 9.54003 17.3024C9.14328 17.337 8.79337 17.0427 8.75866 16.6459L8.3398 11.8563C8.30508 11.4595 8.59853 11.1097 8.99532 11.0749ZM15.0077 11.0712C15.4045 11.1059 15.698 11.4557 15.6632 11.8526L15.2444 16.6422C15.2097 17.0389 14.8598 17.3333 14.463 17.2986C14.0663 17.2639 13.773 16.914 13.8075 16.5173L14.2264 11.7267C14.2611 11.3299 14.6109 11.0365 15.0077 11.0712ZM11.9996 3.92337C10.6718 3.92337 9.59543 4.99977 9.59543 6.32757V6.35763H14.4038V6.32757C14.4038 4.99977 13.3274 3.92337 11.9996 3.92337Z" fill="currentColor"/>
</svg>
