<svg width="32" height="32" viewBox="0 0 32 32" fill="none" xmlns="http://www.w3.org/2000/svg">
<rect width="32" height="32" rx="16" fill="white"/>
<path d="M3.84387 14H14.9244C15.3974 14 15.8321 13.7403 16.0564 13.3239L19.6938 6.56857C19.8322 6.3116 19.6461 6 19.3542 6H18.8462H10.5107C10.1375 6 9.78274 6.16216 9.53853 6.44437L3.55221 13.3619C3.33601 13.6117 3.51348 14 3.84387 14Z" fill="#3974E7"/>
<path d="M5.00781 13.2348L11 6.5L17.0078 12.8305V24.9991H6.29351C5.58344 24.9991 5.00781 24.4235 5.00781 23.7134L5.00781 13.2348Z" fill="#90B6FF"/>
<path d="M17.0078 12H27.0078V23.7143C27.0078 24.4244 26.4322 25 25.7221 25H17.0078V12Z" fill="#699CFF"/>
<path d="M8.00781 19C8.00781 17.3431 9.35096 16 11.0078 16C12.6647 16 14.0078 17.3431 14.0078 19V25H8.00781V19Z" fill="#3974E7"/>
<path d="M9.00391 13C9.00391 11.8954 9.89934 11 11.0039 11C12.1085 11 13.0039 11.8954 13.0039 13C13.0039 13.5523 12.5562 14 12.0039 14H10.0039C9.45162 14 9.00391 13.5523 9.00391 13Z" fill="#3974E7"/>
<path d="M19 17.5C19 16.6716 19.6716 16 20.5 16C21.3284 16 22 16.6716 22 17.5V19.3333V20.4C22 20.7314 21.7314 21 21.4 21H19.6C19.2686 21 19 20.7314 19 20.4V19.3333V17.5Z" fill="#3974E7"/>
<path d="M23 17.5C23 16.6716 23.6716 16 24.5 16C25.3284 16 26 16.6716 26 17.5V19.3333V20.4C26 20.7314 25.7314 21 25.4 21H23.6C23.2686 21 23 20.7314 23 20.4V19.3333V17.5Z" fill="#3974E7"/>
<path d="M28.1016 14H17.2061C16.8223 14 16.4585 13.8285 16.2143 13.5325L10.27 6.32728C10.1624 6.19683 10.2552 6 10.4243 6H11.2667H20.848C21.2005 6 21.5374 6.14467 21.7802 6.40018L28.3812 13.3486C28.6146 13.5943 28.4404 14 28.1016 14Z" fill="#4081FF"/>
</svg>
