<svg width="16" height="16" viewBox="0 0 16 16" fill="none" xmlns="http://www.w3.org/2000/svg">
<path d="M9.2 5.59766H3.2C2.5382 5.59766 2 6.13586 2 6.79766V12.7977C2 13.4595 2.5382 13.9977 3.2 13.9977H9.2C9.8618 13.9977 10.4 13.4595 10.4 12.7977V6.79766C10.4 6.13586 9.8618 5.59766 9.2 5.59766Z" fill="#ABABAB"/>
<path d="M12.8006 2H6.80059C6.48233 2 6.1771 2.12643 5.95206 2.35147C5.72701 2.57652 5.60059 2.88174 5.60059 3.2V4.4H10.4006C10.7188 4.4 11.0241 4.52643 11.2491 4.75147C11.4742 4.97652 11.6006 5.28174 11.6006 5.6V10.4H12.8006C13.1188 10.4 13.4241 10.2736 13.6491 10.0485C13.8742 9.82348 14.0006 9.51826 14.0006 9.2V3.2C14.0006 2.88174 13.8742 2.57652 13.6491 2.35147C13.4241 2.12643 13.1188 2 12.8006 2Z" fill="#ABABAB"/>
</svg>
