<svg width="16" height="19" viewBox="0 0 16 19" fill="none" xmlns="http://www.w3.org/2000/svg">
<path d="M0.871188 4.67455C0.950368 3.64522 1.5948 2.74509 2.5437 2.33841C6.02798 0.845151 9.97202 0.845151 13.4563 2.33841C14.4052 2.74509 15.0496 3.64522 15.1288 4.67455L15.789 13.2568C15.9028 14.7366 14.7328 16 13.2487 16H2.75128C1.26718 16 0.0971881 14.7366 0.211014 13.2568L0.871188 4.67455Z" fill="#FBA907"/>
<path d="M3 16H6L3.29289 18.7071C3.10536 18.8946 2.851 19 2.58579 19H0.965685C0.609323 19 0.430857 18.5691 0.682843 18.3172L3 16Z" fill="#FBA907"/>
<path d="M13 16H10L12.7071 18.7071C12.8946 18.8946 13.149 19 13.4142 19H15.0343C15.3907 19 15.5691 18.5691 15.3172 18.3172L13 16Z" fill="#FBA907"/>
<path d="M2 6C2 4.89543 2.89543 4 4 4H12C13.1046 4 14 4.89543 14 6V8C14 8.55228 13.5523 9 13 9H3C2.44772 9 2 8.55228 2 8V6Z" fill="#FFEFCF"/>
<rect x="5" y="13" width="6" height="2" rx="1" fill="#F28D00"/>
<circle cx="3.3" cy="11.6984" r="1.3" fill="#FFEFCF"/>
<circle cx="12.6984" cy="11.6984" r="1.3" fill="#FFEFCF"/>
</svg>
