<svg width="23" height="24" viewBox="0 0 23 24" fill="none" xmlns="http://www.w3.org/2000/svg">
<path d="M2.82767 12.9983C2.58682 11.3055 2.58444 10.0662 3.67353 9.59762C4.26458 9.34331 4.86245 9.59629 5.45517 9.00198C8.72521 4.84011 6.34883 7.51536 8.13065 6.3265C10.2492 4.91296 11.0832 6.51356 13.2226 6.56666C15.362 6.61976 15.8242 6 17.051 6.56666C18.2778 7.13332 18.2385 9.00279 17.6136 9.721C19.1305 9.89435 19.0697 12.8845 17.8242 13C18.7736 14.4693 17.9424 15.8398 17.051 15.8405C17.3312 16.1539 17.2423 17.2364 16.7536 17.9206C15.3343 19.9076 10.0261 18.9819 8.51438 18.1179C8.38652 18.0448 8.24468 17.9962 8.09742 17.996C4.81264 17.9907 4.53719 17.8181 3.97048 16.732C3.39089 15.6213 3.08163 14.7832 2.82767 12.9983Z" fill="#FBA907"/>
<path d="M17.6284 9.90093C16.8341 10.1914 16.1729 10.1914 15.5117 10.1914" stroke="#FFEFCF" stroke-linecap="round" stroke-linejoin="round"/>
<path d="M16.9603 16.2314C16.1535 16.5569 15.4889 16.5871 14.8242 16.6172" stroke="#FFEFCF" stroke-linecap="round" stroke-linejoin="round"/>
<path d="M17.9382 13.1661C16.9155 13.5313 16.1038 13.6454 15.2812 13.6445" stroke="#FFEFCF" stroke-linecap="round" stroke-linejoin="round"/>
<path d="M7.54661 3.38079C8.07239 5.08131 7.14664 6.48696 6.47148 7.73646C6.1083 8.35358 6.30809 9.10522 6.5061 9.62618C6.52907 9.68662 6.561 9.74214 6.6011 9.79285C7.69086 11.171 9.74817 13.2883 11.675 8.15807C11.6867 8.12688 11.6966 8.0936 11.703 8.0609C11.8531 7.29375 11.8556 5.83553 11.8654 5.03581C11.9241 0.131999 6.34308 -0.511744 7.54661 3.38079Z" fill="#FBA907"/>
</svg>
