<svg width="1em" height="1em" viewBox="0 0 24 24" fill="none" xmlns="http://www.w3.org/2000/svg">
<path d="M13.475 2.95238C14.001 2.95238 14.4274 3.37878 14.4274 3.90476C14.4274 4.43075 14.001 4.85714 13.475 4.85714H6.75995C5.182 4.85714 3.90281 6.13633 3.90281 7.71429V14.8841L5.10724 13.7439C6.16068 12.7463 7.79443 12.6968 8.90653 13.6285L10.5183 14.9781L13.049 12.4697C14.1663 11.3618 15.9694 11.3661 17.0818 12.479L19.1409 14.5391V10.2254C19.1409 9.69946 19.5673 9.27307 20.0933 9.27307C20.6193 9.27307 21.0457 9.69946 21.0457 10.2254V17.2381L21.0392 17.4827C20.9118 19.9989 18.8316 22 16.2838 22H6.75995C4.13002 22 1.99805 19.868 1.99805 17.2381V7.71429C1.99805 5.1664 3.9991 3.08622 6.51535 2.95889L6.75995 2.95238H13.475ZM15.735 13.8257C15.3642 13.4547 14.7626 13.4527 14.3902 13.822L8.0639 20.0952H16.2838C17.8617 20.0952 19.1409 18.8161 19.1409 17.2381V17.2325L15.735 13.8257ZM7.6835 15.0887C7.3128 14.7781 6.76792 14.7943 6.41676 15.1269L3.9149 17.4957C4.00923 18.551 4.6772 19.4399 5.60482 19.8506L9.15951 16.3257L7.6835 15.0887ZM9.61709 6.20573C11.1162 6.20573 12.331 7.42058 12.331 8.91964C12.331 10.4187 11.1162 11.6336 9.61709 11.6336C8.11804 11.6336 6.90318 10.4187 6.90318 8.91964C6.90318 7.42058 8.11804 6.20573 9.61709 6.20573ZM9.61709 7.82403C9.01221 7.82403 8.52148 8.31476 8.52148 8.91964C8.52148 9.52453 9.01221 10.0153 9.61709 10.0153C10.222 10.0153 10.7127 9.52453 10.7127 8.91964C10.7127 8.31476 10.222 7.82403 9.61709 7.82403ZM18.9028 2C19.2973 2 19.6171 2.3198 19.6171 2.71429V4.38095H21.2838C21.6782 4.38095 21.998 4.70075 21.998 5.09524C21.998 5.48973 21.6782 5.80952 21.2838 5.80952H19.6171V7.47619C19.6171 7.87068 19.2973 8.19048 18.9028 8.19048C18.5083 8.19048 18.1885 7.87068 18.1885 7.47619V5.80952H16.5219C16.1274 5.80952 15.8076 5.48973 15.8076 5.09524C15.8076 4.70075 16.1274 4.38095 16.5219 4.38095H18.1885V2.71429C18.1885 2.3198 18.5083 2 18.9028 2Z" fill="currentColor"/>
</svg>
