<svg width="1em" height="1em" viewBox="0 0 24 24" fill="none" xmlns="http://www.w3.org/2000/svg">
<path d="M5.65953 15.3205C6.57607 15.3205 7.31906 16.0635 7.31906 16.98C7.31906 17.8965 6.57607 18.6395 5.65953 18.6395C4.743 18.6395 4 17.8965 4 16.98C4 16.0635 4.743 15.3205 5.65953 15.3205ZM18.6171 15.5971C19.3807 15.5972 20 16.2163 20 16.98C20 17.7437 19.3807 18.3628 18.6171 18.3629H10.6511C9.88731 18.3629 9.26815 17.7438 9.26815 16.98C9.26815 16.2162 9.88731 15.5971 10.6511 15.5971H18.6171ZM5.65953 10.3419C6.57607 10.3419 7.31906 11.0849 7.31906 12.0014C7.31906 12.9179 6.57607 13.6609 5.65953 13.6609C4.743 13.6609 4 12.9179 4 12.0014C4 11.0849 4.743 10.3419 5.65953 10.3419ZM18.6171 10.6185C19.3807 10.6186 20 11.2377 20 12.0014C20 12.7651 19.3807 13.3842 18.6171 13.3843H10.6511C9.88731 13.3843 9.26815 12.7652 9.26815 12.0014C9.26815 11.2376 9.88731 10.6185 10.6511 10.6185H18.6171ZM5.65953 5.36328C6.57607 5.36328 7.31906 6.10628 7.31906 7.02281C7.31906 7.93935 6.57607 8.68234 5.65953 8.68234C4.743 8.68234 4 7.93935 4 7.02281C4 6.10628 4.743 5.36328 5.65953 5.36328ZM18.6171 5.63987C19.3807 5.63999 20 6.25911 20 7.02281C20 7.78652 19.3807 8.40564 18.6171 8.40576H10.6511C9.88731 8.40576 9.26815 7.78659 9.26815 7.02281C9.26815 6.25903 9.88731 5.63987 10.6511 5.63987H18.6171Z" fill="currentColor"/>
</svg>
