<svg width="25" height="25" viewBox="0 0 25 25" fill="none" xmlns="http://www.w3.org/2000/svg">
<path d="M21.8103 7.68384L17.6216 3.49415C17.4823 3.35482 17.3169 3.2443 17.1349 3.1689C16.9529 3.0935 16.7578 3.05469 16.5608 3.05469C16.3638 3.05469 16.1687 3.0935 15.9867 3.1689C15.8047 3.2443 15.6393 3.35482 15.5 3.49415L3.93969 15.0554C3.7998 15.1942 3.68889 15.3594 3.61341 15.5414C3.53792 15.7234 3.49938 15.9187 3.50001 16.1157V20.3054C3.50001 20.7032 3.65804 21.0848 3.93935 21.3661C4.22065 21.6474 4.60218 21.8054 5.00001 21.8054H9.1897C9.38675 21.806 9.58196 21.7675 9.76399 21.692C9.94602 21.6165 10.1112 21.5056 10.25 21.3657L21.8103 9.8054C21.9496 9.66611 22.0602 9.50073 22.1356 9.31872C22.211 9.13671 22.2498 8.94163 22.2498 8.74462C22.2498 8.54761 22.211 8.35252 22.1356 8.17051C22.0602 7.9885 21.9496 7.82313 21.8103 7.68384ZM18.5 10.9941L14.3103 6.8054L16.5603 4.5554L20.75 8.74415L18.5 10.9941Z" fill="white"/>
</svg>
