<svg width="24" height="24" viewBox="0 0 24 24" fill="none" xmlns="http://www.w3.org/2000/svg">
<path d="M12 2C17.5228 2 22 6.47715 22 12C22 17.5228 17.5228 22 12 22C6.47715 22 2 17.5228 2 12C2 6.47715 6.47715 2 12 2ZM14.2139 11.7305C14.1419 11.3228 13.7534 11.0504 13.3457 11.1221L10.3906 11.6436C9.98304 11.7156 9.71055 12.1041 9.78223 12.5117C9.85415 12.9196 10.2434 13.192 10.6514 13.1201L13.6055 12.5996C14.0134 12.5277 14.2858 12.1384 14.2139 11.7305ZM8.38672 7.60156C7.83443 7.60156 7.38672 8.04928 7.38672 8.60156C7.38672 9.15385 7.83443 9.60156 8.38672 9.60156C8.939 9.60156 9.38672 9.15385 9.38672 8.60156C9.38672 8.04928 8.939 7.60156 8.38672 7.60156ZM15.6133 7.60156C15.061 7.60156 14.6133 8.04928 14.6133 8.60156C14.6133 9.15385 15.061 9.60156 15.6133 9.60156C16.1656 9.60156 16.6133 9.15385 16.6133 8.60156C16.6133 8.04928 16.1656 7.60156 15.6133 7.60156Z" fill="black"/>
</svg>
