<svg width="24" height="24" viewBox="0 0 24 24" fill="none" xmlns="http://www.w3.org/2000/svg">
<path d="M11.4688 2.82003C11.6611 2.34124 12.3389 2.34124 12.5312 2.82003L14.8268 8.53666C14.9087 8.74055 15.1 8.87958 15.3192 8.89444L21.4655 9.31119C21.9803 9.34609 22.1897 9.99071 21.7938 10.3215L17.0663 14.2713C16.8977 14.4122 16.8246 14.6372 16.8782 14.8502L18.3812 20.8244C18.507 21.3248 17.9587 21.7232 17.5217 21.4489L12.3043 18.1734C12.1183 18.0565 11.8817 18.0565 11.6957 18.1734L6.47829 21.4489C6.04132 21.7232 5.49297 21.3248 5.61885 20.8244L7.12179 14.8502C7.17539 14.6372 7.1023 14.4122 6.93369 14.2713L2.20624 10.3215C1.8103 9.99071 2.01975 9.34609 2.53452 9.31119L8.68075 8.89444C8.89996 8.87958 9.09132 8.74055 9.17319 8.53666L11.4688 2.82003Z" fill="black"/>
</svg>
