<svg width="24" height="24" viewBox="0 0 24 24" fill="none" xmlns="http://www.w3.org/2000/svg">
<path d="M4.47852 16.2135V6.81641C4.47852 6.02229 4.66234 5.36788 5.02999 4.85317C5.39763 4.33847 5.95646 3.95611 6.70646 3.70611C7.45646 3.45611 8.23587 3.28699 9.04469 3.19876C9.85352 3.11052 10.8388 3.06641 12.0006 3.06641C13.1623 3.06641 14.1476 3.11052 14.9565 3.19876C15.7653 3.28699 16.5447 3.45611 17.2947 3.70611C18.0447 3.95611 18.6035 4.33847 18.9712 4.85317C19.3388 5.36788 19.5226 6.02229 19.5226 6.81641V16.2135C19.5226 17.037 19.2138 17.7429 18.5962 18.3311V20.0076C18.5962 20.2429 18.5006 20.4561 18.3094 20.6473C18.1182 20.8385 17.905 20.9341 17.6697 20.9341H16.6991C16.4638 20.9341 16.2506 20.8385 16.0594 20.6473C15.8682 20.4561 15.7726 20.2429 15.7726 20.0076V19.037H8.22852V20.0076C8.22852 20.2429 8.14028 20.4561 7.96381 20.6473C7.78734 20.8385 7.56675 20.9341 7.30204 20.9341H6.37557C6.11087 20.9341 5.88293 20.8385 5.69175 20.6473C5.50057 20.4561 5.40499 20.2429 5.40499 20.0076V18.3311C4.78734 17.7429 4.47852 17.037 4.47852 16.2135ZM7.76528 17.1841C8.16234 17.1841 8.50057 17.0443 8.77999 16.7649C9.0594 16.4855 9.1991 16.1473 9.1991 15.7502C9.1991 15.3532 9.0594 15.0223 8.77999 14.7576C8.50057 14.4929 8.16234 14.3605 7.76528 14.3605C7.36822 14.3605 7.03734 14.4929 6.77263 14.7576C6.50793 15.0223 6.37557 15.3532 6.37557 15.7502C6.37557 16.1473 6.50793 16.4855 6.77263 16.7649C7.03734 17.0443 7.36822 17.1841 7.76528 17.1841ZM16.2359 17.1841C16.6329 17.1841 16.9712 17.0443 17.2506 16.7649C17.53 16.4855 17.6697 16.1473 17.6697 15.7502C17.6697 15.3532 17.53 15.0223 17.2506 14.7576C16.9712 14.4929 16.6329 14.3605 16.2359 14.3605C15.8388 14.3605 15.5079 14.4929 15.2432 14.7576C14.9785 15.0223 14.8462 15.3532 14.8462 15.7502C14.8462 16.1473 14.9785 16.4855 15.2432 16.7649C15.5079 17.0443 15.8388 17.1841 16.2359 17.1841ZM16.6697 11.537C17.222 11.537 17.6697 11.0893 17.6697 10.537V7.81641C17.6697 7.26412 17.222 6.81641 16.6697 6.81641H7.37557C6.82329 6.81641 6.37557 7.26412 6.37557 7.81641V10.537C6.37557 11.0893 6.82329 11.537 7.37557 11.537H16.6697Z" fill="black"/>
</svg>
