<svg width="1em" height="1em" viewBox="0 0 24 24" fill="none" xmlns="http://www.w3.org/2000/svg">
<path d="M12.002 2C17.5248 2 22.002 6.47715 22.002 12C22.002 17.5228 17.5248 22 12.002 22C6.47911 22 2.00195 17.5228 2.00195 12C2.00195 6.47715 6.47911 2 12.002 2ZM12.002 3.5C7.30753 3.5 3.50195 7.30558 3.50195 12C3.50195 16.6944 7.30753 20.5 12.002 20.5C16.6964 20.5 20.502 16.6944 20.502 12C20.502 7.30558 16.6964 3.5 12.002 3.5ZM12.002 10.5039C13.4168 10.5039 14.752 11.5194 14.752 12.9883C14.752 13.4025 14.4162 13.7383 14.002 13.7383C13.5877 13.7383 13.252 13.4025 13.252 12.9883C13.252 12.5414 12.7962 12.0039 12.002 12.0039C11.2077 12.0039 10.752 12.5414 10.752 12.9883C10.752 13.4025 10.4162 13.7383 10.002 13.7383C9.58774 13.7383 9.25195 13.4025 9.25195 12.9883C9.25195 11.5194 10.5871 10.5039 12.002 10.5039ZM6.6543 8.29199C6.7262 7.88421 7.1147 7.61193 7.52246 7.68359L9.49219 8.03027C9.90009 8.1022 10.1725 8.49151 10.1006 8.89941C10.0287 9.30723 9.64023 9.57955 9.23242 9.50781L7.2627 9.16016C6.85484 9.08824 6.58249 8.69984 6.6543 8.29199ZM16.4824 7.68359C16.8903 7.61169 17.2796 7.88408 17.3516 8.29199C17.4233 8.69967 17.1508 9.08806 16.7432 9.16016L14.7734 9.50781C14.3655 9.57974 13.9762 9.30733 13.9043 8.89941C13.8324 8.49154 14.1048 8.10219 14.5127 8.03027L16.4824 7.68359Z" fill="currentColor"/>
</svg>
