<svg width="24" height="24" viewBox="0 0 24 24" fill="none" xmlns="http://www.w3.org/2000/svg">
<path d="M12 2C17.5228 2 22 6.47715 22 12C22 17.5228 17.5228 22 12 22C6.47715 22 2 17.5228 2 12C2 6.47715 6.47715 2 12 2ZM12 10.5039C10.5851 10.5039 9.25 11.5194 9.25 12.9883C9.25 13.4025 9.58579 13.7383 10 13.7383C10.4142 13.7383 10.75 13.4025 10.75 12.9883C10.75 12.5414 11.2057 12.0039 12 12.0039C12.7943 12.0039 13.25 12.5414 13.25 12.9883C13.25 13.4025 13.5858 13.7383 14 13.7383C14.4142 13.7383 14.75 13.4025 14.75 12.9883C14.75 11.5194 13.4149 10.5039 12 10.5039ZM7.52051 7.68359C7.11274 7.61193 6.72425 7.88421 6.65234 8.29199C6.58053 8.69984 6.85288 9.08824 7.26074 9.16016L9.23047 9.50781C9.63828 9.57955 10.0267 9.30723 10.0986 8.89941C10.1705 8.49151 9.89814 8.1022 9.49023 8.03027L7.52051 7.68359ZM17.3496 8.29199C17.2777 7.88408 16.8884 7.61169 16.4805 7.68359L14.5107 8.03027C14.1029 8.10219 13.8305 8.49154 13.9023 8.89941C13.9743 9.30733 14.3636 9.57974 14.7715 9.50781L16.7412 9.16016C17.1488 9.08806 17.4213 8.69967 17.3496 8.29199Z" fill="black"/>
</svg>
