<svg width="26" height="26" viewBox="0 0 26 26" fill="none" xmlns="http://www.w3.org/2000/svg">
<rect width="26" height="26" rx="13" fill="white"/>
<path d="M4.82767 14.9983C4.58682 13.3055 4.58444 12.0662 5.67353 11.5976C6.26458 11.3433 6.86245 11.5963 7.45517 11.002C10.7252 6.84011 8.34883 9.51536 10.1307 8.3265C12.2492 6.91296 13.0832 8.51356 15.2226 8.56666C17.362 8.61976 17.8242 8 19.051 8.56666C20.2778 9.13332 20.2385 11.0028 19.6136 11.721C21.1305 11.8944 21.0697 14.8845 19.8242 15C20.7736 16.4693 19.9424 17.8398 19.051 17.8405C19.3312 18.1539 19.2423 19.2364 18.7536 19.9206C17.3343 21.9076 12.0261 20.9819 10.5144 20.1179C10.3865 20.0448 10.2447 19.9962 10.0974 19.996C6.81264 19.9907 6.53719 19.8181 5.97048 18.732C5.39089 17.6213 5.08163 16.7832 4.82767 14.9983Z" fill="#FBA907"/>
<path d="M19.6284 11.9009C18.8341 12.1914 18.1729 12.1914 17.5117 12.1914" stroke="#FFEFCF" stroke-linecap="round" stroke-linejoin="round"/>
<path d="M18.9603 18.2314C18.1535 18.5569 17.4889 18.5871 16.8242 18.6172" stroke="#FFEFCF" stroke-linecap="round" stroke-linejoin="round"/>
<path d="M19.9382 15.1661C18.9155 15.5313 18.1038 15.6454 17.2812 15.6445" stroke="#FFEFCF" stroke-linecap="round" stroke-linejoin="round"/>
<path d="M9.54661 5.38079C10.0724 7.08131 9.14664 8.48696 8.47148 9.73646C8.1083 10.3536 8.30809 11.1052 8.5061 11.6262C8.52907 11.6866 8.561 11.7421 8.6011 11.7929C9.69086 13.171 11.7482 15.2883 13.675 10.1581C13.6867 10.1269 13.6966 10.0936 13.703 10.0609C13.8531 9.29375 13.8556 7.83553 13.8654 7.03581C13.9241 2.132 8.34308 1.48826 9.54661 5.38079Z" fill="#FBA907"/>
</svg>
