<svg width="23" height="24" viewBox="0 0 23 24" fill="none" xmlns="http://www.w3.org/2000/svg">
<path d="M2.82767 10.7127C2.58682 12.4055 2.58444 13.6447 3.67353 14.1133C4.26458 14.3676 4.86245 14.1146 5.45517 14.709C8.72521 18.8708 6.34883 16.1956 8.13065 17.3844C10.2492 18.798 11.0832 17.1974 13.2226 17.1443C15.362 17.0912 15.8242 17.7109 17.051 17.1443C18.2778 16.5776 18.2385 14.7081 17.6136 13.9899C19.1305 13.8166 19.0697 10.8264 17.8242 10.7109C18.7736 9.24159 17.9424 7.87112 17.051 7.87045C17.3312 7.55704 17.2423 6.4745 16.7536 5.7903C15.3343 3.80332 10.0261 4.72906 8.51438 5.59304C8.38652 5.66611 8.24468 5.71475 8.09742 5.71499C4.81264 5.72028 4.53719 5.89287 3.97048 6.9789C3.39089 8.08962 3.08163 8.92775 2.82767 10.7127Z" fill="#FBA907"/>
<path d="M17.6284 13.81C16.8341 13.5195 16.1729 13.5195 15.5117 13.5195" stroke="#FFEFCF" stroke-linecap="round" stroke-linejoin="round"/>
<path d="M16.9603 7.47953C16.1535 7.15399 15.4889 7.12387 14.8242 7.09375" stroke="#FFEFCF" stroke-linecap="round" stroke-linejoin="round"/>
<path d="M17.9382 10.5448C16.9155 10.1796 16.1038 10.0655 15.2812 10.0664" stroke="#FFEFCF" stroke-linecap="round" stroke-linejoin="round"/>
<path d="M7.54661 20.3301C8.07239 18.6296 7.14664 17.224 6.47148 15.9745C6.1083 15.3574 6.30809 14.6057 6.5061 14.0848C6.52907 14.0243 6.561 13.9688 6.6011 13.9181C7.69086 12.5399 9.74817 10.4227 11.675 15.5529C11.6867 15.5841 11.6966 15.6173 11.703 15.65C11.8531 16.4172 11.8556 17.8754 11.8654 18.6751C11.9241 23.5789 6.34308 24.2227 7.54661 20.3301Z" fill="#FBA907"/>
</svg>
