<svg width="20" height="20" viewBox="0 0 20 20" fill="none" xmlns="http://www.w3.org/2000/svg">
<path d="M10.0015 0.832031C10.5091 0.832031 10.9205 1.24348 10.9205 1.75103V2.84504C14.1682 3.25887 16.7393 5.83038 17.1534 9.0779H18.2483C18.7558 9.07796 19.1673 9.48944 19.1673 9.9969C19.1673 10.5044 18.7558 10.9158 18.2483 10.9159H17.1543C16.742 14.1655 14.1695 16.7383 10.9205 17.1524V18.2464C10.9203 18.7537 10.509 19.1654 10.0015 19.1654C9.49414 19.1654 9.08278 18.7537 9.08255 18.2464V17.1524C5.83216 16.7396 3.25867 14.1663 2.84609 10.9159H1.75298C1.24558 10.9157 0.833984 10.5043 0.833984 9.9969C0.834049 9.48951 1.24562 9.07807 1.75298 9.0779H2.84699C3.26117 5.82933 5.83347 3.2576 9.08255 2.84504V1.75103C9.08255 1.24348 9.494 0.832031 10.0015 0.832031ZM9.99975 4.62291C7.03087 4.6231 4.62416 7.02982 4.62396 9.9987C4.62396 12.9677 7.03075 15.3752 9.99975 15.3754C12.9689 15.3754 15.3764 12.9679 15.3764 9.9987C15.3762 7.0297 12.9688 4.62291 9.99975 4.62291ZM10.0015 6.7804C11.778 6.7804 13.218 8.22048 13.218 9.9969C13.218 11.7733 11.778 13.2134 10.0015 13.2134C8.22512 13.2134 6.78505 11.7733 6.78505 9.9969C6.78505 8.22048 8.22512 6.7804 10.0015 6.7804Z" fill="#669AFF"/>
</svg>
