<svg width="24" height="24" viewBox="0 0 24 24" fill="none" xmlns="http://www.w3.org/2000/svg">
<path d="M18.0292 16.5584L13.0039 21.5837C12.4488 22.1388 11.5489 22.1388 10.9938 21.5837L5.9685 16.5584C4.77583 15.3657 3.96362 13.8461 3.63457 12.1919C3.30551 10.5376 3.47441 8.82284 4.11988 7.26454C4.76536 5.70623 5.85843 4.37432 7.26088 3.43724C8.66332 2.50016 10.3121 2 11.9988 2C13.6855 2 15.3344 2.50016 16.7368 3.43724C18.1393 4.37432 19.2323 5.70623 19.8778 7.26454C20.5233 8.82284 20.6922 10.5376 20.3631 12.1919C20.0341 13.8461 19.2219 15.3657 18.0292 16.5584ZM11.0513 9.58049H9.15613C8.6328 9.58049 8.20856 10.0047 8.20856 10.5281L-nan -nanL8.20856 10.5281C8.20856 11.0514 8.6328 11.4756 9.15613 11.4756H11.0513V13.3708C11.0513 13.8941 11.4755 14.3183 11.9988 14.3183L-nan -nanL11.9988 14.3183C12.5222 14.3183 12.9464 13.8941 12.9464 13.3708V11.4756H14.8416C15.3649 11.4756 15.7891 11.0514 15.7891 10.5281L-nan -nanL15.7891 10.5281C15.7891 10.0047 15.3649 9.58049 14.8416 9.58049H12.9464V7.68535C12.9464 7.16202 12.5222 6.73778 11.9988 6.73778L-nan -nanL11.9988 6.73778C11.4755 6.73778 11.0513 7.16202 11.0513 7.68535V9.58049Z" fill="black"/>
</svg>
