<svg width="24" height="24" viewBox="0 0 24 24" fill="none" xmlns="http://www.w3.org/2000/svg">
<path d="M14.6667 20L9.33333 18.1333L5.2 19.7333C4.9037 19.8519 4.62963 19.8184 4.37778 19.6329C4.12593 19.4474 4 19.1994 4 18.8889V6.44444C4 6.25185 4.0557 6.08148 4.16711 5.93333C4.27852 5.78519 4.43022 5.67407 4.62222 5.6L9.33333 4L14.6667 5.86667L18.8 4.26667C19.0963 4.14815 19.3704 4.18163 19.6222 4.36711C19.8741 4.55259 20 4.80059 20 5.11111V17.5556C20 17.7481 19.9443 17.9185 19.8329 18.0667C19.7215 18.2148 19.5698 18.3259 19.3778 18.4L14.6667 20ZM13.7778 17.8222V7.42222L10.2222 6.17778V16.5778L13.7778 17.8222Z" fill="currentColor"/>
</svg>
