<svg width="24" height="24" viewBox="0 0 24 24" fill="none" xmlns="http://www.w3.org/2000/svg">
<path d="M7.59968 7.12656C7.59968 4.69651 9.56962 2.72656 11.9997 2.72656C14.4297 2.72656 16.3996 4.69651 16.3996 7.12656C16.3996 9.55662 14.4297 11.5266 11.9997 11.5266C9.56962 11.5266 7.59968 9.55662 7.59968 7.12656Z" fill="black"/>
<path d="M11.9996 13.4727C9.68765 13.4727 7.53021 13.9252 5.91594 14.7948C4.30281 15.6637 3.09962 17.0389 3.09962 18.8727L3.09961 19.2003C3.09958 19.387 3.09955 19.577 3.11282 19.7395C3.12759 19.9202 3.16317 20.1445 3.27947 20.3727C3.43767 20.6832 3.6901 20.9356 4.00059 21.0938C4.22884 21.2101 4.45309 21.2456 4.63382 21.2604C4.79626 21.2736 4.98629 21.2736 5.17294 21.2736L18.8265 21.2728C19.0131 21.2728 19.2031 21.2728 19.3655 21.2595C19.5462 21.2447 19.7705 21.2092 19.9987 21.0929C20.3091 20.9347 20.5615 20.6822 20.7197 20.3718C20.836 20.1436 20.8716 19.9193 20.8863 19.7386C20.8996 19.5762 20.8996 19.3862 20.8995 19.1995L20.8995 18.8727C20.8995 17.0389 19.6963 15.6637 18.0832 14.7948C16.4689 13.9252 14.3115 13.4727 11.9996 13.4727Z" fill="black"/>
</svg>
