<svg width="164" height="131" viewBox="0 0 164 131" fill="none" xmlns="http://www.w3.org/2000/svg">
<rect x="-27.1992" y="47.9023" width="203.379" height="84.328" fill="#4C89FF"/>
<path opacity="0.2" d="M130.074 40.5328L149.724 37.2715L151.349 47.0592L149.408 47.3814L186.872 60.6509L183.56 70.0026L129.175 50.7396L25.4542 67.9581C23.0014 68.3653 22.6066 71.7266 24.8984 72.6909L83.3966 97.3075C86.1199 98.4535 89.1227 98.7629 92.0224 98.1963L195.948 77.8902L197.849 87.6271L111.972 104.407C109.567 104.877 109.227 108.177 111.485 109.127L175.516 136.072L171.668 145.216L90.6897 111.139C87.9664 109.993 84.9636 109.684 82.0638 110.25L-30.4345 132.233L-32.3358 122.496L62.1148 104.04C64.5191 103.57 64.8591 100.27 62.6012 99.3197L2.61301 74.0764C0.0225429 72.9863 -2.82366 72.6521 -5.59619 73.1123L-31.3258 77.384L-32.951 67.5963L-26.954 66.6003C-24.5012 66.1929 -24.1067 62.8318 -26.3984 61.8674L-49.8477 52.0003L-45.9989 42.8569L-4.11476 60.4816C-1.5244 61.5717 1.32168 61.9059 4.0941 61.4457L110.785 43.7349L113.945 34.8203L130.074 40.5328Z" fill="#8EB4FF"/>
<g opacity="0.9">
<ellipse cx="109.752" cy="75.1717" rx="54.8808" ry="6.40219" fill="#3378FF"/>
</g>
<path d="M61.1396 33.3698H106.033C107.95 33.3698 109.711 32.3176 110.62 30.6303L125.357 3.26066C125.918 2.21952 125.164 0.957031 123.981 0.957031H121.923H88.151C86.639 0.957031 85.2015 1.61405 84.212 2.75743L59.9579 30.7844C59.082 31.7966 59.801 33.3698 61.1396 33.3698Z" fill="#2C68DD"/>
<path d="M65.8516 30.2672L90.1295 2.98047L114.471 28.6291V77.9315L70.8303 75.9635C68.0477 75.8381 65.8562 73.5457 65.8559 70.7603L65.8516 30.2672Z" fill="#A8C6FF"/>
<path d="M114.473 25.2656H154.989V70.604C154.989 73.36 152.842 75.6391 150.091 75.8038L114.473 77.9363V25.2656Z" fill="#90B5FF"/>
<path d="M78.0156 53.6152C78.0156 46.8855 83.4909 41.4406 90.2205 41.478C96.8973 41.5152 102.29 46.9383 102.29 53.6152V77.3827L78.0156 76.3025V53.6152Z" fill="#3974E7"/>
<path d="M82.043 29.318C82.043 24.8428 85.6709 21.2148 90.1462 21.2148C94.6214 21.2148 98.2493 24.8428 98.2493 29.318C98.2493 31.5557 96.4354 33.3696 94.1977 33.3696H86.0946C83.8569 33.3696 82.043 31.5557 82.043 29.318Z" fill="#3974E7"/>
<path d="M122.547 47.55C122.547 44.1936 125.268 41.4727 128.624 41.4727C131.981 41.4727 134.702 44.1936 134.702 47.55V54.978V59.2997C134.702 60.6422 133.613 61.7306 132.271 61.7306H124.978C123.635 61.7306 122.547 60.6422 122.547 59.2997V54.978V47.55Z" fill="#2C68DD"/>
<path d="M138.754 47.55C138.754 44.1936 141.475 41.4727 144.831 41.4727C148.188 41.4727 150.909 44.1936 150.909 47.55V54.978V59.2997C150.909 60.6422 149.82 61.7306 148.478 61.7306H141.185C139.842 61.7306 138.754 60.6422 138.754 59.2997V54.978V47.55Z" fill="#2C68DD"/>
<path d="M159.422 33.3698H115.278C113.723 33.3698 112.249 32.6751 111.26 31.4756L87.176 2.28302C86.74 1.75452 87.1159 0.957031 87.801 0.957031H91.214H130.034C131.462 0.957031 132.827 1.54316 133.81 2.57838L160.555 30.7307C161.501 31.7261 160.795 33.3698 159.422 33.3698Z" fill="#4081FF"/>
</svg>
