<svg width="230" height="142" viewBox="0 0 230 142" fill="none" xmlns="http://www.w3.org/2000/svg">
<path d="M41.9863 41.9375H193.986V125.937C193.986 134.774 186.823 141.938 177.986 141.938H57.9863C49.1498 141.938 41.9863 134.774 41.9863 125.938V41.9375Z" fill="#98BBFF"/>
<path d="M101.601 24C104.854 24 107.778 25.9802 108.986 29V29C110.194 32.0198 113.119 34 116.371 34H185.986C190.405 34 193.986 37.5817 193.986 42V42H41.9863V40C41.9863 31.1634 49.1498 24 57.9863 24H101.601Z" fill="#669AFF"/>
<circle cx="48.5496" cy="32.7495" r="20.4454" transform="rotate(97.7921 48.5496 32.7495)" fill="white" fill-opacity="0.3" stroke="#548EFF" stroke-width="6.60306"/>
<rect x="23.166" y="44.0664" width="12.6249" height="29.0777" rx="4.40204" transform="rotate(52.8172 23.166 44.0664)" fill="#377BFF"/>
<path d="M207.987 2.02503C208.338 0.927237 209.542 0.352855 210.616 0.770614L213.266 1.80095C214.346 2.22093 214.844 3.46791 214.351 4.51642L207.856 18.3201C207.418 19.251 206.345 19.6978 205.376 19.3529L204.566 19.0647C203.549 18.7028 203.003 17.599 203.332 16.5708L207.987 2.02503Z" fill="#ADC9FF"/>
<rect x="201.889" y="20.5781" width="5" height="5" rx="2.5" transform="rotate(21.2499 201.889 20.5781)" fill="#ADC9FF"/>
<path d="M224.74 15.8835C225.559 15.2418 226.75 15.4244 227.339 16.2821L228.644 18.1813C229.233 19.039 228.976 20.2158 228.083 20.75L217.239 27.2373C216.422 27.7262 215.366 27.4956 214.826 26.7107L214.419 26.1172C213.88 25.3323 214.044 24.2636 214.793 23.6764L224.74 15.8835Z" fill="#ADC9FF"/>
<rect x="211.65" y="25.707" width="4.50869" height="4.50869" rx="2.25435" transform="rotate(55.5169 211.65 25.707)" fill="#ADC9FF"/>
</svg>
