<svg width="52" height="52" viewBox="0 0 52 52" fill="none" xmlns="http://www.w3.org/2000/svg">
<path d="M10.832 15.8902C10.832 13.6964 12.6105 11.918 14.8043 11.918H37.1931C39.3869 11.918 41.1654 13.6964 41.1654 15.8902V31.4214C41.1654 34.7201 38.8471 37.5645 35.6163 38.2299L15.6056 42.3514C13.1414 42.859 10.832 40.9768 10.832 38.4609V15.8902Z" fill="#669AFF"/>
<path d="M41.1667 31.418C41.3472 35.5707 38.4586 45.5013 34.1271 42.793C28.931 39.544 36.2917 34.8485 41.1667 31.418Z" fill="#669AFF"/>
<path d="M26 20.1032L41.1667 20.5846V15.8902C41.1667 13.6964 39.3882 11.918 37.1944 11.918H29.914L26 20.1032Z" fill="#4081FF"/>
<path d="M34.4648 4.75781L40.8111 11.1041L33.4071 18.508C32.7206 19.1946 31.8298 19.6399 30.8686 19.7773L26.4263 20.4119C25.6859 20.5177 25.0512 19.883 25.157 19.1426L25.7916 14.7003C25.929 13.7391 26.3743 12.8483 27.0609 12.1618L34.4648 4.75781Z" fill="#FBA907"/>
<path d="M37.6283 1.58656C38.5045 0.710326 39.9252 0.710328 40.8014 1.58656L43.9745 4.75968C44.8508 5.63592 44.8508 7.05657 43.9745 7.93281L40.8014 11.1059L34.4552 4.75968L37.6283 1.58656Z" fill="#FBA907"/>
<rect x="36.1094" y="3.10547" width="8.97495" height="1.92281" transform="rotate(45 36.1094 3.10547)" fill="white"/>
<path d="M22.5086 19.8555H16.1602M16.1602 26.3103H34.0352" stroke="white" stroke-width="1.98611" stroke-linecap="round"/>
<path d="M3.45834 34.4799C3.51156 33.3714 4.42579 32.5 5.53556 32.5H30.5992C31.9463 32.5 33.0198 33.6263 32.9552 34.9718C32.8352 37.4719 33.5137 39.9454 34.8925 42.0343L35.75 43.3333H8.46608C7.78748 43.3333 7.13991 43.0491 6.68055 42.5496L6.19095 42.0173C4.30915 39.9711 3.32503 37.2566 3.45834 34.4799Z" fill="#4081FF"/>
</svg>
