<svg width="69" height="36" viewBox="0 0 69 36" fill="none" xmlns="http://www.w3.org/2000/svg">
<rect y="6" width="24" height="24" rx="12" fill="#669AFF"/>
<path d="M31.144 26.168C30.536 26.168 30.032 25.984 29.632 25.616C29.248 25.232 29.056 24.76 29.056 24.2C29.056 23.64 29.248 23.176 29.632 22.808C30.032 22.424 30.536 22.232 31.144 22.232C31.736 22.232 32.224 22.424 32.608 22.808C32.992 23.176 33.184 23.64 33.184 24.2C33.184 24.76 32.992 25.232 32.608 25.616C32.224 25.984 31.736 26.168 31.144 26.168ZM38.9624 23.24H44.8904V26H35.1464V23.288L40.9544 15.464H35.1704V12.704H44.8184V15.416L38.9624 23.24ZM49.1959 11.12C48.6039 11.12 48.1079 10.936 47.7079 10.568C47.3239 10.184 47.1319 9.712 47.1319 9.152C47.1319 8.592 47.3239 8.128 47.7079 7.76C48.1079 7.376 48.6039 7.184 49.1959 7.184C49.7879 7.184 50.2759 7.376 50.6599 7.76C51.0599 8.128 51.2599 8.592 51.2599 9.152C51.2599 9.712 51.0599 10.184 50.6599 10.568C50.2759 10.936 49.7879 11.12 49.1959 11.12ZM50.8519 12.704V26H47.4919V12.704H50.8519ZM57.5316 14.624C57.9636 14.016 58.5556 13.512 59.3076 13.112C60.0756 12.696 60.9476 12.488 61.9236 12.488C63.0596 12.488 64.0836 12.768 64.9956 13.328C65.9236 13.888 66.6516 14.688 67.1796 15.728C67.7236 16.752 67.9956 17.944 67.9956 19.304C67.9956 20.664 67.7236 21.872 67.1796 22.928C66.6516 23.968 65.9236 24.776 64.9956 25.352C64.0836 25.928 63.0596 26.216 61.9236 26.216C60.9476 26.216 60.0836 26.016 59.3316 25.616C58.5956 25.216 57.9956 24.712 57.5316 24.104V32.336H54.1716V12.704H57.5316V14.624ZM64.5636 19.304C64.5636 18.504 64.3956 17.816 64.0596 17.24C63.7396 16.648 63.3076 16.2 62.7636 15.896C62.2356 15.592 61.6596 15.44 61.0356 15.44C60.4276 15.44 59.8516 15.6 59.3076 15.92C58.7796 16.224 58.3476 16.672 58.0116 17.264C57.6916 17.856 57.5316 18.552 57.5316 19.352C57.5316 20.152 57.6916 20.848 58.0116 21.44C58.3476 22.032 58.7796 22.488 59.3076 22.808C59.8516 23.112 60.4276 23.264 61.0356 23.264C61.6596 23.264 62.2356 23.104 62.7636 22.784C63.3076 22.464 63.7396 22.008 64.0596 21.416C64.3956 20.824 64.5636 20.12 64.5636 19.304Z" fill="black"/>
</svg>
