<svg width="53" height="52" viewBox="0 0 53 52" fill="none" xmlns="http://www.w3.org/2000/svg">
<path d="M30.8516 38.3071L41.0096 15.8525C41.3635 15.0702 40.7914 14.1836 39.9328 14.1836H11.0373C10.3846 14.1836 9.85547 14.7127 9.85547 15.3654V37.82C9.85547 38.4727 10.3846 39.0018 11.0373 39.0018H29.7748C30.239 39.0018 30.6602 38.73 30.8516 38.3071Z" fill="#FFEABF"/>
<path d="M34.5441 38.4867L45.8233 21.9413C46.3582 21.1568 45.7963 20.0938 44.8468 20.0938H21.1428C19.9638 20.0938 18.8273 20.5343 17.9563 21.3291L9.35194 29.1808C9.0964 29.414 8.95586 29.7474 8.9674 30.0932L9.22654 37.8604C9.24779 38.4974 9.77034 39.0028 10.4077 39.0028H33.5676C33.9585 39.0028 34.324 38.8096 34.5441 38.4867Z" fill="#FBA907"/>
<path d="M6.30859 36.038V15.3562C6.30859 12.7454 8.42506 10.6289 11.0359 10.6289H20.4415C22.5157 10.6289 24.2858 12.1284 24.6268 14.1744L12.1924 14.3076C10.8969 14.3215 9.85405 15.3756 9.85405 16.6711V35.7987C9.85405 36.8383 11.0996 37.3714 11.8517 36.6537L17.9387 30.8453C18.818 30.0062 19.9867 29.538 21.2022 29.538H28.638C29.856 29.538 31.027 29.0679 31.9069 28.2256L32.8687 27.3049C33.7485 26.4627 34.9195 25.9925 36.1376 25.9925H47.3999C48.4444 25.9925 48.9754 27.2481 48.2479 27.9975L37.2467 39.3307C36.3564 40.2477 35.1328 40.7653 33.8547 40.7653H11.0359C8.42507 40.7653 6.30859 38.6488 6.30859 36.038Z" fill="#669AFF"/>
</svg>
