<svg width="56" height="56" viewBox="0 0 56 56" fill="none" xmlns="http://www.w3.org/2000/svg">
<g opacity="0.2">
<circle cx="7.89768" cy="41.1005" r="3.89737" fill="#818181"/>
<path d="M50.5717 23.2644C51.3261 24.0151 51.7502 25.0355 51.7502 26.0997V41.9165C51.7502 43.5608 50.4266 44.8987 48.7824 44.9164L40.8071 45.0021L25.9051 45.0018C25.1591 45.0017 24.5543 44.397 24.5543 43.651V40.5434C24.5543 39.9396 24.7995 39.3617 25.2337 38.9421L33.5453 30.9089C33.6893 30.7698 33.5908 30.5261 33.3906 30.5261H26.4615C25.7435 30.5261 25.1615 29.9441 25.1615 29.2261V26.2584C25.1615 25.5405 25.7435 24.9584 26.4615 24.9584H40.0707C40.7887 24.9584 41.3707 25.5405 41.3707 26.2584V29.9322C41.3707 30.3118 41.2166 30.6751 40.9436 30.9388L32.3797 39.2158C32.2357 39.355 32.3342 39.5986 32.5345 39.5986H41.3875H46.3152V28.21C46.3152 27.3342 45.9712 26.4934 45.3574 25.8687L33.9974 14.3073C33.569 13.8714 32.8693 13.8622 32.4296 14.2867L20.4458 25.8587C19.7939 26.4882 19.4257 27.3556 19.4257 28.2618V39.599H20.8435C21.5615 39.599 22.1435 40.181 22.1435 40.899V43.7021C22.1435 44.42 21.5615 45.0021 20.8435 45.0021H17.0226C15.3658 45.0021 14.0226 43.6589 14.0226 42.0021V26.2519C14.0226 25.1672 14.4631 24.1291 15.243 23.3754L30.685 8.45324C32.0951 7.09067 34.3363 7.10715 35.7261 8.49031L50.5717 23.2644Z" fill="#818181"/>
</g>
</svg>
