<svg width="52" height="52" viewBox="0 0 52 52" fill="none" xmlns="http://www.w3.org/2000/svg">
<path d="M22.5365 14.1235C24.5819 14.1235 26.7977 13.6974 27.6499 13.4844L26.3715 18.5978C24.241 17.1063 20.4912 14.1235 22.5365 14.1235Z" fill="#669AFF"/>
<path d="M41.0709 36.4879C39.9612 36.118 39.0075 35.2798 38.4036 34.6025C38.061 34.2182 38.0729 33.6542 38.3721 33.2353L39.4557 31.7183C40.0789 30.8458 41.4255 31.1266 41.5918 32.1859C41.9392 34.399 42.1028 36.8319 41.0709 36.4879Z" fill="#669AFF"/>
<path d="M2.35026 21.5074C3.03445 18.5721 4.68057 15.9663 7.98258 17.618C9.06426 18.1591 10.1043 17.3576 10.5232 16.9386C15.5543 11.9034 19.3252 11.9153 23.7263 13.7991C28.1273 15.6828 30.6422 25.1855 33.1571 28.3251C34.6111 30.1402 36.5904 30.9272 38.051 30.9872C38.804 31.018 39.6757 31.393 39.7861 32.1385C40.4273 36.471 35.9425 36.7845 34.415 36.4032C33.912 39.4171 30.6427 39.3334 28.7565 38.9148C27.5466 42.2389 24.137 40.32 23.7267 40.1706C22.7208 41.1753 22.8407 41.733 20.5827 42.0552C17.0615 42.5576 12.9918 37.9265 10.932 35.0951C10.6746 34.7411 10.2544 34.5427 9.81695 34.5582C3.40538 34.7856 2.35071 31.4895 2.35026 29.6711C2.35026 27.7877 1.49186 25.1901 2.35026 21.5074Z" fill="#FBA907"/>
<path d="M19.3474 22.4294C21.7087 21.0128 25.0999 16.4638 26.3783 14.1201C27.0151 12.8439 28.5373 12.4095 29.5717 12.2026C35.9634 10.9243 37.8809 16.0376 40.4376 17.9552C42.9943 19.8727 44.3937 16.123 48.1077 17.9552C50.708 19.2379 50.6643 28.1819 49.386 33.2953C48.496 36.8555 43.8296 38.0934 40.5275 36.2478C39.7891 35.8351 39.9123 34.6716 40.1161 33.8507C40.261 33.2673 40.2455 32.627 40.1093 32.1459C39.9939 31.7383 39.5472 31.6156 39.1256 31.6574C35.7622 31.9906 33.3014 29.0685 32.1301 26.0245C31.7681 25.0838 30.4397 24.6341 29.6345 25.2403C28.4771 26.1117 27.1488 27.0287 26.3783 27.5427C18.7082 32.6561 16.1475 24.349 19.3474 22.4294Z" fill="#669AFF"/>
<path d="M31.4844 24.9922C31.6974 27.1228 35.3194 32.0231 39.1544 31.3839" stroke="#4081FF" stroke-width="2.09708" stroke-linecap="round" stroke-linejoin="round"/>
<path d="M34.047 36.4913C32.7213 36.3087 29.8426 35.286 28.9336 32.6562" stroke="#FFEFCF" stroke-width="1.25825" stroke-linecap="round" stroke-linejoin="round"/>
<path d="M28.9259 39.0538C27.6002 38.8712 24.7215 37.8485 23.8125 35.2188" stroke="#FFEFCF" stroke-width="1.25825" stroke-linecap="round" stroke-linejoin="round"/>
<path d="M23.8165 40.3272C22.4908 40.1446 19.6122 39.1219 18.7031 36.4922" stroke="#FFEFCF" stroke-width="1.25825" stroke-linecap="round" stroke-linejoin="round"/>
</svg>
