<svg width="110" height="35" viewBox="0 0 110 35" fill="none" xmlns="http://www.w3.org/2000/svg">
<path d="M95.7373 32.5295C95.7373 33.4384 95.0005 34.1752 94.0916 34.1752C93.6552 34.1752 93.2141 34.1752 92.7684 34.1752C92.3128 34.1752 91.8596 34.1752 91.4089 34.1752C90.5 34.1752 89.7632 33.4384 89.7632 32.5295C89.7632 29.0348 89.7632 25.5041 89.7632 21.9373C89.7632 18.3494 89.7632 14.8066 89.7632 11.3089C89.7632 10.3999 90.5 9.66315 91.4089 9.66315C91.8596 9.66315 92.3128 9.66315 92.7684 9.66315C93.4179 9.66315 94.0576 9.66315 94.6873 9.66315C95.2672 9.66315 95.7373 10.1332 95.7373 10.7131C95.7373 10.52 95.7373 10.8821 95.7373 10.7131C96.3408 10.2304 97.0287 9.85625 97.8011 9.59073C98.5735 9.30108 99.3942 9.15625 100.263 9.15625C101.47 9.15625 102.617 9.39763 103.703 9.88039C104.789 10.339 105.743 11.0028 106.563 11.8718C107.408 12.7407 108.06 13.7787 108.518 14.9856C109.001 16.1925 109.243 17.5321 109.243 19.0045C109.243 20.4528 109.001 21.7804 108.518 22.9873C108.06 24.1942 107.408 25.2442 106.563 26.1373C105.743 27.0063 104.789 27.6821 103.703 28.1649C102.617 28.6476 101.458 28.889 100.227 28.889C99.358 28.889 98.5373 28.7442 97.7649 28.4545C97.0166 28.189 96.3408 27.8028 95.7373 27.2959C95.7373 28.4304 95.7373 29.577 95.7373 30.7356C95.7373 31.3368 95.7373 31.9348 95.7373 32.5295ZM99.4304 23.6028C100.613 23.6028 101.543 23.1925 102.218 22.3718C102.918 21.5269 103.268 20.4045 103.268 19.0045C103.268 17.6045 102.918 16.4942 102.218 15.6735C101.543 14.8528 100.613 14.4425 99.4304 14.4425C98.2718 14.4425 97.3425 14.8649 96.6425 15.7097C95.9425 16.5304 95.5925 17.6287 95.5925 19.0045C95.5925 20.3804 95.9425 21.4907 96.6425 22.3356C97.3425 23.1804 98.2718 23.6028 99.4304 23.6028Z" fill="#669AFF"/>
<path d="M82.6171 7.52579C81.9171 7.52579 81.2774 7.35682 80.6981 7.01889C80.1429 6.68096 79.6964 6.23441 79.3585 5.67923C79.0205 5.12406 78.8516 4.50854 78.8516 3.83268C78.8516 3.15682 79.0205 2.55337 79.3585 2.02233C79.6964 1.46716 80.1429 1.02061 80.6981 0.682678C81.2774 0.344747 81.9171 0.175781 82.6171 0.175781C83.2929 0.175781 83.9085 0.344747 84.4636 0.682678C85.0429 1.02061 85.5016 1.46716 85.8395 2.02233C86.1774 2.55337 86.3464 3.15682 86.3464 3.83268C86.3464 4.50854 86.1774 5.12406 85.8395 5.67923C85.5016 6.23441 85.0429 6.68096 84.4636 7.01889C83.9085 7.35682 83.2929 7.52579 82.6171 7.52579ZM81.2577 28.381C80.3487 28.381 79.6119 27.6442 79.6119 26.7352C79.6119 24.1863 79.6119 21.6211 79.6119 19.0396C79.6119 16.4378 79.6119 13.8605 79.6119 11.3077C79.6119 10.3988 80.3487 9.662 81.2577 9.662C81.7084 9.662 82.1615 9.662 82.6171 9.662C83.0628 9.662 83.5039 9.662 83.9403 9.662C84.8492 9.662 85.5861 10.3988 85.5861 11.3077C85.5861 13.8605 85.5861 16.4378 85.5861 19.0396C85.5861 21.6211 85.5861 24.1863 85.5861 26.7352C85.5861 27.6442 84.8492 28.381 83.9403 28.381C83.5039 28.381 83.0628 28.381 82.6171 28.381C82.1615 28.381 81.7084 28.381 81.2577 28.381Z" fill="#669AFF"/>
<path d="M62.7834 28.3869C61.8745 28.3869 61.1377 27.6501 61.1377 26.7412C61.1377 26.4344 61.1377 26.1261 61.1377 25.8163C61.1377 25.1624 61.1377 24.5155 61.1377 23.8753C61.1377 23.4698 61.2874 23.0786 61.5581 22.7767C62.6731 21.533 63.7882 20.2893 64.9032 19.0456C66.0764 17.737 67.2495 16.4285 68.4227 15.12C68.5177 15.014 68.4425 14.8456 68.3001 14.8456C67.1678 14.8456 66.0355 14.8456 64.9032 14.8456C64.1966 14.8456 63.49 14.8456 62.7835 14.8456C61.8745 14.8456 61.1377 14.1087 61.1377 13.1998C61.1377 12.893 61.1377 12.5847 61.1377 12.2749C61.1377 11.9513 61.1377 11.6309 61.1377 11.3137C61.1377 10.4048 61.8745 9.66797 62.7834 9.66797C64.6872 9.66797 66.6128 9.66797 68.5601 9.66797C70.5075 9.66797 72.433 9.66797 74.3368 9.66797C75.2457 9.66797 75.9825 10.4048 75.9825 11.3137C75.9825 11.6309 75.9825 11.9513 75.9825 12.2749C75.9825 12.9287 75.9825 13.5757 75.9825 14.2158C75.9825 14.6213 75.8328 15.0125 75.5622 15.3144C74.4471 16.5581 73.3321 17.8019 72.217 19.0456C71.0439 20.3541 69.8707 21.6626 68.6975 22.9711C68.6025 23.0771 68.6777 23.2456 68.8201 23.2456C69.9524 23.2456 71.0847 23.2456 72.217 23.2456C72.9236 23.2456 73.6302 23.2456 74.3368 23.2456C75.2457 23.2456 75.9825 23.9824 75.9825 24.8913C75.9825 25.1981 75.9825 25.5064 75.9825 25.8163C75.9825 26.1261 75.9825 26.4344 75.9825 26.7412C75.9825 27.6501 75.2457 28.3869 74.3368 28.3869C72.433 28.3869 70.5075 28.3869 68.5601 28.3869C66.6128 28.3869 64.6872 28.3869 62.7834 28.3869Z" fill="#669AFF"/>
<path d="M54.4336 28.9675C53.7336 28.9675 53.0819 28.7985 52.4785 28.4606C51.8992 28.1227 51.4405 27.664 51.1026 27.0847C50.7647 26.5054 50.5957 25.8778 50.5957 25.202C50.5957 24.5261 50.7647 23.9106 51.1026 23.3554C51.4405 22.7761 51.8992 22.3175 52.4785 21.9796C53.0819 21.6416 53.7336 21.4727 54.4336 21.4727C55.1336 21.4727 55.7612 21.6416 56.3164 21.9796C56.8957 22.3175 57.3543 22.7761 57.6923 23.3554C58.0543 23.9106 58.2354 24.5261 58.2354 25.202C58.2354 25.8778 58.0543 26.5054 57.6923 27.0847C57.3543 27.664 56.8957 28.1227 56.3164 28.4606C55.7612 28.7985 55.1336 28.9675 54.4336 28.9675Z" fill="#FBA907"/>
<path d="M35.374 32.5295C35.374 33.4384 34.6372 34.1752 33.7283 34.1752C33.2919 34.1752 32.8508 34.1752 32.4051 34.1752C31.9495 34.1752 31.4964 34.1752 31.0457 34.1752C30.1367 34.1752 29.3999 33.4384 29.3999 32.5295C29.3999 29.0348 29.3999 25.5041 29.3999 21.9373C29.3999 18.3494 29.3999 14.8066 29.3999 11.3089C29.3999 10.3999 30.1367 9.66315 31.0457 9.66315C31.4964 9.66315 31.9495 9.66315 32.4051 9.66315C33.0546 9.66315 33.6943 9.66315 34.3241 9.66315C34.904 9.66315 35.374 10.1332 35.374 10.7131C35.374 10.52 35.374 10.8821 35.374 10.7131C35.9775 10.2304 36.6654 9.85625 37.4378 9.59073C38.2103 9.30108 39.0309 9.15625 39.8999 9.15625C41.1068 9.15625 42.2534 9.39763 43.3396 9.88039C44.4258 10.339 45.3792 11.0028 46.1999 11.8718C47.0447 12.7407 47.6965 13.7787 48.1551 14.9856C48.6378 16.1925 48.8792 17.5321 48.8792 19.0045C48.8792 20.4528 48.6378 21.7804 48.1551 22.9873C47.6965 24.1942 47.0447 25.2442 46.1999 26.1373C45.3792 27.0063 44.4258 27.6821 43.3396 28.1649C42.2534 28.6476 41.0947 28.889 39.8637 28.889C38.9947 28.889 38.174 28.7442 37.4016 28.4545C36.6534 28.189 35.9775 27.8028 35.374 27.2959C35.374 28.4304 35.374 29.577 35.374 30.7356C35.374 31.3368 35.374 31.9348 35.374 32.5295ZM39.0671 23.6028C40.2499 23.6028 41.1792 23.1925 41.8551 22.3718C42.5551 21.5269 42.9051 20.4045 42.9051 19.0045C42.9051 17.6045 42.5551 16.4942 41.8551 15.6735C41.1792 14.8528 40.2499 14.4425 39.0671 14.4425C37.9085 14.4425 36.9792 14.8649 36.2792 15.7097C35.5792 16.5304 35.2292 17.6287 35.2292 19.0045C35.2292 20.3804 35.5792 21.4907 36.2792 22.3356C36.9792 23.1804 37.9085 23.6028 39.0671 23.6028Z" fill="#669AFF"/>
<path d="M22.2538 7.52579C21.5538 7.52579 20.9141 7.35682 20.3348 7.01889C19.7797 6.68096 19.3331 6.23441 18.9952 5.67923C18.6572 5.12406 18.4883 4.50854 18.4883 3.83268C18.4883 3.15682 18.6572 2.55337 18.9952 2.02233C19.3331 1.46716 19.7797 1.02061 20.3348 0.682678C20.9141 0.344747 21.5538 0.175781 22.2538 0.175781C22.9297 0.175781 23.5452 0.344747 24.1004 0.682678C24.6797 1.02061 25.1383 1.46716 25.4762 2.02233C25.8141 2.55337 25.9831 3.15682 25.9831 3.83268C25.9831 4.50854 25.8141 5.12406 25.4762 5.67923C25.1383 6.23441 24.6797 6.68096 24.1004 7.01889C23.5452 7.35682 22.9297 7.52579 22.2538 7.52579ZM20.8944 28.381C19.9855 28.381 19.2486 27.6442 19.2486 26.7352C19.2486 24.1863 19.2486 21.6211 19.2486 19.0396C19.2486 16.4378 19.2486 13.8605 19.2486 11.3077C19.2486 10.3988 19.9855 9.662 20.8944 9.662C21.3451 9.662 21.7982 9.662 22.2538 9.662C22.6995 9.662 23.1406 9.662 23.577 9.662C24.4859 9.662 25.2228 10.3988 25.2228 11.3077C25.2228 13.8605 25.2228 16.4378 25.2228 19.0396C25.2228 21.6211 25.2228 24.1863 25.2228 26.7352C25.2228 27.6442 24.4859 28.381 23.577 28.381C23.1406 28.381 22.6995 28.381 22.2538 28.381C21.7982 28.381 21.3451 28.381 20.8944 28.381Z" fill="#669AFF"/>
<path d="M2.42017 28.3869C1.51124 28.3869 0.774414 27.6501 0.774414 26.7412C0.774414 26.4344 0.774414 26.1261 0.774414 25.8163C0.774414 25.1624 0.774414 24.5155 0.774414 23.8753C0.774414 23.4698 0.92411 23.0786 1.19479 22.7767C2.30984 21.533 3.42489 20.2893 4.53993 19.0456C5.71309 17.737 6.88625 16.4285 8.05941 15.12C8.15442 15.014 8.0792 14.8456 7.93687 14.8456C6.80456 14.8456 5.67225 14.8456 4.53993 14.8456C3.83335 14.8456 3.12677 14.8456 2.42018 14.8456C1.51125 14.8456 0.774414 14.1087 0.774414 13.1998C0.774414 12.893 0.774414 12.5847 0.774414 12.2749C0.774414 11.9513 0.774414 11.6309 0.774414 11.3137C0.774414 10.4048 1.51123 9.66797 2.42017 9.66797C4.32394 9.66797 6.24949 9.66797 8.19683 9.66797C10.1442 9.66797 12.0697 9.66797 13.9735 9.66797C14.8824 9.66797 15.6193 10.4048 15.6193 11.3137C15.6193 11.6309 15.6193 11.9513 15.6193 12.2749C15.6193 12.9287 15.6193 13.5757 15.6193 14.2158C15.6193 14.6213 15.4696 15.0125 15.1989 15.3144C14.0838 16.5581 12.9688 17.8019 11.8537 19.0456C10.6806 20.3541 9.50742 21.6626 8.33426 22.9711C8.23925 23.0771 8.31447 23.2456 8.4568 23.2456C9.58911 23.2456 10.7214 23.2456 11.8537 23.2456C12.5603 23.2456 13.2669 23.2456 13.9735 23.2456C14.8824 23.2456 15.6193 23.9824 15.6193 24.8913C15.6193 25.1981 15.6193 25.5064 15.6193 25.8163C15.6193 26.1261 15.6193 26.4344 15.6193 26.7412C15.6193 27.6501 14.8824 28.3869 13.9735 28.3869C12.0697 28.3869 10.1442 28.3869 8.19683 28.3869C6.24949 28.3869 4.32394 28.3869 2.42017 28.3869Z" fill="#669AFF"/>
</svg>
