<svg width="32" height="33" viewBox="0 0 32 33" fill="none" xmlns="http://www.w3.org/2000/svg">
<path d="M20.667 9.16699C24.9988 9.1672 28.667 13.2527 28.667 18.5C28.667 23.7473 24.9988 27.8328 20.667 27.833C16.3351 27.833 12.667 23.7474 12.667 18.5C12.667 13.2526 16.3351 9.16699 20.667 9.16699Z" fill="white" stroke="#A8B1BD" stroke-width="1.33333"/>
<ellipse cx="24.3333" cy="18" rx="3.33333" ry="4" fill="#5B6A89"/>
<path d="M18.8484 5.87565L18 2.5" stroke="#FBA907" stroke-width="2" stroke-linecap="round"/>
<path d="M23.7234 5.81952L25 2.5" stroke="#FBA907" stroke-width="2" stroke-linecap="round"/>
<path d="M28.5176 8.61217L31 6.5" stroke="#FBA907" stroke-width="2" stroke-linecap="round"/>
<path d="M20.667 9.2002C24.976 9.2004 28.6338 13.2665 28.6338 18.5C28.6338 23.7335 24.976 27.7996 20.667 27.7998C16.3578 27.7998 12.7002 23.7336 12.7002 18.5C12.7002 13.2664 16.3578 9.2002 20.667 9.2002Z" stroke="#B3BDC8" stroke-width="1.4"/>
<path d="M8.66699 11.835C12.9988 11.8352 16.667 15.9207 16.667 21.168C16.667 26.4153 12.9988 30.5008 8.66699 30.501C4.33508 30.501 0.666992 26.4154 0.666992 21.168C0.666992 15.9206 4.33508 11.835 8.66699 11.835Z" fill="white" stroke="#A8B1BD" stroke-width="1.33333"/>
<path d="M8.66699 11.8682C12.976 11.8684 16.6338 15.9345 16.6338 21.168C16.6338 26.4015 12.976 30.4676 8.66699 30.4678C4.35781 30.4678 0.700195 26.4016 0.700195 21.168C0.700195 15.9343 4.35781 11.8682 8.66699 11.8682Z" stroke="#B3BDC8" stroke-width="1.4"/>
<ellipse cx="12.3333" cy="20.668" rx="3.33333" ry="4" fill="#5B6A89"/>
</svg>
