<svg width="132" height="131" viewBox="0 0 132 131" fill="none" xmlns="http://www.w3.org/2000/svg">
<ellipse cx="92.0725" cy="123.221" rx="24.1116" ry="6.88903" fill="#4081FF"/>
<path d="M92.0518 46.9648C109.155 46.9651 123.02 60.6349 123.021 77.498C123.021 78.1342 122.998 78.7661 122.959 79.3926C123.052 79.6804 123.096 79.9912 123.078 80.3184C122.371 93.1544 109.172 109.743 97.7773 120.296C94.5432 123.291 89.6071 123.233 86.3525 120.26C75.8934 110.706 63.7926 96.9221 61.4775 82.3779C61.2187 80.789 61.082 79.159 61.082 77.498C61.0823 60.6347 74.9481 46.9648 92.0518 46.9648Z" fill="#A5C3FF"/>
<circle cx="92.0764" cy="78.4514" r="11.553" fill="#669AFF"/>
<circle cx="65.9168" cy="47.5073" r="20.4454" transform="rotate(97.7921 65.9168 47.5073)" fill="white" fill-opacity="0.3" stroke="#548EFF" stroke-width="6.60306"/>
<path d="M48.6484 60.625L41.3467 66.1689" stroke="#548EFF" stroke-width="6.14066"/>
<rect x="40.5312" y="58.8203" width="12.6249" height="29.0777" rx="4.40204" transform="rotate(52.8172 40.5312 58.8203)" fill="#377BFF"/>
<path d="M109.914 13.3766C110.266 12.2788 111.47 11.7044 112.544 12.1222L115.194 13.1525C116.274 13.5725 116.772 14.8195 116.279 15.868L109.784 29.6716C109.346 30.6026 108.273 31.0494 107.304 30.7045L106.494 30.4162C105.477 30.0543 104.93 28.9505 105.259 27.9224L109.914 13.3766Z" fill="#ADC9FF"/>
<rect x="103.816" y="31.9297" width="5" height="5" rx="2.5" transform="rotate(21.2499 103.816 31.9297)" fill="#ADC9FF"/>
<path d="M126.668 27.2311C127.487 26.5894 128.678 26.7721 129.267 27.6298L130.571 29.5289C131.16 30.3866 130.904 31.5635 130.011 32.0977L119.167 38.585C118.35 39.0738 117.293 38.8432 116.754 38.0584L116.347 37.4648C115.807 36.68 115.971 35.6113 116.721 35.0241L126.668 27.2311Z" fill="#ADC9FF"/>
<rect x="113.578" y="37.0547" width="4.50869" height="4.50869" rx="2.25435" transform="rotate(55.5169 113.578 37.0547)" fill="#ADC9FF"/>
</svg>
