<svg width="420" height="150" viewBox="0 0 420 150" fill="none" xmlns="http://www.w3.org/2000/svg">
<path d="M384.135 131.714C384.135 133.764 382.367 135.425 380.187 135.425C379.14 135.425 378.082 135.425 377.013 135.425C375.92 135.425 374.834 135.425 373.752 135.425C371.572 135.425 369.805 133.764 369.805 131.714C369.805 123.836 369.805 115.876 369.805 107.835C369.805 99.746 369.805 91.759 369.805 83.8735C369.805 81.8244 371.572 80.1633 373.752 80.1633C374.834 80.1633 375.92 80.1633 377.013 80.1633C378.571 80.1633 380.106 80.1633 381.616 80.1633C383.008 80.1633 384.135 81.2231 384.135 82.5305C384.135 82.0951 384.135 82.9114 384.135 82.5305C385.582 81.4421 387.233 80.5986 389.085 80C390.938 79.347 392.907 79.0205 394.991 79.0205C397.887 79.0205 400.637 79.5647 403.242 80.653C405.848 81.687 408.135 83.1835 410.103 85.1425C412.13 87.1016 413.693 89.4417 414.793 92.1623C415.951 94.8833 416.531 97.9037 416.531 101.223C416.531 104.488 415.951 107.481 414.793 110.202C413.693 112.923 412.13 115.29 410.103 117.304C408.135 119.263 405.848 120.786 403.242 121.875C400.637 122.963 397.857 123.507 394.904 123.507C392.82 123.507 390.851 123.181 388.999 122.528C387.204 121.929 385.582 121.058 384.135 119.916C384.135 122.473 384.135 125.058 384.135 127.67C384.135 129.026 384.135 130.374 384.135 131.714ZM392.994 111.59C395.831 111.59 398.06 110.665 399.681 108.814C401.36 106.91 402.2 104.379 402.2 101.223C402.2 98.0667 401.36 95.5637 399.681 93.7133C398.06 91.863 395.831 90.938 392.994 90.938C390.215 90.938 387.985 91.8903 386.306 93.795C384.627 95.6453 383.787 98.1213 383.787 101.223C383.787 104.325 384.627 106.828 386.306 108.733C387.985 110.637 390.215 111.59 392.994 111.59Z" fill="#669AFF"/>
<path d="M352.669 75.3506C350.99 75.3506 349.456 74.9696 348.066 74.2078C346.734 73.4459 345.663 72.4392 344.853 71.1876C344.042 69.936 343.637 68.5483 343.637 67.0246C343.637 65.5009 344.042 64.1405 344.853 62.9433C345.663 61.6916 346.734 60.6849 348.066 59.9231C349.456 59.1612 350.99 58.7803 352.669 58.7803C354.29 58.7803 355.767 59.1612 357.098 59.9231C358.488 60.6849 359.588 61.6916 360.399 62.9433C361.209 64.1405 361.615 65.5009 361.615 67.0246C361.615 68.5483 361.209 69.936 360.399 71.1876C359.588 72.4392 358.488 73.4459 357.098 74.2078C355.767 74.9696 354.29 75.3506 352.669 75.3506ZM349.408 122.368C347.228 122.368 345.46 120.707 345.46 118.657C345.46 112.911 345.46 107.128 345.46 101.308C345.46 95.4423 345.46 89.632 345.46 83.8768C345.46 81.8277 347.228 80.1666 349.408 80.1666C350.489 80.1666 351.576 80.1666 352.669 80.1666C353.738 80.1666 354.796 80.1666 355.843 80.1666C358.023 80.1666 359.791 81.8277 359.791 83.8768C359.791 89.632 359.791 95.4423 359.791 101.308C359.791 107.128 359.791 112.911 359.791 118.657C359.791 120.707 358.023 122.368 355.843 122.368C354.796 122.368 353.738 122.368 352.669 122.368C351.576 122.368 350.489 122.368 349.408 122.368Z" fill="#669AFF"/>
<path d="M305.092 122.368C302.912 122.368 301.145 120.707 301.145 118.658C301.145 117.966 301.145 117.271 301.145 116.573C301.145 115.099 301.145 113.64 301.145 112.197C301.145 111.283 301.503 110.401 302.153 109.72C304.827 106.916 307.502 104.112 310.177 101.308C312.991 98.3583 315.805 95.4083 318.619 92.4583C318.847 92.2193 318.667 91.8397 318.325 91.8397C315.609 91.8397 312.893 91.8397 310.177 91.8397C308.482 91.8397 306.787 91.8397 305.092 91.8397C302.912 91.8397 301.145 90.1787 301.145 88.1294C301.145 87.4377 301.145 86.7427 301.145 86.0441C301.145 85.3147 301.145 84.5924 301.145 83.8773C301.145 81.8281 302.912 80.167 305.092 80.167C309.659 80.167 314.278 80.167 318.949 80.167C323.62 80.167 328.239 80.167 332.806 80.167C334.986 80.167 336.753 81.8281 336.753 83.8773C336.753 84.5924 336.753 85.3147 336.753 86.0441C336.753 87.5181 336.753 88.9767 336.753 90.42C336.753 91.334 336.394 92.216 335.745 92.8967C333.07 95.7007 330.396 98.5047 327.721 101.308C324.907 104.258 322.093 107.208 319.279 110.158C319.051 110.397 319.231 110.777 319.573 110.777C322.289 110.777 325.005 110.777 327.721 110.777C329.416 110.777 331.111 110.777 332.806 110.777C334.986 110.777 336.753 112.438 336.753 114.487C336.753 115.179 336.753 115.874 336.753 116.573C336.753 117.271 336.753 117.966 336.753 118.658C336.753 120.707 334.986 122.368 332.806 122.368C328.239 122.368 323.62 122.368 318.949 122.368C314.278 122.368 309.659 122.368 305.092 122.368Z" fill="#669AFF"/>
<path d="M285.069 123.678C283.39 123.678 281.827 123.297 280.38 122.535C278.99 121.773 277.89 120.739 277.079 119.433C276.269 118.127 275.863 116.713 275.863 115.189C275.863 113.665 276.269 112.277 277.079 111.026C277.89 109.72 278.99 108.686 280.38 107.924C281.827 107.162 283.39 106.781 285.069 106.781C286.749 106.781 288.254 107.162 289.586 107.924C290.975 108.686 292.075 109.72 292.886 111.026C293.754 112.277 294.189 113.665 294.189 115.189C294.189 116.713 293.754 118.127 292.886 119.433C292.075 120.739 290.975 121.773 289.586 122.535C288.254 123.297 286.749 123.678 285.069 123.678Z" fill="#FBA907"/>
<path d="M239.346 131.714C239.346 133.764 237.579 135.425 235.398 135.425C234.352 135.425 233.294 135.425 232.224 135.425C231.132 135.425 230.045 135.425 228.963 135.425C226.783 135.425 225.016 133.764 225.016 131.714C225.016 123.836 225.016 115.876 225.016 107.835C225.016 99.746 225.016 91.759 225.016 83.8735C225.016 81.8244 226.783 80.1633 228.963 80.1633C230.045 80.1633 231.132 80.1633 232.224 80.1633C233.783 80.1633 235.317 80.1633 236.827 80.1633C238.218 80.1633 239.346 81.2231 239.346 82.5305C239.346 82.0951 239.346 82.9114 239.346 82.5305C240.794 81.4421 242.444 80.5986 244.297 80C246.15 79.347 248.118 79.0205 250.203 79.0205C253.098 79.0205 255.848 79.5647 258.454 80.653C261.059 81.687 263.346 83.1835 265.315 85.1425C267.341 87.1016 268.905 89.4417 270.005 92.1623C271.163 94.8833 271.742 97.9037 271.742 101.223C271.742 104.488 271.163 107.481 270.005 110.202C268.905 112.923 267.341 115.29 265.315 117.304C263.346 119.263 261.059 120.786 258.454 121.875C255.848 122.963 253.069 123.507 250.116 123.507C248.031 123.507 246.063 123.181 244.21 122.528C242.415 121.929 240.794 121.058 239.346 119.916C239.346 122.473 239.346 125.058 239.346 127.67C239.346 129.026 239.346 130.374 239.346 131.714ZM248.205 111.59C251.042 111.59 253.271 110.665 254.892 108.814C256.572 106.91 257.411 104.379 257.411 101.223C257.411 98.0667 256.572 95.5637 254.892 93.7133C253.271 91.863 251.042 90.938 248.205 90.938C245.426 90.938 243.197 91.8903 241.518 93.795C239.838 95.6453 238.999 98.1213 238.999 101.223C238.999 104.325 239.838 106.828 241.518 108.733C243.197 110.637 245.426 111.59 248.205 111.59Z" fill="#669AFF"/>
<path d="M207.892 75.3506C206.213 75.3506 204.678 74.9696 203.289 74.2078C201.957 73.4459 200.886 72.4392 200.076 71.1876C199.265 69.936 198.859 68.5483 198.859 67.0246C198.859 65.5009 199.265 64.1405 200.076 62.9433C200.886 61.6916 201.957 60.6849 203.289 59.9231C204.678 59.1612 206.213 58.7803 207.892 58.7803C209.513 58.7803 210.99 59.1612 212.321 59.9231C213.711 60.6849 214.811 61.6916 215.622 62.9433C216.432 64.1405 216.838 65.5009 216.838 67.0246C216.838 68.5483 216.432 69.936 215.622 71.1876C214.811 72.4392 213.711 73.4459 212.321 74.2078C210.99 74.9696 209.513 75.3506 207.892 75.3506ZM204.631 122.368C202.451 122.368 200.683 120.707 200.683 118.657C200.683 112.911 200.683 107.128 200.683 101.308C200.683 95.4423 200.683 89.632 200.683 83.8768C200.683 81.8277 202.451 80.1666 204.631 80.1666C205.712 80.1666 206.799 80.1666 207.892 80.1666C208.961 80.1666 210.019 80.1666 211.066 80.1666C213.246 80.1666 215.014 81.8277 215.014 83.8768C215.014 89.632 215.014 95.4423 215.014 101.308C215.014 107.128 215.014 112.911 215.014 118.657C215.014 120.707 213.246 122.368 211.066 122.368C210.019 122.368 208.961 122.368 207.892 122.368C206.799 122.368 205.712 122.368 204.631 122.368Z" fill="#669AFF"/>
<path d="M160.303 122.368C158.123 122.368 156.355 120.707 156.355 118.658C156.355 117.966 156.355 117.271 156.355 116.573C156.355 115.099 156.355 113.64 156.355 112.197C156.355 111.283 156.715 110.401 157.364 109.72C160.039 106.916 162.713 104.112 165.388 101.308C168.202 98.3583 171.016 95.4083 173.83 92.4583C174.058 92.2193 173.878 91.8397 173.536 91.8397C170.82 91.8397 168.104 91.8397 165.388 91.8397C163.693 91.8397 161.998 91.8397 160.303 91.8397C158.123 91.8397 156.355 90.1787 156.355 88.1294C156.355 87.4377 156.355 86.7427 156.355 86.0441C156.355 85.3147 156.355 84.5924 156.355 83.8773C156.355 81.8281 158.123 80.167 160.303 80.167C164.87 80.167 169.489 80.167 174.16 80.167C178.831 80.167 183.45 80.167 188.017 80.167C190.197 80.167 191.964 81.8281 191.964 83.8773C191.964 84.5924 191.964 85.3147 191.964 86.0441C191.964 87.5181 191.964 88.9767 191.964 90.42C191.964 91.334 191.605 92.216 190.956 92.8967C188.281 95.7007 185.607 98.5047 182.932 101.308C180.118 104.258 177.304 107.208 174.49 110.158C174.262 110.397 174.442 110.777 174.784 110.777C177.5 110.777 180.216 110.777 182.932 110.777C184.627 110.777 186.322 110.777 188.017 110.777C190.197 110.777 191.964 112.438 191.964 114.487C191.964 115.179 191.964 115.874 191.964 116.573C191.964 117.271 191.964 117.966 191.964 118.658C191.964 120.707 190.197 122.368 188.017 122.368C183.45 122.368 178.831 122.368 174.16 122.368C169.489 122.368 164.87 122.368 160.303 122.368Z" fill="#669AFF"/>
<path d="M20.2943 122.047C25.8157 122.047 30.2918 117.522 30.2918 111.94C30.2918 106.357 25.8157 101.832 20.2943 101.832C14.7729 101.832 10.2969 106.357 10.2969 111.94C10.2969 117.522 14.7729 122.047 20.2943 122.047Z" fill="#FBA907"/>
<path d="M130.202 63.3534C131.818 64.9796 132.727 67.1894 132.727 69.4946V116.023C132.727 119.189 130.206 121.765 127.076 121.799L104.656 122.042L66.4297 122.041C64.5163 122.041 62.965 120.473 62.965 118.538V110.479C62.965 108.913 63.5938 107.414 64.7074 106.326L86.0281 85.4925C86.3977 85.1316 86.1451 84.4994 85.6315 84.4994H67.9871C66.0737 84.4994 64.5224 82.9311 64.5224 80.9965V73.5631C64.5224 71.6286 66.0737 70.0597 67.9871 70.0597H102.637C104.55 70.0597 106.102 71.6281 106.102 73.5631V83.0131C106.102 83.963 105.72 84.8722 105.045 85.5322L83.0382 107.036C82.669 107.397 82.9217 108.029 83.4353 108.029H106.145H117.393C118.162 108.029 118.785 107.399 118.785 106.621V75.6781C118.785 73.4069 117.903 71.2262 116.328 69.6062L87.188 39.6222C86.0892 38.4915 84.294 38.4677 83.1665 39.5688L52.426 69.5802C50.7534 71.213 49.8091 73.4625 49.8091 75.8127V106.622C49.8091 107.4 50.4322 108.03 51.2011 108.03H53.3157C55.2296 108.03 56.7809 109.598 56.7809 111.533V118.539C56.7809 120.474 55.2296 122.042 53.3157 122.042H41.662C38.5069 122.042 35.9492 119.456 35.9492 116.266V69.8744C35.9492 67.5252 36.8928 65.2765 38.5637 63.6441L79.1602 23.9815C82.5167 20.7023 87.8517 20.7419 91.1598 24.0706L130.202 63.3534Z" fill="#669AFF"/>
</svg>
