<svg width="113" height="34" viewBox="0 0 113 34" fill="none" xmlns="http://www.w3.org/2000/svg">
<circle cx="4.65045" cy="25.3692" r="2.29108" fill="#FBA907"/>
<path d="M29.8379 14.3563C30.2083 14.7249 30.4165 15.2258 30.4165 15.7483V26.2948C30.4165 27.0124 29.8389 27.5962 29.1214 27.6039L23.9836 27.6591L15.2234 27.6589C14.7849 27.6589 14.4294 27.3034 14.4294 26.8649V25.0381C14.4294 24.6832 14.5735 24.3434 14.8287 24.0967L19.7147 19.3745C19.7994 19.2927 19.7415 19.1494 19.6238 19.1494H15.5803C15.1418 19.1494 14.7863 18.7939 14.7863 18.3553V16.6705C14.7863 16.2319 15.1418 15.8764 15.5803 15.8764H23.5208C23.9594 15.8764 24.3149 16.2319 24.3149 16.6705V18.8125C24.3149 19.0278 24.2275 19.2339 24.0727 19.3835L19.0295 24.2577C18.9449 24.3395 19.0028 24.4827 19.1205 24.4827H24.3248H26.9025C27.0787 24.4827 27.2215 24.3399 27.2215 24.1637V17.1499C27.2215 16.6351 27.0193 16.1408 26.6585 15.7736L19.9805 8.97722C19.7287 8.72094 19.3173 8.71553 19.0589 8.96512L12.0142 15.7677C11.6309 16.1378 11.4145 16.6476 11.4145 17.1804V24.1639C11.4145 24.3401 11.5573 24.4829 11.7335 24.4829H12.2181C12.6567 24.4829 13.0122 24.8384 13.0122 25.277V26.8651C13.0122 27.3036 12.6567 27.6591 12.2181 27.6591H9.54747C8.82442 27.6591 8.23828 27.073 8.23828 26.3499V15.8344C8.23828 15.3019 8.45452 14.7922 8.83743 14.4222L18.1408 5.43198C18.91 4.68871 20.1326 4.69769 20.8907 5.4522L29.8379 14.3563Z" fill="#669AFF"/>
<path d="M102.888 29.7144C102.888 30.3292 102.39 30.8275 101.775 30.8275C101.48 30.8275 101.182 30.8275 100.88 30.8275C100.572 30.8275 100.266 30.8275 99.9607 30.8275C99.346 30.8275 98.8477 30.3292 98.8477 29.7144C98.8477 27.3509 98.8477 24.9629 98.8477 22.5505C98.8477 20.1239 98.8477 17.7278 98.8477 15.3622C98.8477 14.7474 99.346 14.2491 99.9607 14.2491C100.266 14.2491 100.572 14.2491 100.88 14.2491C101.319 14.2491 101.752 14.2491 102.178 14.2491C102.57 14.2491 102.888 14.567 102.888 14.9592C102.888 14.8286 102.888 15.0735 102.888 14.9592C103.296 14.6327 103.762 14.3797 104.284 14.2001C104.806 14.0042 105.361 13.9062 105.949 13.9062C106.765 13.9062 107.541 14.0695 108.276 14.396C109.01 14.7062 109.655 15.1551 110.21 15.7429C110.782 16.3306 111.222 17.0326 111.532 17.8488C111.859 18.6651 112.022 19.5712 112.022 20.567C112.022 21.5465 111.859 22.4444 111.532 23.2607C111.222 24.077 110.782 24.7871 110.21 25.3912C109.655 25.9789 109.01 26.436 108.276 26.7625C107.541 27.089 106.757 27.2523 105.925 27.2523C105.337 27.2523 104.782 27.1543 104.26 26.9584C103.753 26.7788 103.296 26.5176 102.888 26.1748C102.888 26.9421 102.888 27.7175 102.888 28.5012C102.888 28.9078 102.888 29.3122 102.888 29.7144ZM105.386 23.677C106.186 23.677 106.814 23.3995 107.272 22.8444C107.745 22.273 107.982 21.5139 107.982 20.567C107.982 19.6201 107.745 18.8692 107.272 18.3141C106.814 17.759 106.186 17.4815 105.386 17.4815C104.602 17.4815 103.974 17.7672 103.5 18.3386C103.027 18.8937 102.79 19.6365 102.79 20.567C102.79 21.4976 103.027 22.2485 103.5 22.8199C103.974 23.3913 104.602 23.677 105.386 23.677Z" fill="#3E3F48"/>
<path d="M94.0155 12.8031C93.5421 12.8031 93.1095 12.6888 92.7176 12.4603C92.3422 12.2317 92.0401 11.9297 91.8116 11.5542C91.583 11.1787 91.4688 10.7624 91.4688 10.3053C91.4688 9.84822 91.583 9.44008 91.8116 9.08092C92.0401 8.70544 92.3422 8.40342 92.7176 8.17486C93.1095 7.94631 93.5421 7.83203 94.0155 7.83203C94.4726 7.83203 94.8889 7.94631 95.2644 8.17486C95.6562 8.40342 95.9664 8.70544 96.195 9.08092C96.4235 9.44008 96.5378 9.84822 96.5378 10.3053C96.5378 10.7624 96.4235 11.1787 96.195 11.5542C95.9664 11.9297 95.6562 12.2317 95.2644 12.4603C94.8889 12.6888 94.4726 12.8031 94.0155 12.8031ZM93.0961 26.9083C92.4813 26.9083 91.983 26.4099 91.983 25.7952C91.983 24.0713 91.983 22.3363 91.983 20.5903C91.983 18.8306 91.983 17.0875 91.983 15.361C91.983 14.7462 92.4813 14.2479 93.0961 14.2479C93.4009 14.2479 93.7074 14.2479 94.0155 14.2479C94.317 14.2479 94.6153 14.2479 94.9104 14.2479C95.5252 14.2479 96.0235 14.7462 96.0235 15.361C96.0235 17.0875 96.0235 18.8306 96.0235 20.5903C96.0235 22.3363 96.0235 24.0713 96.0235 25.7952C96.0235 26.4099 95.5252 26.9083 94.9104 26.9083C94.6153 26.9083 94.317 26.9083 94.0155 26.9083C93.7074 26.9083 93.4009 26.9083 93.0961 26.9083Z" fill="#3E3F48"/>
<path d="M80.6014 26.9103C79.9866 26.9103 79.4883 26.412 79.4883 25.7973C79.4883 25.5898 79.4883 25.3812 79.4883 25.1717C79.4883 24.7295 79.4883 24.2919 79.4883 23.859C79.4883 23.5847 79.5895 23.3201 79.7726 23.1159C80.5267 22.2747 81.2809 21.4336 82.035 20.5924C82.8285 19.7074 83.6219 18.8224 84.4154 17.9374C84.4797 17.8657 84.4288 17.7518 84.3325 17.7518C83.5667 17.7518 82.8009 17.7518 82.035 17.7518C81.5572 17.7518 81.0793 17.7518 80.6014 17.7518C79.9866 17.7518 79.4883 17.2535 79.4883 16.6387C79.4883 16.4312 79.4883 16.2227 79.4883 16.0131C79.4883 15.7943 79.4883 15.5776 79.4883 15.3631C79.4883 14.7483 79.9866 14.25 80.6014 14.25C81.889 14.25 83.1913 14.25 84.5083 14.25C85.8254 14.25 87.1277 14.25 88.4153 14.25C89.0301 14.25 89.5284 14.7483 89.5284 15.3631C89.5284 15.5776 89.5284 15.7943 89.5284 16.0131C89.5284 16.4553 89.5284 16.8929 89.5284 17.3259C89.5284 17.6001 89.4272 17.8647 89.2441 18.0689C88.4899 18.9101 87.7358 19.7513 86.9816 20.5924C86.1882 21.4774 85.3947 22.3624 84.6013 23.2474C84.537 23.3191 84.5879 23.433 84.6842 23.433C85.45 23.433 86.2158 23.433 86.9816 23.433C87.4595 23.433 87.9374 23.433 88.4153 23.433C89.0301 23.433 89.5284 23.9314 89.5284 24.5461C89.5284 24.7536 89.5284 24.9621 89.5284 25.1717C89.5284 25.3812 89.5284 25.5898 89.5284 25.7973C89.5284 26.412 89.0301 26.9103 88.4153 26.9103C87.1277 26.9103 85.8254 26.9103 84.5083 26.9103C83.1913 26.9103 81.889 26.9103 80.6014 26.9103Z" fill="#3E3F48"/>
<path d="M74.9551 27.3034C74.4817 27.3034 74.0409 27.1891 73.6328 26.9606C73.2409 26.732 72.9308 26.4218 72.7022 26.03C72.4737 25.6382 72.3594 25.2138 72.3594 24.7566C72.3594 24.2995 72.4737 23.8832 72.7022 23.5078C72.9308 23.1159 73.2409 22.8058 73.6328 22.5772C74.0409 22.3487 74.4817 22.2344 74.9551 22.2344C75.4286 22.2344 75.853 22.3487 76.2285 22.5772C76.6203 22.8058 76.9305 23.1159 77.159 23.5078C77.4039 23.8832 77.5264 24.2995 77.5264 24.7566C77.5264 25.2138 77.4039 25.6382 77.159 26.03C76.9305 26.4218 76.6203 26.732 76.2285 26.9606C75.853 27.1891 75.4286 27.3034 74.9551 27.3034Z" fill="#3E3F48"/>
<path d="M62.064 29.7144C62.064 30.3292 61.5656 30.8275 60.9509 30.8275C60.6557 30.8275 60.3574 30.8275 60.0559 30.8275C59.7478 30.8275 59.4414 30.8275 59.1365 30.8275C58.5218 30.8275 58.0234 30.3292 58.0234 29.7144C58.0234 27.3509 58.0234 24.9629 58.0234 22.5505C58.0234 20.1239 58.0234 17.7278 58.0234 15.3622C58.0234 14.7474 58.5218 14.2491 59.1365 14.2491C59.4414 14.2491 59.7478 14.2491 60.0559 14.2491C60.4953 14.2491 60.9279 14.2491 61.3538 14.2491C61.746 14.2491 62.064 14.567 62.064 14.9592C62.064 14.8286 62.064 15.0735 62.064 14.9592C62.4721 14.6327 62.9374 14.3797 63.4598 14.2001C63.9822 14.0042 64.5373 13.9062 65.125 13.9062C65.9413 13.9062 66.7167 14.0695 67.4514 14.396C68.186 14.7062 68.8308 15.1551 69.3859 15.7429C69.9573 16.3306 70.3981 17.0326 70.7083 17.8488C71.0348 18.6651 71.198 19.5712 71.198 20.567C71.198 21.5465 71.0348 22.4444 70.7083 23.2607C70.3981 24.077 69.9573 24.7871 69.3859 25.3912C68.8308 25.9789 68.186 26.436 67.4514 26.7625C66.7167 27.089 65.9331 27.2523 65.1005 27.2523C64.5128 27.2523 63.9577 27.1543 63.4353 26.9584C62.9292 26.7788 62.4721 26.5176 62.064 26.1748C62.064 26.9421 62.064 27.7175 62.064 28.5012C62.064 28.9078 62.064 29.3122 62.064 29.7144ZM64.5618 23.677C65.3617 23.677 65.9902 23.3995 66.4473 22.8444C66.9208 22.273 67.1575 21.5139 67.1575 20.567C67.1575 19.6201 66.9208 18.8692 66.4473 18.3141C65.9902 17.759 65.3617 17.4815 64.5618 17.4815C63.7781 17.4815 63.1496 17.7672 62.6762 18.3386C62.2027 18.8937 61.966 19.6365 61.966 20.567C61.966 21.4976 62.2027 22.2485 62.6762 22.8199C63.1496 23.3913 63.7781 23.677 64.5618 23.677Z" fill="#3E3F48"/>
<path d="M53.1952 12.8031C52.7218 12.8031 52.2891 12.6888 51.8973 12.4603C51.5218 12.2317 51.2198 11.9297 50.9913 11.5542C50.7627 11.1787 50.6484 10.7624 50.6484 10.3053C50.6484 9.84822 50.7627 9.44008 50.9913 9.08092C51.2198 8.70544 51.5218 8.40342 51.8973 8.17486C52.2891 7.94631 52.7218 7.83203 53.1952 7.83203C53.6523 7.83203 54.0686 7.94631 54.4441 8.17486C54.8359 8.40342 55.1461 8.70544 55.3746 9.08092C55.6032 9.44008 55.7175 9.84822 55.7175 10.3053C55.7175 10.7624 55.6032 11.1787 55.3746 11.5542C55.1461 11.9297 54.8359 12.2317 54.4441 12.4603C54.0686 12.6888 53.6523 12.8031 53.1952 12.8031ZM52.2758 26.9083C51.661 26.9083 51.1627 26.4099 51.1627 25.7952C51.1627 24.0713 51.1627 22.3363 51.1627 20.5903C51.1627 18.8306 51.1627 17.0875 51.1627 15.361C51.1627 14.7462 51.661 14.2479 52.2758 14.2479C52.5806 14.2479 52.8871 14.2479 53.1952 14.2479C53.4967 14.2479 53.795 14.2479 54.0901 14.2479C54.7049 14.2479 55.2032 14.7462 55.2032 15.361C55.2032 17.0875 55.2032 18.8306 55.2032 20.5903C55.2032 22.3363 55.2032 24.0713 55.2032 25.7952C55.2032 26.4099 54.7049 26.9083 54.0901 26.9083C53.795 26.9083 53.4967 26.9083 53.1952 26.9083C52.8871 26.9083 52.5806 26.9083 52.2758 26.9083Z" fill="#3E3F48"/>
<path d="M39.7771 26.9103C39.1624 26.9103 38.6641 26.412 38.6641 25.7973C38.6641 25.5898 38.6641 25.3812 38.6641 25.1717C38.6641 24.7295 38.6641 24.2919 38.6641 23.859C38.6641 23.5847 38.7653 23.3201 38.9484 23.1159C39.7025 22.2747 40.4567 21.4336 41.2108 20.5924C42.0043 19.7074 42.7977 18.8224 43.5912 17.9374C43.6554 17.8657 43.6046 17.7518 43.5083 17.7518C42.7425 17.7518 41.9766 17.7518 41.2108 17.7518C40.7329 17.7518 40.255 17.7518 39.7772 17.7518C39.1624 17.7518 38.6641 17.2535 38.6641 16.6387C38.6641 16.4312 38.6641 16.2227 38.6641 16.0131C38.6641 15.7943 38.6641 15.5776 38.6641 15.3631C38.6641 14.7483 39.1624 14.25 39.7771 14.25C41.0647 14.25 42.3671 14.25 43.6841 14.25C45.0012 14.25 46.3035 14.25 47.5911 14.25C48.2058 14.25 48.7042 14.7483 48.7042 15.3631C48.7042 15.5776 48.7042 15.7943 48.7042 16.0131C48.7042 16.4553 48.7042 16.8929 48.7042 17.3259C48.7042 17.6001 48.6029 17.8647 48.4199 18.0689C47.6657 18.9101 46.9116 19.7513 46.1574 20.5924C45.364 21.4774 44.5705 22.3624 43.7771 23.2474C43.7128 23.3191 43.7637 23.433 43.8599 23.433C44.6258 23.433 45.3916 23.433 46.1574 23.433C46.6353 23.433 47.1132 23.433 47.5911 23.433C48.2058 23.433 48.7042 23.9314 48.7042 24.5461C48.7042 24.7536 48.7042 24.9621 48.7042 25.1717C48.7042 25.3812 48.7042 25.5898 48.7042 25.7973C48.7042 26.412 48.2058 26.9103 47.5911 26.9103C46.3035 26.9103 45.0012 26.9103 43.6841 26.9103C42.3671 26.9103 41.0647 26.9103 39.7771 26.9103Z" fill="#3E3F48"/>
</svg>
