<svg width="73" height="104" viewBox="0 0 73 104" fill="none" xmlns="http://www.w3.org/2000/svg">
<path d="M39.2921 81.326C39.8799 82.3441 40.2548 83.471 40.3941 84.6384L42.0772 98.7521C42.2061 99.8345 40.9763 100.545 40.1034 99.8917L28.7221 91.3772C27.7808 90.6729 26.9923 89.7848 26.4044 88.7667L7.72232 56.4083C7.37987 55.8152 7.58309 55.0567 8.17623 54.7143L18.916 48.5137C19.5091 48.1712 20.2676 48.3744 20.61 48.9676L39.2921 81.326ZM17.5097 43.5977C17.8522 44.1908 17.6489 44.9493 17.0558 45.2917L6.31606 51.4923C5.72292 51.8348 4.96447 51.6316 4.62202 51.0384L2.49299 47.3508C1.46564 45.5714 2.07532 43.2961 3.85473 42.2687L10.2986 38.5484C12.078 37.521 14.3533 38.1307 15.3807 39.9101L17.5097 43.5977Z" fill="#226DFF"/>
<path d="M41.0949 100.11C40.7712 100.179 40.4161 100.122 40.1055 99.8899L28.724 91.375C27.7828 90.6708 26.9938 89.7831 26.4061 88.7651L7.72435 56.4058C7.3822 55.8127 7.58548 55.0551 8.1785 54.7128L13.208 51.8074L41.0949 100.11ZM11.3478 48.5848L6.31832 51.4901C5.72518 51.8326 4.96651 51.6291 4.62406 51.036L2.49503 47.3483C1.46805 45.5691 2.07724 43.2941 3.85625 42.2668L6.73855 40.6016L11.3478 48.5848Z" fill="#1060FA"/>
<path opacity="0.8" d="M53.127 0.457031C63.8526 0.457031 72.5479 9.15231 72.5479 19.8779C72.5476 30.6033 63.8524 39.2979 53.127 39.2979H49.5838C49.1685 39.2979 48.7835 39.5083 48.5384 39.8436C44.136 45.865 36.2634 47.0979 31.9629 46.6377C31.7004 46.6096 31.6835 46.2429 31.9307 46.1504C34.9265 45.029 36.3404 42.6729 36.7022 40.5168C36.8145 39.8474 36.2521 39.2979 35.5733 39.2979H34.3271C23.6017 39.2979 14.9065 30.6033 14.9062 19.8779C14.9062 9.15231 23.6015 0.457031 34.3271 0.457031H53.127Z" fill="#84AEFF"/>
<ellipse cx="43.7217" cy="30.7525" rx="7.95213" ry="2.27204" fill="#5991FE"/>
<path d="M43.7137 5.60547C49.3546 5.60548 53.9273 10.1141 53.9274 15.6757C53.9274 15.8851 53.9201 16.0931 53.9073 16.2994C53.9382 16.3945 53.9526 16.4973 53.9466 16.6054C53.7135 20.8388 49.3602 26.3098 45.6022 29.7901C44.5356 30.778 42.9076 30.7587 41.8342 29.7782C38.3884 26.6306 34.402 22.091 33.6325 17.2999C33.5455 16.7712 33.5 16.2286 33.5 15.6757C33.5001 10.114 38.0728 5.60547 43.7137 5.60547Z" fill="#BFD5FF"/>
<circle cx="43.7243" cy="15.9899" r="8.2907" fill="#669AFF"/>
<path d="M40.0352 15.9883H47.4219" stroke="#BFD5FF" stroke-width="2" stroke-linecap="round"/>
<path d="M43.7344 12.3008L43.7344 19.6875" stroke="#BFD5FF" stroke-width="2" stroke-linecap="round"/>
</svg>
