<svg width="56" height="56" viewBox="0 0 56 56" fill="none" xmlns="http://www.w3.org/2000/svg">
<circle cx="7.89179" cy="42.2004" r="3.88789" fill="#FBA907"/>
<path d="M50.6344 23.5129C51.2629 24.1383 51.6162 24.9884 51.6162 25.875V43.7722C51.6162 44.9898 50.636 45.9806 49.4184 45.9937L40.6998 46.0874L25.834 46.0871C25.0898 46.087 24.4865 45.4838 24.4865 44.7396V41.6396C24.4865 41.0373 24.7311 40.4607 25.1642 40.0421L33.4557 32.0285C33.5993 31.8897 33.501 31.6466 33.3013 31.6466H26.4397C25.6955 31.6466 25.0922 31.0433 25.0922 30.2992V27.44C25.0922 26.6958 25.6955 26.0925 26.4397 26.0925H39.9145C40.6587 26.0925 41.262 26.6958 41.262 27.44V31.075C41.262 31.4403 41.1136 31.79 40.8509 32.0439L32.2929 40.3152C32.1492 40.454 32.2475 40.6971 32.4473 40.6971H41.2788H45.6531C45.9521 40.6971 46.1944 40.4548 46.1944 40.1558V28.2536C46.1944 27.3799 45.8513 26.5411 45.239 25.918L33.9067 14.3848C33.4793 13.9499 32.7813 13.9407 32.3427 14.3642L20.388 25.908C19.7377 26.536 19.3704 27.4012 19.3704 28.3053V40.1561C19.3704 40.4551 19.6127 40.6974 19.9117 40.6974H20.7341C21.4783 40.6974 22.0816 41.3007 22.0816 42.0449V44.7399C22.0816 45.4841 21.4783 46.0874 20.7341 46.0874H16.2021C14.9751 46.0874 13.9805 45.0927 13.9805 43.8657V26.0211C13.9805 25.1175 14.3474 24.2527 14.9972 23.6247L30.7848 8.3686C32.0901 7.10728 34.1647 7.12253 35.4513 8.4029L50.6344 23.5129Z" fill="#669AFF"/>
</svg>
