<svg width="48" height="48" viewBox="0 0 48 48" fill="none" xmlns="http://www.w3.org/2000/svg">
<path d="M28.8112 13.609V12.6473C28.8112 9.99172 26.6584 7.83892 24.0028 7.83892C21.3472 7.83892 19.1944 9.99172 19.1944 12.6473V13.609C19.1944 14.6713 18.3333 15.5324 17.271 15.5324C16.2088 15.5324 15.3477 14.6713 15.3477 13.609V12.6473C15.3477 7.86723 19.2227 3.99219 24.0028 3.99219C28.7829 3.99219 32.6579 7.86723 32.6579 12.6473V13.609C32.6579 14.6713 31.7968 15.5324 30.7346 15.5324C29.6723 15.5324 28.8112 14.6713 28.8112 13.609Z" fill="#FBA907"/>
<path fill-rule="evenodd" clip-rule="evenodd" d="M36.7129 37.2871C36.2174 41.1232 32.95 43.9961 29.082 43.9961H18.9219C15.0539 43.9961 11.7865 41.1232 11.291 37.2871L8.11719 12.7109H39.8867L36.7129 37.2871ZM24.0039 22.1133C23.2072 22.1133 22.5605 22.76 22.5605 23.5566V33.1738C22.5609 33.9702 23.2074 34.6152 24.0039 34.6152C24.8004 34.6152 25.447 33.9702 25.4473 33.1738V23.5566C25.4473 22.76 24.8006 22.1133 24.0039 22.1133ZM17.9922 22.1406C17.1985 22.2101 16.6103 22.9114 16.6797 23.7051L17.5176 33.2852C17.5872 34.0786 18.2885 34.6651 19.082 34.5957C19.8751 34.5259 20.4618 33.8264 20.3926 33.0332L19.5547 23.4531C19.4852 22.6597 18.7855 22.0716 17.9922 22.1406ZM30.0156 22.1328C29.2224 22.0638 28.5227 22.6521 28.4531 23.4453L27.6152 33.0254C27.546 33.8186 28.1327 34.518 28.9258 34.5879C29.7193 34.6573 30.4206 34.0708 30.4902 33.2773L31.3281 23.6973C31.3976 22.9036 30.8093 22.2022 30.0156 22.1328Z" fill="#C4CAD8"/>
<path d="M41.3115 12.7109C42.3738 12.7109 43.2349 13.5721 43.2349 14.6343C43.2349 15.6965 42.3738 16.5577 41.3115 16.5577H6.69094C5.6287 16.5577 4.76758 15.6965 4.76758 14.6343C4.76758 13.5721 5.6287 12.7109 6.69094 12.7109H41.3115Z" fill="#669AFF"/>
</svg>
