<svg width="80" height="222" viewBox="0 0 80 222" fill="none" xmlns="http://www.w3.org/2000/svg">
<path d="M66.6055 95.7348L12.5828 215.285L0.545267 215.198L37.277 127.638C37.9878 125.944 36.2298 124.268 34.5716 125.059L21.663 131.218C20.0243 131.999 18.2756 130.369 18.941 128.68L66.9594 6.75315L77.1812 6.81843L45.9198 99.5363C45.3294 101.287 47.2261 102.834 48.8224 101.903L63.7754 93.1835C65.4578 92.2025 67.4074 93.9601 66.6055 95.7348Z" fill="white"/>
<mask id="path-2-outside-1_2604_35673" maskUnits="userSpaceOnUse" x="8.00012" y="86" width="37" height="35" fill="black">
<rect fill="white" x="8.00012" y="86" width="37" height="35"/>
<path d="M26.5009 109.02L32.9609 90.4H40.3709L30.3009 117H22.7009L12.6309 90.4H20.0409L26.5009 109.02Z"/>
</mask>
<path d="M26.5009 109.02L32.9609 90.4H40.3709L30.3009 117H22.7009L12.6309 90.4H20.0409L26.5009 109.02Z" fill="white"/>
<path d="M26.5009 109.02L22.7218 110.331C23.2803 111.941 24.7971 113.02 26.5009 113.02C28.2046 113.02 29.7214 111.941 30.2799 110.331L26.5009 109.02ZM32.9609 90.4V86.4C31.2571 86.4 29.7403 87.4792 29.1818 89.0889L32.9609 90.4ZM40.3709 90.4L44.1118 91.8162C44.577 90.5872 44.409 89.208 43.6621 88.1268C42.9153 87.0455 41.685 86.4 40.3709 86.4V90.4ZM30.3009 117V121C31.9637 121 33.4531 119.971 34.0418 118.416L30.3009 117ZM22.7009 117L18.96 118.416C19.5487 119.971 21.0381 121 22.7009 121V117ZM12.6309 90.4V86.4C11.3167 86.4 10.0864 87.0455 9.3396 88.1268C8.59277 89.208 8.42469 90.5872 8.88996 91.8162L12.6309 90.4ZM20.0409 90.4L23.8199 89.0889C23.2614 87.4792 21.7446 86.4 20.0409 86.4V90.4ZM26.5009 109.02L30.2799 110.331L36.7399 91.7111L32.9609 90.4L29.1818 89.0889L22.7218 107.709L26.5009 109.02ZM32.9609 90.4V94.4H40.3709V90.4V86.4H32.9609V90.4ZM40.3709 90.4L36.63 88.9838L26.56 115.584L30.3009 117L34.0418 118.416L44.1118 91.8162L40.3709 90.4ZM30.3009 117V113H22.7009V117V121H30.3009V117ZM22.7009 117L26.4418 115.584L16.3718 88.9838L12.6309 90.4L8.88996 91.8162L18.96 118.416L22.7009 117ZM12.6309 90.4V94.4H20.0409V90.4V86.4H12.6309V90.4ZM20.0409 90.4L16.2618 91.7111L22.7218 110.331L26.5009 109.02L30.2799 107.709L23.8199 89.0889L20.0409 90.4Z" fill="#FBA907" mask="url(#path-2-outside-1_2604_35673)"/>
<mask id="path-4-outside-2_2604_35673" maskUnits="userSpaceOnUse" x="40" y="106" width="32" height="36" fill="black">
<rect fill="white" x="40" y="106" width="32" height="36"/>
<path d="M44.7535 131.49C51.6948 131.87 56.3942 132.06 58.8515 132.06C59.4342 132.06 59.8902 131.895 60.2195 131.566C60.5742 131.211 60.7515 130.743 60.7515 130.16V126.74H52.0115C49.3515 126.74 47.4135 126.145 46.1975 124.954C45.0068 123.738 44.4115 121.8 44.4115 119.14V118C44.4115 115.34 45.0068 113.415 46.1975 112.224C47.4135 111.008 49.3515 110.4 52.0115 110.4H65.3495V115.72H53.5315C52.0115 115.72 51.2515 116.48 51.2515 118V118.76C51.2515 120.28 52.0115 121.04 53.5315 121.04H60.3715C62.8542 121.04 64.6782 121.623 65.8435 122.788C67.0088 123.953 67.5915 125.777 67.5915 128.26V130.16C67.5915 132.643 67.0088 134.467 65.8435 135.632C64.6782 136.797 62.8542 137.38 60.3715 137.38C59.0795 137.38 57.7115 137.355 56.2675 137.304L52.7715 137.152C50.1875 137.025 47.5148 136.848 44.7535 136.62V131.49Z"/>
</mask>
<path d="M44.7535 131.49C51.6948 131.87 56.3942 132.06 58.8515 132.06C59.4342 132.06 59.8902 131.895 60.2195 131.566C60.5742 131.211 60.7515 130.743 60.7515 130.16V126.74H52.0115C49.3515 126.74 47.4135 126.145 46.1975 124.954C45.0068 123.738 44.4115 121.8 44.4115 119.14V118C44.4115 115.34 45.0068 113.415 46.1975 112.224C47.4135 111.008 49.3515 110.4 52.0115 110.4H65.3495V115.72H53.5315C52.0115 115.72 51.2515 116.48 51.2515 118V118.76C51.2515 120.28 52.0115 121.04 53.5315 121.04H60.3715C62.8542 121.04 64.6782 121.623 65.8435 122.788C67.0088 123.953 67.5915 125.777 67.5915 128.26V130.16C67.5915 132.643 67.0088 134.467 65.8435 135.632C64.6782 136.797 62.8542 137.38 60.3715 137.38C59.0795 137.38 57.7115 137.355 56.2675 137.304L52.7715 137.152C50.1875 137.025 47.5148 136.848 44.7535 136.62V131.49Z" fill="white"/>
<path d="M44.7535 131.49L44.9721 127.496C43.875 127.436 42.8014 127.83 42.0034 128.585C41.2055 129.341 40.7535 130.391 40.7535 131.49H44.7535ZM60.2195 131.566L57.3911 128.738L57.3911 128.738L60.2195 131.566ZM60.7515 126.74H64.7515C64.7515 124.531 62.9606 122.74 60.7515 122.74V126.74ZM46.1975 124.954L43.3394 127.752C43.3591 127.773 43.3789 127.792 43.399 127.812L46.1975 124.954ZM46.1975 112.224L49.0259 115.052L49.0259 115.052L46.1975 112.224ZM65.3495 110.4H69.3495C69.3495 108.191 67.5586 106.4 65.3495 106.4V110.4ZM65.3495 115.72V119.72C67.5586 119.72 69.3495 117.929 69.3495 115.72H65.3495ZM65.8435 135.632L63.0151 132.804L65.8435 135.632ZM56.2675 137.304L56.0937 141.3C56.1049 141.301 56.1161 141.301 56.1272 141.302L56.2675 137.304ZM52.7715 137.152L52.5756 141.147C52.583 141.148 52.5904 141.148 52.5977 141.148L52.7715 137.152ZM44.7535 136.62H40.7535C40.7535 138.702 42.3499 140.435 44.4243 140.606L44.7535 136.62ZM44.7535 131.49L44.5348 135.484C51.4628 135.863 56.2682 136.06 58.8515 136.06V132.06V128.06C56.5201 128.06 51.9269 127.877 44.9721 127.496L44.7535 131.49ZM58.8515 132.06V136.06C60.2138 136.06 61.7906 135.652 63.0479 134.394L60.2195 131.566L57.3911 128.738C57.6589 128.47 57.9706 128.283 58.2719 128.174C58.5575 128.071 58.7704 128.06 58.8515 128.06V132.06ZM60.2195 131.566L63.0479 134.394C64.2744 133.168 64.7515 131.618 64.7515 130.16H60.7515H56.7515C56.7515 130.045 56.7694 129.818 56.8773 129.533C56.9895 129.236 57.1678 128.961 57.3911 128.738L60.2195 131.566ZM60.7515 130.16H64.7515V126.74H60.7515H56.7515V130.16H60.7515ZM60.7515 126.74V122.74H52.0115V126.74V130.74H60.7515V126.74ZM52.0115 126.74V122.74C49.8271 122.74 49.1372 122.234 48.996 122.096L46.1975 124.954L43.399 127.812C45.6897 130.055 48.8758 130.74 52.0115 130.74V126.74ZM46.1975 124.954L49.0555 122.156C48.9172 122.014 48.4115 121.324 48.4115 119.14H44.4115H40.4115C40.4115 122.276 41.0964 125.462 43.3394 127.752L46.1975 124.954ZM44.4115 119.14H48.4115V118H44.4115H40.4115V119.14H44.4115ZM44.4115 118H48.4115C48.4115 115.806 48.9213 115.157 49.0259 115.052L46.1975 112.224L43.3691 109.396C41.0923 111.672 40.4115 114.874 40.4115 118H44.4115ZM46.1975 112.224L49.0259 115.052C49.1689 114.909 49.8462 114.4 52.0115 114.4V110.4V106.4C48.8568 106.4 45.658 107.107 43.3691 109.396L46.1975 112.224ZM52.0115 110.4V114.4H65.3495V110.4V106.4H52.0115V110.4ZM65.3495 110.4H61.3495V115.72H65.3495H69.3495V110.4H65.3495ZM65.3495 115.72V111.72H53.5315V115.72V119.72H65.3495V115.72ZM53.5315 115.72V111.72C52.1549 111.72 50.3878 112.067 48.9931 113.462C47.5983 114.856 47.2515 116.623 47.2515 118H51.2515H55.2515C55.2515 117.857 55.2846 118.484 54.6499 119.118C54.0152 119.753 53.3881 119.72 53.5315 119.72V115.72ZM51.2515 118H47.2515V118.76H51.2515H55.2515V118H51.2515ZM51.2515 118.76H47.2515C47.2515 120.137 47.5983 121.904 48.9931 123.298C50.3878 124.693 52.1549 125.04 53.5315 125.04V121.04V117.04C53.3881 117.04 54.0152 117.007 54.6499 117.642C55.2846 118.276 55.2515 118.903 55.2515 118.76H51.2515ZM53.5315 121.04V125.04H60.3715V121.04V117.04H53.5315V121.04ZM60.3715 121.04V125.04C62.3233 125.04 62.906 125.507 63.0151 125.616L65.8435 122.788L68.6719 119.96C66.4503 117.738 63.385 117.04 60.3715 117.04V121.04ZM65.8435 122.788L63.0151 125.616C63.1241 125.726 63.5915 126.308 63.5915 128.26H67.5915H71.5915C71.5915 125.246 70.8935 122.181 68.6719 119.96L65.8435 122.788ZM67.5915 128.26H63.5915V130.16H67.5915H71.5915V128.26H67.5915ZM67.5915 130.16H63.5915C63.5915 132.112 63.1241 132.694 63.0151 132.804L65.8435 135.632L68.6719 138.46C70.8935 136.239 71.5915 133.174 71.5915 130.16H67.5915ZM65.8435 135.632L63.0151 132.804C62.906 132.913 62.3233 133.38 60.3715 133.38V137.38V141.38C63.385 141.38 66.4503 140.682 68.6719 138.46L65.8435 135.632ZM60.3715 137.38V133.38C59.1313 133.38 57.8104 133.356 56.4077 133.306L56.2675 137.304L56.1272 141.302C57.6126 141.354 59.0276 141.38 60.3715 141.38V137.38ZM56.2675 137.304L56.4412 133.308L52.9452 133.156L52.7715 137.152L52.5977 141.148L56.0937 141.3L56.2675 137.304ZM52.7715 137.152L52.9673 133.157C50.4308 133.032 47.8027 132.858 45.0826 132.634L44.7535 136.62L44.4243 140.606C47.227 140.838 49.9442 141.018 52.5756 141.147L52.7715 137.152ZM44.7535 136.62H48.7535V131.49H44.7535H40.7535V136.62H44.7535Z" fill="#558FFF" mask="url(#path-4-outside-2_2604_35673)"/>
</svg>
