<svg width="207" height="206" viewBox="0 0 207 206" fill="none" xmlns="http://www.w3.org/2000/svg">
<path d="M-0.00012207 15.9922C-0.00012207 7.15563 7.16332 -0.0078125 15.9999 -0.0078125H207L167.108 98.8585C165.621 102.543 168.333 106.561 172.306 106.561C176.38 106.561 179.093 110.77 177.412 114.48L135.953 205.992H15.9999C7.16331 205.992 -0.00012207 198.829 -0.00012207 189.992V15.9922Z" fill="#FBA907"/>
<path d="M124.387 63.9334L137.328 104.131C137.956 106.079 136.089 107.908 134.154 107.241L78.7008 88.1209C77.375 87.6637 76.3041 86.6675 75.7525 85.3782L56.6227 40.6628C56.199 39.6722 57.151 38.6488 58.1695 39L90.1614 50.0305L121.277 60.759C122.756 61.2688 123.908 62.4448 124.387 63.9334Z" fill="#4D89FF"/>
<path d="M52.4892 142.144L107.677 161.173C109.623 161.844 111.744 160.81 112.415 158.865L130.46 106.529C131.141 104.553 131.182 102.413 130.576 100.412L119.157 62.6738C118.697 61.1552 116.952 60.4508 115.567 61.2251L71.987 85.5948L52.4892 142.144Z" fill="#80ABFF"/>
<path d="M10.8627 64.7227L74.2704 86.5851L54.8371 142.947L-5.04793 122.3C-6.99343 121.629 -8.02679 119.508 -7.356 117.562L10.8627 64.7227Z" fill="#A8C6FF"/>
<path d="M19.9272 92.6532C22.0875 86.3877 28.9179 83.0598 35.1833 85.2201L43.0238 87.9234C49.2892 90.0837 52.6171 96.9141 50.4569 103.18L45.2691 118.225C44.822 119.522 43.408 120.211 42.111 119.764L16.2782 110.857C14.9812 110.41 14.2923 108.996 14.7395 107.699L19.9272 92.6532Z" fill="#6297FF"/>
<path d="M50.9033 28.6141C51.3505 27.3171 52.7644 26.6281 54.0614 27.0753L65.8036 31.1239C67.1006 31.5711 67.7895 32.9851 67.3423 34.2821L63.2937 46.0243L46.8547 40.3562L50.9033 28.6141Z" fill="#4D89FF"/>
<path d="M90.1288 111.113C90.4889 110.069 91.6273 109.515 92.6715 109.875L110.127 115.893C111.171 116.253 111.726 117.391 111.366 118.436L99.8556 151.819C99.4955 152.863 98.3571 153.418 97.3129 153.058L79.8575 147.039C78.8133 146.679 78.2586 145.541 78.6187 144.496L90.1288 111.113Z" fill="#4D89FF"/>
<path d="M47.7177 37.1179L7.5515 59.1924C5.66318 60.2302 5.9012 63.0155 7.93823 63.7179L68.6619 84.6548C69.9877 85.112 71.445 84.9875 72.674 84.312L115.297 60.8886C116.242 60.3697 116.123 58.977 115.104 58.6259L83.1123 47.5954L51.73 36.775C50.4041 36.3179 48.9467 36.4424 47.7177 37.1179Z" fill="#4D89FF"/>
<path d="M75.5966 87.0528L68.3952 84.5699L117.083 60.3643C117.381 60.2161 117.726 60.1938 118.041 60.3023L121.299 61.4256C122.326 61.7799 122.435 63.19 121.474 63.6979L77.567 86.9007C76.9595 87.2217 76.2462 87.2768 75.5966 87.0528Z" fill="#4D89FF"/>
<circle cx="88.7884" cy="130.072" r="2.10598" transform="rotate(19.0237 88.7884 130.072)" fill="#80ABFF"/>
<path d="M136.057 27.8458C136.163 27.2837 136.72 26.9271 137.275 27.0673L141.775 28.2053C142.329 28.3455 142.65 28.9244 142.476 29.469L137.597 44.7038C137.437 45.2025 136.917 45.491 136.409 45.3626L133.839 44.7127C133.332 44.5844 133.011 44.0834 133.108 43.5687L136.057 27.8458Z" fill="#FFE8BA"/>
<rect x="132.083" y="46.9258" width="4.97601" height="4.97601" rx="2.488" transform="rotate(14.1918 132.083 46.9258)" fill="#FFE8BA"/>
<path d="M153.817 45.2017C154.161 44.8732 154.711 44.9057 155.014 45.2723L158.439 49.4169C158.742 49.7835 158.67 50.3302 158.283 50.6061L146.171 59.2327C145.821 59.482 145.338 59.4185 145.065 59.0873L142.997 56.585C142.723 56.2538 142.752 55.7674 143.063 55.4706L153.817 45.2017Z" fill="#FFE8BA"/>
<rect x="140.534" y="57.3164" width="4.73624" height="4.73624" rx="2.36812" transform="rotate(50.4307 140.534 57.3164)" fill="#FFE8BA"/>
</svg>
