<svg width="207" height="206" viewBox="0 0 207 206" fill="none" xmlns="http://www.w3.org/2000/svg">
<path d="M207.002 189.992C207.002 198.829 199.839 205.992 191.002 205.992H0.00195312L71.0486 -0.0078125H191.002C199.839 -0.0078125 207.002 7.15564 207.002 15.9922V189.992Z" fill="#558FFF"/>
<path d="M163.346 60.3579L200.368 80.6716C202.163 81.6563 202.063 84.2672 200.199 85.1121L146.771 109.323C145.494 109.902 144.031 109.914 142.745 109.356L98.1215 90.012C97.133 89.5835 97.1215 88.1858 98.1029 87.7411L128.926 73.7735L158.905 60.1883C160.329 59.5428 161.975 59.6057 163.346 60.3579Z" fill="#FFB626"/>
<path d="M164.847 166.583L218.019 142.488C219.894 141.639 220.725 139.431 219.875 137.556L197.026 87.1326C196.163 85.2289 194.722 83.6457 192.908 82.6082L158.68 63.0356C157.303 62.248 155.551 62.9357 155.077 64.4498L140.158 112.1L164.847 166.583Z" fill="#FFC551"/>
<path d="M81.4069 138.934L142.498 111.25L167.106 165.553L109.409 191.699C107.534 192.548 105.326 191.717 104.477 189.843L81.4069 138.934Z" fill="#FFDE9E"/>
<path d="M105.843 153.129C103.108 147.093 105.784 139.982 111.82 137.246L119.374 133.823C125.411 131.088 132.522 133.764 135.257 139.8L141.827 154.297C142.393 155.547 141.839 157.019 140.589 157.585L115.7 168.864C114.451 169.43 112.979 168.876 112.412 167.626L105.843 153.129Z" fill="#FFB72A"/>
<path d="M85.6876 85.1845C85.1213 83.9349 85.6752 82.4628 86.9249 81.8966L98.238 76.7699C99.4876 76.2037 100.96 76.7576 101.526 78.0072L106.653 89.3204L90.8142 96.4977L85.6876 85.1845Z" fill="#FFB626"/>
<path d="M170.294 118.908C169.838 117.902 170.284 116.716 171.29 116.26L187.783 108.786C188.789 108.33 189.975 108.776 190.43 109.783L204.748 141.378C205.204 142.385 204.758 143.57 203.752 144.026L187.259 151.5C186.253 151.956 185.068 151.51 184.612 150.504L170.294 118.908Z" fill="#FBA907"/>
<path d="M89.2166 93.5543L75.2013 137.191C74.5424 139.243 76.6292 141.103 78.5918 140.213L137.097 113.702C138.374 113.123 139.347 112.031 139.776 110.696L154.65 64.3904C154.98 63.3646 153.936 62.4345 152.955 62.8792L122.132 76.8468L91.8962 90.5483C90.6188 91.1271 89.6455 92.219 89.2166 93.5543Z" fill="#FFB626"/>
<path d="M143.783 110.68L136.845 113.824L155.588 62.7834C155.702 62.471 155.938 62.2176 156.241 62.0802L159.38 60.6579C160.37 60.2092 161.418 61.1589 161.069 62.1883L145.11 109.215C144.889 109.866 144.409 110.396 143.783 110.68Z" fill="#FFB626"/>
<circle cx="182.137" cy="133.337" r="2.07261" transform="rotate(-24.3779 182.137 133.337)" fill="#FFC551"/>
<path d="M102.795 31.8836C102.537 31.373 102.764 30.751 103.29 30.5257L107.556 28.6972C108.081 28.4719 108.688 28.7368 108.88 29.2754L114.255 44.3427C114.431 44.8359 114.193 45.3809 113.712 45.5871L111.275 46.6313C110.794 46.8376 110.235 46.634 109.999 46.1665L102.795 31.8836Z" fill="#C0D6FF"/>
<rect x="111.224" y="49.457" width="4.976" height="4.976" rx="2.488" transform="rotate(-23.1995 111.224 49.457)" fill="#C0D6FF"/>
<path d="M127.446 34.8852C127.52 34.4154 127.977 34.1069 128.441 34.2142L133.679 35.4273C134.142 35.5346 134.417 36.0126 134.277 36.467L129.892 50.6756C129.766 51.0863 129.343 51.3292 128.925 51.2323L125.762 50.4999C125.344 50.4029 125.071 49.999 125.138 49.5745L127.446 34.8852Z" fill="#C0D6FF"/>
<rect x="124.248" y="52.5742" width="4.73624" height="4.73624" rx="2.36812" transform="rotate(13.0394 124.248 52.5742)" fill="#C0D6FF"/>
</svg>
