<svg width="26" height="26" viewBox="0 0 26 26" fill="none" xmlns="http://www.w3.org/2000/svg">
<rect width="26" height="26" rx="13" fill="#F4F4F4"/>
<path d="M5.00195 11.8555H21.0019V19.1697C21.0019 20.1796 20.1832 20.9983 19.1733 20.9983H6.83051C5.82063 20.9983 5.00195 20.1796 5.00195 19.1697V11.8555Z" fill="#D3D3D3"/>
<path d="M5.7283 6.25032C5.9772 5.50364 6.67596 5 7.46303 5H18.5413C19.3284 5 20.0272 5.50364 20.2761 6.25032L22.145 11.8571H3.85938L5.7283 6.25032Z" fill="#D3D3D3"/>
<path d="M8.43164 11.8549C8.43164 13.1173 7.4083 14.1406 6.14594 14.1406C4.88358 14.1406 3.86023 13.1173 3.86023 11.8549L8.43164 11.8549Z" fill="#ABABAB"/>
<path d="M13.002 11.8549C13.002 13.1173 11.9786 14.1406 10.7162 14.1406C9.45389 14.1406 8.43055 13.1173 8.43055 11.8549L13.002 11.8549Z" fill="#ABABAB"/>
<path d="M17.5742 11.8549C17.5742 13.1173 16.5509 14.1406 15.2885 14.1406C14.0262 14.1406 13.0028 13.1173 13.0028 11.8549L17.5742 11.8549Z" fill="#ABABAB"/>
<path d="M22.1445 11.8549C22.1445 13.1173 21.1212 14.1406 19.8588 14.1406C18.5965 14.1406 17.5731 13.1173 17.5731 11.8549L22.1445 11.8549Z" fill="#ABABAB"/>
<path d="M10.7168 17.1137C10.7168 16.1038 11.5355 15.2852 12.5454 15.2852H13.4596C14.4695 15.2852 15.2882 16.1038 15.2882 17.1137V20.9994H10.7168V17.1137Z" fill="#ABABAB"/>
<path d="M9.57254 5L8.42969 11.8571H13.0011V5H9.57254Z" fill="white"/>
<path d="M16.4297 5L17.5725 11.8571H22.1439L20.275 6.25032C20.0261 5.50364 19.3274 5 18.5403 5H16.4297Z" fill="white"/>
</svg>
