<svg width="27" height="26" viewBox="0 0 27 26" fill="none" xmlns="http://www.w3.org/2000/svg">
<rect x="0.5" width="26" height="26" rx="13" fill="#E9E9EC"/>
<path d="M19.1854 3H7.74453C7.0572 3 6.5 3.5572 6.5 4.24453V23H20.5L20.4299 4.23988C20.4274 3.55437 19.8709 3 19.1854 3Z" fill="#D1D1D1"/>
<path d="M17.4452 2H9.5C8.94772 2 8.5 2.44772 8.5 3H18.5C18.4701 2.4393 18.0067 2 17.4452 2Z" fill="#B3B3B3"/>
<path d="M14.9984 18.0016L11.9984 18.0109C11.7229 18.0118 11.5 18.2354 11.5 18.5109V20.9875L15.5 21V18.5016C15.5 18.2248 15.2752 18.0007 14.9984 18.0016Z" fill="white"/>
<path d="M11.5969 9.00293L10.197 9.00876C9.8116 9.01037 9.5 9.32326 9.5 9.70869V11.091C9.5 11.4765 9.8116 11.7894 10.197 11.791L11.5969 11.7968C11.9846 11.7984 12.2997 11.4846 12.2997 11.0969V9.70285C12.2997 9.31515 11.9846 9.00131 11.5969 9.00293Z" fill="white"/>
<path d="M11.5969 13.0029L10.197 13.0088C9.8116 13.0104 9.5 13.3233 9.5 13.7087V15.091C9.5 15.4765 9.8116 15.7894 10.197 15.791L11.5969 15.7968C11.9846 15.7984 12.2997 15.4846 12.2997 15.0969V13.7029C12.2997 13.3152 11.9846 13.0013 11.5969 13.0029Z" fill="white"/>
<path d="M16.7961 9.00293L15.3962 9.00876C15.0108 9.01037 14.6992 9.32326 14.6992 9.70869V11.091C14.6992 11.4765 15.0108 11.7894 15.3962 11.791L16.7961 11.7968C17.1838 11.7984 17.4989 11.4846 17.4989 11.0969V9.70285C17.4989 9.31515 17.1838 9.00131 16.7961 9.00293Z" fill="white"/>
<path d="M11.5969 5.00293L10.197 5.00876C9.8116 5.01037 9.5 5.32326 9.5 5.70869V7.09104C9.5 7.47646 9.8116 7.78936 10.197 7.79097L11.5969 7.7968C11.9846 7.79841 12.2997 7.48457 12.2997 7.09687V5.70285C12.2997 5.31515 11.9846 5.00131 11.5969 5.00293Z" fill="white"/>
<path d="M16.7961 13.0029L15.3962 13.0088C15.0108 13.0104 14.6992 13.3233 14.6992 13.7087V15.091C14.6992 15.4765 15.0108 15.7894 15.3962 15.791L16.7961 15.7968C17.1838 15.7984 17.4989 15.4846 17.4989 15.0969V13.7029C17.4989 13.3152 17.1838 13.0013 16.7961 13.0029Z" fill="white"/>
<path d="M16.7961 5.00293L15.3962 5.00876C15.0108 5.01037 14.6992 5.32326 14.6992 5.70869V7.09104C14.6992 7.47646 15.0108 7.78936 15.3962 7.79097L16.7961 7.7968C17.1838 7.79841 17.4989 7.48457 17.4989 7.09687V5.70285C17.4989 5.31515 17.1838 5.00131 16.7961 5.00293Z" fill="white"/>
<rect x="5.5" y="21" width="16" height="2" rx="1" fill="#B3B3B3"/>
</svg>
