<svg width="29" height="30" viewBox="0 0 29 30" fill="none" xmlns="http://www.w3.org/2000/svg">
<g clip-path="url(#clip0_2457_24630)">
<rect x="0.166992" y="0.917969" width="28.1667" height="28.1667" rx="14.0833" fill="#E9E9EC"/>
<path d="M4.99368 11.6306C4.75283 13.3234 4.75045 14.5627 5.83954 15.0313C6.43059 15.2856 7.02847 15.0326 7.62119 15.6269C10.8912 19.7888 8.51484 17.1135 10.2967 18.3024C12.4152 19.7159 13.2492 18.1153 15.3886 18.0622C17.528 18.0091 17.9902 18.6289 19.217 18.0622C20.4439 17.4956 20.4045 15.6261 19.7796 14.9079C21.2966 14.7346 21.2357 11.7444 19.9902 11.6289C20.9396 10.1596 20.1084 8.78909 19.217 8.78842C19.4973 8.47501 19.4083 7.39247 18.9196 6.70826C17.5003 4.72129 12.1921 5.64703 10.6804 6.51101C10.5525 6.58408 10.4107 6.63272 10.2634 6.63295C6.97865 6.63825 6.7032 6.81083 6.1365 7.89687C5.5569 9.00759 5.24764 9.84572 4.99368 11.6306Z" fill="#D3D3D3"/>
<path d="M19.7944 14.728C19.0002 14.4375 18.3389 14.4375 17.6777 14.4375" stroke="#ABABAB" stroke-linecap="round" stroke-linejoin="round"/>
<path d="M19.1263 8.3975C18.3195 8.07196 17.6549 8.04184 16.9902 8.01172" stroke="#ABABAB" stroke-linecap="round" stroke-linejoin="round"/>
<path d="M20.1042 11.4628C19.0815 11.0976 18.2698 10.9835 17.4473 10.9844" stroke="#ABABAB" stroke-linecap="round" stroke-linejoin="round"/>
<path d="M9.7136 21.2481C10.2394 19.5476 9.31363 18.1419 8.63847 16.8924C8.27529 16.2753 8.47508 15.5237 8.67309 15.0027C8.69606 14.9423 8.72799 14.8868 8.76809 14.8361C9.85785 13.4579 11.9152 11.3407 13.842 16.4708C13.8537 16.502 13.8636 16.5353 13.87 16.568C14.0201 17.3352 14.0226 18.7934 14.0324 19.5931C14.091 24.4969 8.51007 25.1407 9.7136 21.2481Z" fill="#D3D3D3"/>
</g>
<defs>
<clipPath id="clip0_2457_24630">
<rect x="0.166992" y="0.917969" width="28.1667" height="28.1667" rx="14.0833" fill="white"/>
</clipPath>
</defs>
</svg>
