<svg width="26" height="26" viewBox="0 0 26 26" fill="none" xmlns="http://www.w3.org/2000/svg">
<rect width="26" height="26" rx="13" fill="white"/>
<path d="M4.72656 14.7148L7.86294 14.1839L8.90998 20.369C8.97613 20.7598 8.71296 21.1302 8.32217 21.1964L6.60099 21.4877C6.21019 21.5539 5.83976 21.2907 5.7736 20.8999L4.72656 14.7148Z" fill="#FBA907"/>
<path d="M4.72656 14.7148L7.86294 14.1839L8.28724 16.6903L5.15086 17.2213L4.72656 14.7148Z" fill="#F28D00"/>
<path d="M14.2221 17.221C11.4874 16.0583 8.43311 15.4908 5.97554 15.6233L4.99473 9.82943C7.05922 9.17489 10.7781 7.58472 12.6141 5.58084L14.2221 17.221Z" fill="#FFDD99"/>
<path d="M2.37377 12.2157C2.16784 10.9993 2.98582 9.84583 4.20191 9.63782L5.1838 9.46986C5.50388 9.41512 5.80764 9.63053 5.86184 9.9507L6.72726 15.0629C6.78149 15.3833 6.56527 15.6868 6.24477 15.7402L5.26077 15.9042C4.04454 16.1069 2.89369 15.287 2.68789 14.0713L2.37377 12.2157Z" fill="#FBA907"/>
<rect x="11.9375" y="5.10156" width="1.76178" height="12.9197" rx="0.880892" transform="rotate(-9.60823 11.9375 5.10156)" fill="#FBA907"/>
<path d="M22.2803 11.3332L18.2451 12.1137C18.0142 12.1583 17.848 11.8656 18.0298 11.7343L19.3521 10.7792C19.4681 10.6954 19.4482 10.5191 19.3133 10.4348L18.8247 10.1293C18.6534 10.0222 18.6794 9.78675 18.8667 9.75053L23.1213 8.92761C23.3714 8.87924 23.53 9.21497 23.3085 9.32382L21.696 10.1163C21.5617 10.1823 21.5564 10.3635 21.6859 10.4632L22.343 10.9688C22.4935 11.0846 22.4566 11.2991 22.2803 11.3332Z" fill="#FBA907"/>
<path d="M19.7076 6.26087L16.3625 8.28159C16.1678 8.39919 15.8862 8.22407 15.9837 8.04597L16.7456 6.65292C16.8041 6.54584 16.72 6.41771 16.5708 6.3868L15.837 6.23479C15.6381 6.1936 15.5748 5.99344 15.7308 5.89921L19.3117 3.73607C19.5248 3.60731 19.8207 3.82539 19.6705 4.0005L18.5109 5.35201C18.4245 5.45273 18.489 5.59591 18.641 5.64076L19.6261 5.93146C19.8084 5.98526 19.8546 6.17206 19.7076 6.26087Z" fill="#FBA907"/>
<path d="M18.4802 16.7262L22.5682 17.2769C22.802 17.3084 22.94 17.0024 22.7464 16.8818L21.3497 16.011C21.2255 15.9336 21.2294 15.753 21.3574 15.6603L21.8058 15.3356C21.9676 15.2184 21.9212 14.9813 21.7314 14.9557L17.4283 14.3761C17.1754 14.342 17.0487 14.6903 17.2792 14.7862L18.9443 15.4787C19.0848 15.5371 19.1063 15.7209 18.9852 15.8287L18.3864 16.362C18.2461 16.4869 18.3015 16.7021 18.4802 16.7262Z" fill="#FBA907"/>
</svg>
