<svg width="26" height="26" viewBox="0 0 26 26" fill="none" xmlns="http://www.w3.org/2000/svg">
<rect width="26" height="26" rx="13" fill="white"/>
<path d="M5 11.8555H20.9999V19.1697C20.9999 20.1796 20.1812 20.9983 19.1714 20.9983H6.82856C5.81867 20.9983 5 20.1796 5 19.1697V11.8555Z" fill="#FBA907"/>
<path d="M5.7244 6.25032C5.97329 5.50364 6.67206 5 7.45913 5H18.5374C19.3245 5 20.0233 5.50364 20.2722 6.25032L22.1411 11.8571H3.85547L5.7244 6.25032Z" fill="#FBA907"/>
<path d="M8.42578 11.8549C8.42578 13.1173 7.40244 14.1406 6.14008 14.1406C4.87772 14.1406 3.85437 13.1173 3.85437 11.8549L8.42578 11.8549Z" fill="#FFEFCF"/>
<path d="M13 11.8549C13 13.1173 11.9767 14.1406 10.7143 14.1406C9.45194 14.1406 8.42859 13.1173 8.42859 11.8549L13 11.8549Z" fill="#FFEFCF"/>
<path d="M17.5703 11.8549C17.5703 13.1173 16.547 14.1406 15.2846 14.1406C14.0223 14.1406 12.9989 13.1173 12.9989 11.8549L17.5703 11.8549Z" fill="#FFEFCF"/>
<path d="M22.1406 11.8549C22.1406 13.1173 21.1173 14.1406 19.8549 14.1406C18.5926 14.1406 17.5692 13.1173 17.5692 11.8549L22.1406 11.8549Z" fill="#FFEFCF"/>
<path d="M10.7148 17.1137C10.7148 16.1038 11.5335 15.2852 12.5434 15.2852H13.4577C14.4676 15.2852 15.2863 16.1038 15.2863 17.1137V20.9994H10.7148V17.1137Z" fill="#FFEFCF"/>
<path d="M9.57254 5L8.42969 11.8571H13.0011V5H9.57254Z" fill="#FFDD99"/>
<path d="M16.4297 5L17.5725 11.8571H22.1439L20.275 6.25032C20.0261 5.50364 19.3274 5 18.5403 5H16.4297Z" fill="#FFDD99"/>
</svg>
