<svg width="26" height="26" viewBox="0 0 26 26" fill="none" xmlns="http://www.w3.org/2000/svg">
<rect width="26" height="26" rx="13" fill="#F4F4F4"/>
<path d="M12.9994 15.6836C11.3587 15.6836 9.82773 16.05 8.68218 16.754C7.53744 17.4575 6.6836 18.5709 6.6836 20.0556L6.6836 20.3209C6.68357 20.472 6.68355 20.6258 6.69297 20.7573C6.70345 20.9037 6.7287 21.0852 6.81123 21.27C6.92349 21.5214 7.10263 21.7258 7.32297 21.8538C7.48494 21.948 7.64408 21.9768 7.77233 21.9887C7.88761 21.9994 8.02246 21.9994 8.15492 21.9994L17.844 21.9987C17.9765 21.9987 18.1113 21.9988 18.2266 21.988C18.3548 21.976 18.5139 21.9472 18.6759 21.8531C18.8962 21.725 19.0753 21.5206 19.1876 21.2693C19.2701 21.0845 19.2953 20.903 19.3058 20.7567C19.3152 20.6251 19.3152 20.4713 19.3152 20.3202L19.3152 20.0556C19.3152 18.5709 18.4613 17.4575 17.3166 16.754C16.171 16.05 14.64 15.6836 12.9994 15.6836Z" fill="#D3D3D3"/>
<path d="M9.1601 17.1815L11.0972 19.506C11.2655 19.708 11.5758 19.708 11.7441 19.506L13.6812 17.1815C13.8643 16.9617 13.7797 16.6272 13.5141 16.521L11.577 15.7461C11.4766 15.706 11.3647 15.706 11.2643 15.7461L9.32718 16.521C9.06158 16.6272 8.97696 16.9617 9.1601 17.1815Z" fill="#ABABAB"/>
<path d="M16.8399 17.1815L14.9028 19.506C14.7345 19.708 14.4242 19.708 14.2559 19.506L12.3188 17.1815C12.1357 16.9617 12.2203 16.6272 12.4859 16.521L14.423 15.7461C14.5234 15.706 14.6353 15.706 14.7357 15.7461L16.6728 16.521C16.9384 16.6272 17.023 16.9617 16.8399 17.1815Z" fill="#ABABAB"/>
<ellipse cx="13.0014" cy="13.0532" rx="5.26316" ry="4.73684" fill="white"/>
<path d="M8.79071 13.0516C8.79071 14.1042 8.08379 14.6306 7.21176 14.6306C6.33973 14.6306 5.63281 13.9236 5.63281 13.0516C5.63281 12.1796 6.33973 11.4727 7.21176 11.4727C8.08379 11.4727 8.79071 12.1796 8.79071 13.0516Z" fill="white"/>
<path d="M17.2093 13.0516C17.2093 14.1042 17.9162 14.6306 18.7882 14.6306C19.6603 14.6306 20.3672 13.9236 20.3672 13.0516C20.3672 12.1796 19.6603 11.4727 18.7882 11.4727C17.9162 11.4727 17.2093 12.1796 17.2093 13.0516Z" fill="white"/>
<path d="M5.78077 9.06712C5.12236 8.07951 5.41013 6.74316 6.41666 6.11407L8.53603 4.78947C11.2667 3.08278 14.7316 3.08278 17.4623 4.78947L19.5817 6.11407C20.5882 6.74316 20.876 8.07952 20.2176 9.06712L19.315 10.4211H6.68339L5.78077 9.06712Z" fill="#ABABAB"/>
<path d="M19.4582 9.83828C19.8862 10.4672 19.5263 11.3284 18.7781 11.4658L15.2807 12.1082C13.772 12.3853 12.2255 12.3853 10.7169 12.1082L7.21941 11.4658C6.47123 11.3284 6.11136 10.4672 6.53935 9.83828L6.60681 9.73915C6.76759 9.5029 7.01752 9.34217 7.29918 9.29389L10.8645 8.68269C12.277 8.44054 13.7205 8.44054 15.133 8.68269L18.6984 9.29389C18.98 9.34217 19.2299 9.5029 19.3907 9.73915L19.4582 9.83828Z" fill="#D3D3D3"/>
<path d="M11.0647 6.71596C10.9876 6.40759 11.267 6.12826 11.5753 6.20536L12.0462 6.32307C12.2087 6.3637 12.3804 6.34485 12.5302 6.26994L12.8115 6.12931C12.93 6.07004 13.0696 6.07004 13.1881 6.12931L13.4694 6.26994C13.6192 6.34485 13.7909 6.3637 13.9534 6.32307L14.4243 6.20536C14.7326 6.12826 15.012 6.40759 14.9349 6.71596L14.4816 8.52905C14.4319 8.72779 14.2978 8.8949 14.1146 8.98652L13.1881 9.44978C13.0696 9.50905 12.93 9.50905 12.8115 9.44978L11.885 8.98652C11.7017 8.8949 11.5677 8.72779 11.518 8.52905L11.0647 6.71596Z" fill="#ABABAB"/>
<circle cx="10.3701" cy="13.0537" r="0.526316" fill="#ABABAB"/>
<circle cx="15.6318" cy="13.0537" r="0.526316" fill="#ABABAB"/>
</svg>
