<svg width="26" height="26" viewBox="0 0 26 26" fill="none" xmlns="http://www.w3.org/2000/svg">
<rect width="26" height="26" rx="13" fill="white"/>
<path d="M4.82767 15.0022C4.58682 13.3094 4.58444 12.0701 5.67353 11.6015C6.26458 11.3472 6.86245 11.6002 7.45517 11.0059C10.7252 6.84401 8.34883 9.51927 10.1307 8.33041C12.2492 6.91687 13.0832 8.51746 15.2226 8.57057C17.362 8.62367 17.8242 8.00391 19.051 8.57056C20.2778 9.13722 20.2385 11.0067 19.6136 11.7249C21.1305 11.8983 21.0697 14.8884 19.8242 15.0039C20.7736 16.4733 19.9424 17.8437 19.051 17.8444C19.3312 18.1578 19.2423 19.2403 18.7536 19.9245C17.3343 21.9115 12.0261 20.9858 10.5144 20.1218C10.3865 20.0487 10.2447 20.0001 10.0974 19.9999C6.81264 19.9946 6.53719 19.822 5.97048 18.7359C5.39089 17.6252 5.08163 16.7871 4.82767 15.0022Z" fill="#FBA907"/>
<path d="M19.6284 11.9048C18.8341 12.1953 18.1729 12.1953 17.5117 12.1953" stroke="#FFEFCF" stroke-linecap="round" stroke-linejoin="round"/>
<path d="M18.9603 18.2353C18.1535 18.5609 17.4889 18.591 16.8242 18.6211" stroke="#FFEFCF" stroke-linecap="round" stroke-linejoin="round"/>
<path d="M19.9382 15.17C18.9155 15.5352 18.1038 15.6493 17.2812 15.6484" stroke="#FFEFCF" stroke-linecap="round" stroke-linejoin="round"/>
<path d="M9.54661 5.3847C10.0724 7.08521 9.14664 8.49087 8.47148 9.74037C8.1083 10.3575 8.30809 11.1091 8.5061 11.6301C8.52907 11.6905 8.561 11.746 8.6011 11.7968C9.69086 13.1749 11.7482 15.2922 13.675 10.162C13.6867 10.1308 13.6966 10.0975 13.703 10.0648C13.8531 9.29765 13.8556 7.83944 13.8654 7.03971C13.9241 2.13591 8.34308 1.49216 9.54661 5.3847Z" fill="#FBA907"/>
</svg>
