<svg width="26" height="26" viewBox="0 0 26 26" fill="none" xmlns="http://www.w3.org/2000/svg">
<rect width="26" height="26" rx="13" fill="#E9E9EC"/>
<path d="M18.6864 3H7.24551C6.55817 3 6.00098 3.5572 6.00098 4.24453V23H20.001L19.9309 4.23988C19.9283 3.55437 19.3719 3 18.6864 3Z" fill="#D1D1D1"/>
<path d="M16.9452 2H9C8.44772 2 8 2.44772 8 3H18C17.9701 2.4393 17.5067 2 16.9452 2Z" fill="#B3B3B3"/>
<path d="M14.4984 18.0016L11.4984 18.0109C11.2229 18.0118 11 18.2354 11 18.5109V20.9875L15 21V18.5016C15 18.2248 14.7752 18.0007 14.4984 18.0016Z" fill="white"/>
<path d="M11.0979 9.00293L9.69799 9.00876C9.31257 9.01037 9.00098 9.32326 9.00098 9.70869V11.091C9.00098 11.4765 9.31257 11.7894 9.69799 11.791L11.0979 11.7968C11.4856 11.7984 11.8007 11.4846 11.8007 11.0969V9.70285C11.8007 9.31515 11.4856 9.00131 11.0979 9.00293Z" fill="white"/>
<path d="M11.0979 13.0029L9.69799 13.0088C9.31257 13.0104 9.00098 13.3233 9.00098 13.7087V15.091C9.00098 15.4765 9.31257 15.7894 9.69799 15.791L11.0979 15.7968C11.4856 15.7984 11.8007 15.4846 11.8007 15.0969V13.7029C11.8007 13.3152 11.4856 13.0013 11.0979 13.0029Z" fill="white"/>
<path d="M16.2971 9.00293L14.8972 9.00876C14.5118 9.01037 14.2002 9.32326 14.2002 9.70869V11.091C14.2002 11.4765 14.5118 11.7894 14.8972 11.791L16.2971 11.7968C16.6848 11.7984 16.9999 11.4846 16.9999 11.0969V9.70285C16.9999 9.31515 16.6848 9.00131 16.2971 9.00293Z" fill="white"/>
<path d="M11.0979 5.00293L9.69799 5.00876C9.31257 5.01037 9.00098 5.32326 9.00098 5.70869V7.09104C9.00098 7.47646 9.31257 7.78936 9.69799 7.79097L11.0979 7.7968C11.4856 7.79841 11.8007 7.48457 11.8007 7.09687V5.70285C11.8007 5.31515 11.4856 5.00131 11.0979 5.00293Z" fill="white"/>
<path d="M16.2971 13.0029L14.8972 13.0088C14.5118 13.0104 14.2002 13.3233 14.2002 13.7087V15.091C14.2002 15.4765 14.5118 15.7894 14.8972 15.791L16.2971 15.7968C16.6848 15.7984 16.9999 15.4846 16.9999 15.0969V13.7029C16.9999 13.3152 16.6848 13.0013 16.2971 13.0029Z" fill="white"/>
<path d="M16.2971 5.00293L14.8972 5.00876C14.5118 5.01037 14.2002 5.32326 14.2002 5.70869V7.09104C14.2002 7.47646 14.5118 7.78936 14.8972 7.79097L16.2971 7.7968C16.6848 7.79841 16.9999 7.48457 16.9999 7.09687V5.70285C16.9999 5.31515 16.6848 5.00131 16.2971 5.00293Z" fill="white"/>
<rect x="5" y="21" width="16" height="2" rx="1" fill="#B3B3B3"/>
</svg>
