<svg width="27" height="26" viewBox="0 0 27 26" fill="none" xmlns="http://www.w3.org/2000/svg">
<rect x="0.333008" width="26" height="26" rx="13" fill="#E9E9EC"/>
<path d="M19.0194 3H7.57852C6.89118 3 6.33398 3.5572 6.33398 4.24453V23H20.334L20.2639 4.23988C20.2613 3.55437 19.7049 3 19.0194 3Z" fill="#D1D1D1"/>
<path d="M17.2782 2H9.33301C8.78072 2 8.33301 2.44772 8.33301 3H18.333C18.3031 2.4393 17.8397 2 17.2782 2Z" fill="#B3B3B3"/>
<path d="M14.8324 18.0016L11.8324 18.0109C11.5569 18.0118 11.334 18.2354 11.334 18.5109V20.9875L15.334 21V18.5016C15.334 18.2248 15.1092 18.0007 14.8324 18.0016Z" fill="white"/>
<path d="M11.4309 9.00293L10.031 9.00876C9.64558 9.01037 9.33398 9.32326 9.33398 9.70869V11.091C9.33398 11.4765 9.64558 11.7894 10.031 11.791L11.4309 11.7968C11.8186 11.7984 12.1337 11.4846 12.1337 11.0969V9.70285C12.1337 9.31515 11.8186 9.00131 11.4309 9.00293Z" fill="white"/>
<path d="M11.4309 13.0029L10.031 13.0088C9.64558 13.0104 9.33398 13.3233 9.33398 13.7087V15.091C9.33398 15.4765 9.64558 15.7894 10.031 15.791L11.4309 15.7968C11.8186 15.7984 12.1337 15.4846 12.1337 15.0969V13.7029C12.1337 13.3152 11.8186 13.0013 11.4309 13.0029Z" fill="white"/>
<path d="M16.6301 9.00293L15.2302 9.00876C14.8448 9.01037 14.5332 9.32326 14.5332 9.70869V11.091C14.5332 11.4765 14.8448 11.7894 15.2302 11.791L16.6301 11.7968C17.0178 11.7984 17.3329 11.4846 17.3329 11.0969V9.70285C17.3329 9.31515 17.0178 9.00131 16.6301 9.00293Z" fill="white"/>
<path d="M11.4309 5.00293L10.031 5.00876C9.64558 5.01037 9.33398 5.32326 9.33398 5.70869V7.09104C9.33398 7.47646 9.64558 7.78936 10.031 7.79097L11.4309 7.7968C11.8186 7.79841 12.1337 7.48457 12.1337 7.09687V5.70285C12.1337 5.31515 11.8186 5.00131 11.4309 5.00293Z" fill="white"/>
<path d="M16.6301 13.0029L15.2302 13.0088C14.8448 13.0104 14.5332 13.3233 14.5332 13.7087V15.091C14.5332 15.4765 14.8448 15.7894 15.2302 15.791L16.6301 15.7968C17.0178 15.7984 17.3329 15.4846 17.3329 15.0969V13.7029C17.3329 13.3152 17.0178 13.0013 16.6301 13.0029Z" fill="white"/>
<path d="M16.6301 5.00293L15.2302 5.00876C14.8448 5.01037 14.5332 5.32326 14.5332 5.70869V7.09104C14.5332 7.47646 14.8448 7.78936 15.2302 7.79097L16.6301 7.7968C17.0178 7.79841 17.3329 7.48457 17.3329 7.09687V5.70285C17.3329 5.31515 17.0178 5.00131 16.6301 5.00293Z" fill="white"/>
<rect x="5.33301" y="21" width="16" height="2" rx="1" fill="#B3B3B3"/>
</svg>
