<svg width="26" height="26" viewBox="0 0 26 26" fill="none" xmlns="http://www.w3.org/2000/svg">
<rect width="26" height="26" rx="13" fill="#F4F4F4"/>
<path d="M4.72461 14.7109L7.86098 14.18L8.90803 20.3651C8.97418 20.7559 8.71101 21.1263 8.32021 21.1925L6.59904 21.4838C6.20824 21.55 5.83781 21.2868 5.77165 20.896L4.72461 14.7109Z" fill="#D3D3D3"/>
<path d="M4.72461 14.7109L7.86098 14.18L8.28529 16.6864L5.14891 17.2174L4.72461 14.7109Z" fill="#ABABAB"/>
<path d="M14.2221 17.2171C11.4874 16.0544 8.43311 15.4869 5.97554 15.6194L4.99473 9.82553C7.05922 9.17098 10.7781 7.58081 12.6141 5.57694L14.2221 17.2171Z" fill="white"/>
<path d="M2.37377 12.2118C2.16784 10.9954 2.98582 9.84192 4.20191 9.63391L5.1838 9.46596C5.50388 9.41121 5.80764 9.62662 5.86184 9.94679L6.72726 15.059C6.78149 15.3794 6.56527 15.6829 6.24477 15.7363L5.26077 15.9003C4.04454 16.103 2.89369 15.2831 2.68789 14.0674L2.37377 12.2118Z" fill="#D3D3D3"/>
<rect x="11.9375" y="5.09766" width="1.76178" height="12.9197" rx="0.880892" transform="rotate(-9.60823 11.9375 5.09766)" fill="#D3D3D3"/>
<path d="M22.2803 11.3293L18.2451 12.1098C18.0142 12.1544 17.848 11.8617 18.0298 11.7304L19.3521 10.7753C19.4681 10.6915 19.4482 10.5152 19.3133 10.4309L18.8247 10.1254C18.6534 10.0183 18.6794 9.78284 18.8667 9.74663L23.1213 8.9237C23.3714 8.87533 23.53 9.21106 23.3085 9.31991L21.696 10.1124C21.5617 10.1784 21.5564 10.3596 21.6859 10.4593L22.343 10.9649C22.4935 11.0807 22.4566 11.2952 22.2803 11.3293Z" fill="#D3D3D3"/>
<path d="M19.7076 6.25696L16.3625 8.27768C16.1678 8.39528 15.8862 8.22016 15.9837 8.04206L16.7456 6.64902C16.8041 6.54194 16.72 6.4138 16.5708 6.3829L15.837 6.23089C15.6381 6.1897 15.5748 5.98953 15.7308 5.8953L19.3117 3.73216C19.5248 3.6034 19.8207 3.82148 19.6705 3.99659L18.5109 5.34811C18.4245 5.44882 18.489 5.592 18.641 5.63686L19.6261 5.92756C19.8084 5.98135 19.8546 6.16815 19.7076 6.25696Z" fill="#D3D3D3"/>
<path d="M18.4802 16.7223L22.5682 17.273C22.802 17.3045 22.94 16.9985 22.7464 16.8779L21.3497 16.0071C21.2255 15.9296 21.2294 15.7491 21.3574 15.6564L21.8058 15.3317C21.9676 15.2145 21.9212 14.9774 21.7314 14.9518L17.4283 14.3722C17.1754 14.3381 17.0487 14.6864 17.2792 14.7823L18.9443 15.4748C19.0848 15.5332 19.1063 15.717 18.9852 15.8248L18.3864 16.3581C18.2461 16.483 18.3015 16.6982 18.4802 16.7223Z" fill="#D3D3D3"/>
</svg>
