<svg width="29" height="30" viewBox="0 0 29 30" fill="none" xmlns="http://www.w3.org/2000/svg">
<rect y="0.917969" width="28.1667" height="28.1667" rx="14.0833" fill="#E9E9EC"/>
<path d="M5.23128 17.1586C4.97035 15.3247 4.96777 13.9822 6.14762 13.4746C6.78793 13.1991 7.43563 13.4731 8.07774 12.8293C11.6203 8.3206 9.04586 11.2188 10.9762 9.93086C13.2713 8.39952 14.1747 10.1335 16.4924 10.191C18.8101 10.2486 19.3109 9.57715 20.6399 10.191C21.969 10.8049 21.9263 12.8302 21.2494 13.6082C22.8927 13.796 22.8268 17.0354 21.4775 17.1605C22.506 18.7523 21.6055 20.2369 20.6399 20.2377C20.9435 20.5772 20.8471 21.75 20.3177 22.4912C18.7802 24.6437 13.0296 23.6408 11.3919 22.7049C11.2534 22.6257 11.0997 22.573 10.9402 22.5728C7.38166 22.567 7.08326 22.3801 6.46932 21.2035C5.84143 20.0002 5.5064 19.0923 5.23128 17.1586Z" fill="#D3D3D3"/>
<path d="M21.2647 13.8064C20.4043 14.1211 19.688 14.1211 18.9717 14.1211" stroke="#ABABAB" stroke-width="1.08333" stroke-linecap="round" stroke-linejoin="round"/>
<path d="M20.5416 20.6641C19.6676 21.0168 18.9476 21.0494 18.2275 21.082" stroke="#ABABAB" stroke-width="1.08333" stroke-linecap="round" stroke-linejoin="round"/>
<path d="M21.601 17.345C20.4931 17.7406 19.6138 17.8643 18.7227 17.8633" stroke="#ABABAB" stroke-width="1.08333" stroke-linecap="round" stroke-linejoin="round"/>
<path d="M10.3435 6.74553C10.9131 8.58776 9.91016 10.1106 9.17873 11.4642C8.78529 12.1327 9.00173 12.947 9.21625 13.5114C9.24113 13.5768 9.27572 13.637 9.31916 13.6919C10.4997 15.1849 12.7285 17.4786 14.8159 11.9209C14.8286 11.8871 14.8393 11.8511 14.8463 11.8157C15.0089 10.9846 15.0116 9.40483 15.0222 8.53847C15.0857 3.22601 9.03964 2.52862 10.3435 6.74553Z" fill="#D3D3D3"/>
</svg>
