<svg width="26" height="26" viewBox="0 0 26 26" fill="none" xmlns="http://www.w3.org/2000/svg">
<rect width="26" height="26" rx="13" fill="#F4F4F4"/>
<path d="M5.87119 7.67455C5.95037 6.64522 6.5948 5.74509 7.5437 5.33841C11.028 3.84515 14.972 3.84515 18.4563 5.33841C19.4052 5.74509 20.0496 6.64522 20.1288 7.67455L20.789 16.2568C20.9028 17.7366 19.7328 19 18.2487 19H7.75128C6.26718 19 5.09719 17.7366 5.21101 16.2568L5.87119 7.67455Z" fill="#D3D3D3"/>
<path d="M8 19H11L8.29289 21.7071C8.10536 21.8946 7.851 22 7.58579 22H5.96569C5.60932 22 5.43086 21.5691 5.68284 21.3172L8 19Z" fill="#D3D3D3"/>
<path d="M18 19H15L17.7071 21.7071C17.8946 21.8946 18.149 22 18.4142 22H20.0343C20.3907 22 20.5691 21.5691 20.3172 21.3172L18 19Z" fill="#D3D3D3"/>
<path d="M7 9C7 7.89543 7.89543 7 9 7H17C18.1046 7 19 7.89543 19 9V11C19 11.5523 18.5523 12 18 12H8C7.44772 12 7 11.5523 7 11V9Z" fill="#ABABAB"/>
<rect x="10" y="16" width="6" height="2" rx="1" fill="#ABABAB"/>
<circle cx="8.3" cy="14.6984" r="1.3" fill="#ABABAB"/>
<circle cx="17.6984" cy="14.6984" r="1.3" fill="#ABABAB"/>
</svg>
