<svg width="44" height="44" viewBox="0 0 44 44" fill="none" xmlns="http://www.w3.org/2000/svg">
<rect x="11.4727" y="13.4922" width="18.8885" height="17.1713" rx="1.71713" fill="#9EBFFF"/>
<path d="M11.4727 15.2093C11.4727 14.261 12.2414 13.4922 13.1898 13.4922H28.644C29.5923 13.4922 30.3611 14.261 30.3611 15.2093V18.5094H11.4727V15.2093Z" fill="#669AFF"/>
<path d="M15.0527 15.3561V12.5892C15.0527 12.2336 15.341 11.9453 15.6967 11.9453C16.0523 11.9453 16.3406 12.2336 16.3406 12.5892V15.3561C16.3406 15.7117 16.0523 16 15.6967 16C15.341 16 15.0527 15.7117 15.0527 15.3561Z" fill="#2972FF"/>
<path d="M25.4929 15.3561V12.5892C25.4929 12.2336 25.7812 11.9453 26.1368 11.9453C26.4925 11.9453 26.7808 12.2336 26.7808 12.5892V15.3561C26.7808 15.7117 26.4925 16 26.1368 16C25.7812 16 25.4929 15.7117 25.4929 15.3561Z" fill="#2972FF"/>
<rect x="13.8337" y="20.5664" width="3.86355" height="3.00498" rx="0.429283" fill="#669AFF"/>
<rect x="13.8337" y="25.2891" width="3.86355" height="3.00498" rx="0.429283" fill="#669AFF"/>
<rect x="18.9851" y="20.5664" width="3.86355" height="3.00498" rx="0.429283" fill="#669AFF"/>
<rect x="18.9851" y="25.2891" width="3.86355" height="3.00498" rx="0.429283" fill="#669AFF"/>
<rect x="24.1365" y="20.5664" width="3.86355" height="3.00498" rx="0.429283" fill="#669AFF"/>
<rect x="24.1365" y="25.2891" width="3.86355" height="3.00498" rx="0.429283" fill="#669AFF"/>
<circle cx="30.4827" cy="27.0682" r="4.53251" fill="#FFE6B6" stroke="#FBA907" stroke-width="0.915081"/>
<path d="M30.5051 30.0486C30.4017 30.0486 30.3178 29.9647 30.3178 29.8613V29.5253C29.3752 29.4724 28.7681 28.9911 28.6957 28.1795C28.6911 28.1278 28.7328 28.0846 28.7847 28.0846H29.3481C29.4434 28.0846 29.5201 28.1588 29.5469 28.2501C29.6428 28.5761 29.9357 28.7603 30.3178 28.8049V27.4192L30.0593 27.3545C29.2905 27.1543 28.8124 26.7666 28.8124 26.0947C28.8124 25.3291 29.4424 24.7994 30.3178 24.7283V24.3827C30.3178 24.2792 30.4017 24.1953 30.5051 24.1953V24.1953C30.6086 24.1953 30.6925 24.2792 30.6925 24.3827V24.7251C31.5558 24.7777 32.1464 25.2779 32.206 25.9758C32.2103 26.0268 32.1688 26.0689 32.1176 26.0689H31.5688C31.4748 26.0689 31.399 25.9962 31.3682 25.9073C31.2774 25.6462 31.0338 25.4834 30.6925 25.4454V26.7505L30.9057 26.8054C31.6034 26.9669 32.2753 27.3352 32.2753 28.1492C32.2753 28.9212 31.6971 29.4672 30.6925 29.5253V29.8613C30.6925 29.9647 30.6086 30.0486 30.5051 30.0486V30.0486ZM29.6652 26.043C29.662 26.3855 29.9786 26.5534 30.3178 26.6503V25.4487C29.9075 25.5036 29.6685 25.7362 29.6652 26.043ZM30.6925 28.8017C31.1383 28.7436 31.4322 28.4948 31.4355 28.1427C31.4322 27.8003 31.1415 27.642 30.6925 27.5161V28.8017Z" fill="#FFB92E"/>
</svg>
