<svg width="44" height="44" viewBox="0 0 44 44" fill="none" xmlns="http://www.w3.org/2000/svg">
<path d="M28.9355 8.92188H13.9744C13.0756 8.92188 12.3469 9.65051 12.3469 10.5493V35.0757H30.6546L30.563 10.5433C30.5596 9.64682 29.832 8.92188 28.9355 8.92188Z" fill="#669AFF"/>
<path d="M26.6585 7.61719H16.2686C15.5464 7.61719 14.9609 8.20266 14.9609 8.92488H28.0379C27.9987 8.19166 27.3928 7.61719 26.6585 7.61719Z" fill="#5189F7"/>
<path d="M23.4592 28.5411L19.5361 28.5534C19.1758 28.5545 18.8843 28.8469 18.8843 29.2072V32.4458L24.115 32.4621V29.195C24.115 28.833 23.8211 28.54 23.4592 28.5411Z" fill="#98BBFF"/>
<path d="M19.0106 16.7734L17.18 16.781C16.676 16.7831 16.2686 17.1923 16.2686 17.6963V19.504C16.2686 20.008 16.676 20.4172 17.18 20.4193L19.0106 20.4269C19.5176 20.429 19.9297 20.0186 19.9297 19.5116V17.6886C19.9297 17.1817 19.5176 16.7712 19.0106 16.7734Z" fill="#FBA907"/>
<path d="M19.0106 22.0038L17.18 22.0115C16.676 22.0136 16.2686 22.4227 16.2686 22.9267V24.7344C16.2686 25.2385 16.676 25.6476 17.18 25.6497L19.0106 25.6574C19.5176 25.6595 19.9297 25.2491 19.9297 24.7421V22.9191C19.9297 22.4121 19.5176 22.0017 19.0106 22.0038Z" fill="#FBA907"/>
<path d="M25.8099 16.7734L23.9794 16.781C23.4753 16.7831 23.0679 17.1923 23.0679 17.6963V19.504C23.0679 20.008 23.4753 20.4172 23.9794 20.4193L25.8099 20.4269C26.3169 20.429 26.7291 20.0186 26.7291 19.5116V17.6886C26.7291 17.1817 26.3169 16.7712 25.8099 16.7734Z" fill="#FBA907"/>
<path d="M19.0106 11.5429L17.18 11.5505C16.676 11.5526 16.2686 11.9618 16.2686 12.4658V14.2735C16.2686 14.7775 16.676 15.1867 17.18 15.1888L19.0106 15.1964C19.5176 15.1985 19.9297 14.7881 19.9297 14.2811V12.4582C19.9297 11.9512 19.5176 11.5408 19.0106 11.5429Z" fill="#FBA907"/>
<path d="M25.8099 22.0038L23.9794 22.0115C23.4753 22.0136 23.0679 22.4227 23.0679 22.9267V24.7344C23.0679 25.2385 23.4753 25.6476 23.9794 25.6497L25.8099 25.6574C26.3169 25.6595 26.7291 25.2491 26.7291 24.7421V22.9191C26.7291 22.4121 26.3169 22.0017 25.8099 22.0038Z" fill="#FBA907"/>
<path d="M25.8099 11.5429L23.9794 11.5505C23.4753 11.5526 23.0679 11.9618 23.0679 12.4658V14.2735C23.0679 14.7775 23.4753 15.1867 23.9794 15.1888L25.8099 15.1964C26.3169 15.1985 26.7291 14.7881 26.7291 14.2811V12.4582C26.7291 11.9512 26.3169 11.5408 25.8099 11.5429Z" fill="#FBA907"/>
<rect x="11.0391" y="32.4609" width="20.9231" height="2.61538" rx="1.30769" fill="#5189F7"/>
</svg>
