<svg width="44" height="44" viewBox="0 0 44 44" fill="none" xmlns="http://www.w3.org/2000/svg">
<path d="M15.4059 9.18634C14.5202 10.4048 16.9971 12.5657 18.5814 14.2956C19 14.7528 18.8376 15.4542 18.2991 15.7612C15.0793 17.597 9.5 21.823 9.5 27.8406C9.5 31.9452 14.0934 35 21.9677 35C30.4982 35 35.1084 31.2662 34.4353 26.637C33.525 20.3752 28.9308 16.9797 25.872 15.665C25.2515 15.3984 24.9733 14.633 25.3469 14.0705C26.6217 12.1506 28.085 9.77832 27.2172 8.58454C25.9048 6.77914 25.2486 9.78814 23.9363 9.18634C22.6239 8.58454 20.6553 7.98274 19.3429 9.78814C18.0305 11.5935 16.7183 7.38094 15.4059 9.18634Z" fill="#669AFF"/>
<path d="M24 16.5C25.1667 19 27 22 27 27.5" stroke="#FBA907" stroke-width="2" stroke-linecap="round" stroke-linejoin="round"/>
<path d="M25.6869 16.2711C22.6303 17.5417 19.7042 16.9066 18.1259 16.2072C17.7465 16.0391 17.5778 15.6104 17.6899 15.2109C17.8577 14.6122 18.5615 14.3534 19.1268 14.6124C20.0841 15.0509 20.9583 15.2075 21.7353 15.2587C22.8503 15.3321 23.7653 15.1009 24.4386 14.7597C24.9848 14.483 25.7611 14.5705 26.0606 15.1045C26.3015 15.534 26.1416 16.0821 25.6869 16.2711Z" fill="#FBA907"/>
</svg>
