<svg width="44" height="44" viewBox="0 0 44 44" fill="none" xmlns="http://www.w3.org/2000/svg">
<rect x="11.5005" y="11.1719" width="20" height="23.3333" rx="1.38889" fill="#669AFF"/>
<path d="M29.2194 20.7318L26.0221 31.7156C25.8089 32.4483 25.0444 32.8717 24.3102 32.6637L14.4186 29.8625" stroke="#4786FF" stroke-width="2.77778" stroke-linecap="round"/>
<rect x="14.1777" y="9.19531" width="17.5631" height="19.7809" rx="1.38889" transform="rotate(16 14.1777 9.19531)" fill="#D2E1FF"/>
<path d="M16.9004 15.9609L24.9109 18.2579" stroke="#FBA907" stroke-width="1.66667" stroke-linecap="round"/>
<path d="M15.9817 19.1641L23.9922 21.461" stroke="#FBA907" stroke-width="1.66667" stroke-linecap="round"/>
<path d="M15.0627 22.3711L23.0733 24.6681" stroke="#FBA907" stroke-width="1.66667" stroke-linecap="round"/>
<path d="M22.2043 7.8291C22.9712 7.82933 23.593 8.45085 23.593 9.21777V9.51367H24.593C25.6965 9.51367 26.5911 10.4082 26.5911 11.5117C26.5908 12.0633 26.1436 12.5107 25.592 12.5107H18.5989C18.0474 12.5106 17.6001 12.0632 17.5999 11.5117C17.5999 10.4083 18.4945 9.51382 19.5979 9.51367H20.5959V9.21777C20.5959 8.45071 21.2176 7.8291 21.9846 7.8291H22.2043Z" fill="#FBA907"/>
</svg>
