<svg width="44" height="44" viewBox="0 0 44 44" fill="none" xmlns="http://www.w3.org/2000/svg">
<path d="M11.5 24L16.2826 19.8261L19.7609 22.9565L23.6739 16.1739L25.8478 18.2609L31.5 12" stroke="#FBA907" stroke-width="2" stroke-linecap="round" stroke-linejoin="round"/>
<path d="M10.5 10C11.0523 10 11.5 10.4477 11.5 11V31C11.5 31.5523 11.9477 32 12.5 32H32.5C33.0523 32 33.5 32.4477 33.5 33V33C33.5 33.5523 33.0523 34 32.5 34H10.5C9.94772 34 9.5 33.5523 9.5 33V11C9.5 10.4477 9.94772 10 10.5 10V10Z" fill="#4D89FF"/>
<path d="M16.5 26C16.5 25.4477 16.9477 25 17.5 25H21.5C22.0523 25 22.5 25.4477 22.5 26V32H16.5V26Z" fill="#669AFF"/>
<path d="M24.5 22C24.5 21.4477 24.9477 21 25.5 21H29.5C30.0523 21 30.5 21.4477 30.5 22V32H24.5V22Z" fill="#669AFF"/>
</svg>
