<svg width="44" height="44" viewBox="0 0 44 44" fill="none" xmlns="http://www.w3.org/2000/svg">
<path d="M21.7747 10.0301C21.9221 9.98996 22.0777 9.98996 22.2251 10.0301L31.6537 12.6016C32.0266 12.7033 32.2857 13.042 32.2857 13.4286V23.9295C32.2856 26.7525 30.7435 29.3503 28.2653 30.7021L22.41 33.8955C22.1543 34.0348 21.8454 34.0348 21.5897 33.8955L15.7345 30.7021C13.2562 29.3503 11.7141 26.7525 11.7141 23.9295V13.4286C11.7141 13.042 11.9732 12.7033 12.3461 12.6016L21.7747 10.0301Z" fill="#669AFF"/>
<path d="M21.9995 14.1484C23.9571 14.1485 25.5443 15.7356 25.5443 17.6932V18.9561C26.4551 19.1501 27.139 19.9582 27.139 20.9269V25.8468C27.139 26.96 26.2362 27.8625 25.123 27.8628H18.8761C17.7629 27.8625 16.8601 26.96 16.8601 25.8468V20.9269C16.8601 19.9582 17.544 19.1501 18.4548 18.9561V17.6932C18.4548 15.7355 20.0419 14.1484 21.9995 14.1484ZM21.9986 21.6967C21.3668 21.6967 20.8547 22.2088 20.8547 22.8405C20.8547 23.25 21.0707 23.608 21.3942 23.8101V25.0416C21.3942 25.3756 21.6645 25.646 21.9986 25.646C22.3326 25.646 22.603 25.3756 22.603 25.0416V23.8101C22.9265 23.608 23.1424 23.25 23.1424 22.8405C23.1424 22.2088 22.6303 21.6967 21.9986 21.6967ZM21.9995 15.6604C20.877 15.6604 19.9668 16.5706 19.9668 17.6932V18.9109H24.0323V17.6932C24.0323 16.5706 23.1221 15.6605 21.9995 15.6604Z" fill="#FFB92D"/>
</svg>
