<svg width="44" height="44" viewBox="0 0 44 44" fill="none" xmlns="http://www.w3.org/2000/svg">
<path d="M20.1938 15.818C21.2614 15.818 22.418 15.5956 22.8629 15.4844L22.1956 18.1534C21.0835 17.3749 19.1262 15.818 20.1938 15.818Z" fill="#669AFF"/>
<path d="M29.8678 27.4941C29.2944 27.3029 28.8007 26.8722 28.4851 26.5205C28.2999 26.3142 28.3063 26.0104 28.4674 25.7848L28.9981 25.0418C29.3337 24.572 30.0587 24.7233 30.1468 25.294C30.3232 26.4367 30.3994 27.6713 29.8678 27.4941Z" fill="#669AFF"/>
<path d="M9.65714 19.6732C10.0143 18.141 10.8735 16.7809 12.597 17.643C13.1616 17.9255 13.7045 17.5071 13.9231 17.2884C16.5492 14.6602 18.5175 14.6664 20.8147 15.6497C23.1119 16.6329 24.4246 21.593 25.7373 23.2318C26.4884 24.1695 27.5082 24.5815 28.2682 24.6202C28.6735 24.6408 29.144 24.843 29.2006 25.2448C29.5164 27.4847 27.1885 27.6466 26.3938 27.4482C26.1313 29.0214 24.4248 28.9777 23.4403 28.7592C22.8088 30.4943 21.0291 29.4927 20.8149 29.4147C20.2899 29.9391 20.3525 30.2303 19.1739 30.3984C17.3397 30.6601 15.2206 28.2535 14.1433 26.7747C14.0045 26.5842 13.7782 26.4776 13.5426 26.4857C10.2066 26.5998 9.65738 24.8824 9.65714 23.9343C9.65714 22.9513 9.20909 21.5954 9.65714 19.6732Z" fill="#FBA907"/>
<path d="M18.5312 20.1547C19.7637 19.4153 21.5338 17.0409 22.2011 15.8176C22.5334 15.1514 23.328 14.9247 23.8679 14.8167C27.2042 14.1494 28.2051 16.8185 29.5396 17.8193C30.8741 18.8202 31.6045 16.863 33.5431 17.8193C34.9004 18.4889 34.8776 23.1573 34.2103 25.8264C33.748 27.6758 31.3334 28.3246 29.6113 27.3812C29.2119 27.1624 29.2761 26.5324 29.3784 26.0886C29.4458 25.7961 29.4374 25.4795 29.3712 25.2374C29.3111 25.0173 29.0707 24.9509 28.8436 24.9725C27.1073 25.1376 25.8333 23.6403 25.2176 22.0682C25.0197 21.5629 24.3029 21.3201 23.8688 21.6459C23.2724 22.0935 22.5962 22.5601 22.2011 22.8237C18.1975 25.4927 16.8609 21.1567 18.5312 20.1547Z" fill="#669AFF"/>
<path d="M24.8647 21.4922C24.976 22.6043 26.8665 25.1621 28.8683 24.8284" stroke="#4081FF" stroke-width="1.1292" stroke-linecap="round" stroke-linejoin="round"/>
<path d="M26.2034 27.4939C25.5115 27.3986 24.0089 26.8648 23.5344 25.4922" stroke="#FFEFCF" stroke-width="0.677518" stroke-linecap="round" stroke-linejoin="round"/>
<path d="M23.5289 28.8338C22.8369 28.7385 21.3344 28.2047 20.8599 26.832" stroke="#FFEFCF" stroke-width="0.677518" stroke-linecap="round" stroke-linejoin="round"/>
<path d="M20.8614 29.4979C20.1694 29.4025 18.6669 28.8687 18.1924 27.4961" stroke="#FFEFCF" stroke-width="0.677518" stroke-linecap="round" stroke-linejoin="round"/>
</svg>
