<svg width="44" height="44" viewBox="0 0 44 44" fill="none" xmlns="http://www.w3.org/2000/svg">
<rect x="12" y="10" width="20" height="24" rx="2" fill="#669AFF"/>
<path d="M28.3945 22.0234C28.8087 22.0234 29.1445 22.3592 29.1445 22.7734C29.1445 23.1877 28.8087 23.5234 28.3945 23.5234H15.6055C15.1913 23.5234 14.8555 23.1877 14.8555 22.7734C14.8555 22.3592 15.1913 22.0234 15.6055 22.0234H28.3945Z" fill="white"/>
<path d="M28.3945 26.0234C28.8087 26.0234 29.1445 26.3592 29.1445 26.7734C29.1445 27.1877 28.8087 27.5234 28.3945 27.5234H15.6055C15.1913 27.5234 14.8555 27.1877 14.8555 26.7734C14.8555 26.3592 15.1913 26.0234 15.6055 26.0234H28.3945Z" fill="white"/>
<path d="M22 30.0234C22.4142 30.0234 22.75 30.3592 22.75 30.7734C22.75 31.1877 22.4142 31.5234 22 31.5234H15.6055C15.1913 31.5234 14.8555 31.1877 14.8555 30.7734C14.8555 30.3592 15.1913 30.0234 15.6055 30.0234H22Z" fill="white"/>
<path d="M25.0813 13.2694C25.4719 12.8791 26.105 12.8788 26.4953 13.2694C26.8857 13.6601 26.885 14.2931 26.4944 14.6835L22.5949 18.581C22.4036 18.772 22.1426 18.8772 21.8723 18.8729C21.6019 18.8686 21.3446 18.7546 21.1594 18.5575L18.8879 16.1395C18.5098 15.7371 18.5294 15.1046 18.9319 14.7265C19.3343 14.3484 19.9668 14.3681 20.3449 14.7704L21.9104 16.4364L25.0813 13.2694Z" fill="#FBA907"/>
</svg>
