<svg width="44" height="44" viewBox="0 0 44 44" fill="none" xmlns="http://www.w3.org/2000/svg">
<path d="M28.3514 8.09472C28.3803 7.90463 28.6542 7.90463 28.6831 8.09472V8.09472C28.8322 9.07463 29.5743 9.85883 30.5445 10.0617V10.0617C30.7046 10.0951 30.7046 10.3237 30.5445 10.3572V10.3572C29.5743 10.56 28.8322 11.3442 28.6831 12.3241V12.3241C28.6542 12.5142 28.3803 12.5142 28.3514 12.3241V12.3241C28.2023 11.3442 27.4602 10.56 26.49 10.3572V10.3572C26.33 10.3237 26.33 10.0951 26.49 10.0617V10.0617C27.4602 9.85883 28.2023 9.07463 28.3514 8.09472V8.09472Z" fill="#669AFF"/>
<path d="M12.9974 14.1264C13.0357 13.8743 13.399 13.8743 13.4374 14.1264V14.1264C13.635 15.426 14.6192 16.4661 15.906 16.7351V16.7351C16.1183 16.7794 16.1183 17.0826 15.906 17.127V17.127C14.6192 17.396 13.635 18.4361 13.4374 19.7357V19.7357C13.399 19.9878 13.0357 19.9878 12.9974 19.7357V19.7357C12.7997 18.4361 11.8155 17.396 10.5288 17.127V17.127C10.3164 17.0826 10.3164 16.7794 10.5288 16.7351V16.7351C11.8155 16.4661 12.7997 15.426 12.9974 14.1264V14.1264Z" fill="#669AFF"/>
<path d="M19.276 25.207C14.5415 26.2967 15.9869 32.1562 17.4726 35.365C17.6085 35.6587 17.9055 35.8383 18.2291 35.8383H29.0204C29.325 35.8383 29.476 35.4748 29.265 35.2552C28.2348 34.1833 26.7726 32.3962 26.7726 29.8022C26.7726 26.6617 24.9704 25.4736 24.2367 25.207H19.276Z" fill="#FFC758"/>
<rect x="19.8198" y="8.16016" width="3.50216" height="16.9678" rx="1.75108" fill="#FFC758"/>
<rect x="17.6797" y="23.2344" width="7.78258" height="2.45049" rx="1.22524" fill="#FBA907"/>
<path d="M21.6042 31.3086C21.621 32.441 21.9112 34.8921 22.9379 35.6369" stroke="#FBA907" stroke-width="0.514693" stroke-linecap="round"/>
<path d="M18.9641 31.3086C18.9809 32.441 19.2711 34.8921 20.2978 35.6369" stroke="#FBA907" stroke-width="0.514693" stroke-linecap="round"/>
<path d="M24.5202 31.2461C24.4913 32.2681 24.9857 34.512 27.0482 35.7028" stroke="#FBA907" stroke-width="0.514693" stroke-linecap="round"/>
<circle cx="27.3315" cy="20.2639" r="0.920148" fill="#669AFF"/>
</svg>
