<svg width="26" height="26" viewBox="0 0 26 26" fill="none" xmlns="http://www.w3.org/2000/svg">
<rect width="26" height="26" rx="13" fill="white"/>
<path d="M12.1156 5.67634C12.4908 4.96519 13.5092 4.96519 13.8844 5.67634L15.5214 8.77891C15.6661 9.05316 15.9298 9.24477 16.2353 9.29763L19.6919 9.89571C20.4842 10.0328 20.7989 11.0014 20.2385 11.578L17.7936 14.0936C17.5775 14.316 17.4768 14.626 17.5209 14.9329L18.0203 18.4051C18.1347 19.201 17.3108 19.7996 16.5892 19.4448L13.4412 17.897C13.163 17.7601 12.837 17.7601 12.5588 17.897L9.4108 19.4448C8.68925 19.7996 7.86527 19.201 7.97973 18.4051L8.47906 14.9329C8.5232 14.626 8.42247 14.316 8.20636 14.0936L5.76148 11.578C5.20108 11.0014 5.51581 10.0328 6.30809 9.89571L9.76466 9.29763C10.0702 9.24477 10.3339 9.05316 10.4786 8.77891L12.1156 5.67634Z" fill="#FBA907"/>
</svg>
