<svg width="26" height="26" viewBox="0 0 26 26" fill="none" xmlns="http://www.w3.org/2000/svg">
<rect width="26" height="26" rx="13" fill="#E9E9EC"/>
<path d="M17.4899 6.25263L6.90335 6.30041C6.11 6.304 5.46875 6.94814 5.46875 7.7415V19.3418C5.46875 20.1352 6.11 20.7793 6.90335 20.7829L17.4899 20.8307C18.2883 20.8343 18.9375 20.1881 18.9375 19.3896V7.69371C18.9375 6.89527 18.2883 6.24902 17.4899 6.25263Z" fill="#D1D1D1"/>
<path d="M18.4536 4.99263L10.1118 4.15845C9.26348 4.07361 8.52734 4.73981 8.52734 5.5924V21.4883C8.52734 22.3409 9.26348 23.0071 10.1118 22.9223L18.4536 22.0881C19.1903 22.0144 19.7513 21.3945 19.7513 20.6542V6.42657C19.7513 5.68621 19.1903 5.06629 18.4536 4.99263Z" fill="#B3B3B3"/>
<circle cx="10.7708" cy="12.9818" r="1.1224" fill="white"/>
</svg>
