<svg width="26" height="26" viewBox="0 0 26 26" fill="none" xmlns="http://www.w3.org/2000/svg">
<rect width="26" height="26" rx="13" fill="#E9E9EC"/>
<path d="M18.6854 3H7.24453C6.5572 3 6 3.5572 6 4.24453V23H20L19.9299 4.23988C19.9274 3.55437 19.3709 3 18.6854 3Z" fill="#D1D1D1"/>
<path d="M16.9452 2H9C8.44772 2 8 2.44772 8 3H18C17.9701 2.4393 17.5067 2 16.9452 2Z" fill="#B3B3B3"/>
<path d="M14.4984 18.0016L11.4984 18.0109C11.2229 18.0118 11 18.2354 11 18.5109V20.9875L15 21V18.5016C15 18.2248 14.7752 18.0007 14.4984 18.0016Z" fill="white"/>
<path d="M11.0969 9.00293L9.69702 9.00876C9.3116 9.01037 9 9.32326 9 9.70869V11.091C9 11.4765 9.3116 11.7894 9.69702 11.791L11.0969 11.7968C11.4846 11.7984 11.7997 11.4846 11.7997 11.0969V9.70285C11.7997 9.31515 11.4846 9.00131 11.0969 9.00293Z" fill="white"/>
<path d="M11.0969 13.0029L9.69702 13.0088C9.3116 13.0104 9 13.3233 9 13.7087V15.091C9 15.4765 9.3116 15.7894 9.69702 15.791L11.0969 15.7968C11.4846 15.7984 11.7997 15.4846 11.7997 15.0969V13.7029C11.7997 13.3152 11.4846 13.0013 11.0969 13.0029Z" fill="white"/>
<path d="M16.2961 9.00293L14.8962 9.00876C14.5108 9.01037 14.1992 9.32326 14.1992 9.70869V11.091C14.1992 11.4765 14.5108 11.7894 14.8962 11.791L16.2961 11.7968C16.6838 11.7984 16.9989 11.4846 16.9989 11.0969V9.70285C16.9989 9.31515 16.6838 9.00131 16.2961 9.00293Z" fill="white"/>
<path d="M11.0969 5.00293L9.69702 5.00876C9.3116 5.01037 9 5.32326 9 5.70869V7.09104C9 7.47646 9.3116 7.78936 9.69702 7.79097L11.0969 7.7968C11.4846 7.79841 11.7997 7.48457 11.7997 7.09687V5.70285C11.7997 5.31515 11.4846 5.00131 11.0969 5.00293Z" fill="white"/>
<path d="M16.2961 13.0029L14.8962 13.0088C14.5108 13.0104 14.1992 13.3233 14.1992 13.7087V15.091C14.1992 15.4765 14.5108 15.7894 14.8962 15.791L16.2961 15.7968C16.6838 15.7984 16.9989 15.4846 16.9989 15.0969V13.7029C16.9989 13.3152 16.6838 13.0013 16.2961 13.0029Z" fill="white"/>
<path d="M16.2961 5.00293L14.8962 5.00876C14.5108 5.01037 14.1992 5.32326 14.1992 5.70869V7.09104C14.1992 7.47646 14.5108 7.78936 14.8962 7.79097L16.2961 7.7968C16.6838 7.79841 16.9989 7.48457 16.9989 7.09687V5.70285C16.9989 5.31515 16.6838 5.00131 16.2961 5.00293Z" fill="white"/>
<rect x="5" y="21" width="16" height="2" rx="1" fill="#B3B3B3"/>
</svg>
