<svg width="26" height="26" viewBox="0 0 26 26" fill="none" xmlns="http://www.w3.org/2000/svg">
<rect width="26" height="26" rx="13" fill="white"/>
<path d="M18.0116 5.06968L8.0116 5.01167C6.90252 5.00524 6 5.90253 6 7.01164V18.9884C6 20.0975 6.90252 20.9948 8.0116 20.9883L18.0116 20.9303C19.1116 20.9239 20 20.0304 20 18.9303V7.06965C20 5.96961 19.1116 5.07606 18.0116 5.06968Z" fill="#A2C2FF"/>
<path d="M6.00195 13.5L12.6475 6.87427C13.3303 6.1936 12.8482 5.02734 11.8841 5.02734C11.6357 5.02734 11.3948 5.11293 11.202 5.26971L6.51369 9.08226C6.1887 9.34655 6.00012 9.74322 6.00032 10.1621L6.00195 13.5Z" fill="#E8F1FF"/>
<path d="M7.85165 20.9992L12.6099 20.9998C13.1525 20.9999 13.6457 20.6844 13.873 20.1917L19.3709 8.27741C19.4552 8.09469 19.4989 7.89585 19.4989 7.69461L19.4989 6.34318C19.4989 5.60076 18.897 4.9989 18.1546 4.9989C17.7408 4.9989 17.35 5.18951 17.0952 5.51565L6.75569 18.752C6.04238 19.6651 6.69291 20.999 7.85165 20.9992Z" fill="#E8F1FF"/>
<path d="M20.0102 4.00952L6 4.00063C5.44782 4.00028 5 4.44782 5 5C5 5.55218 5.44782 5.99972 6 5.99937L20.0102 5.99048C20.5569 5.99013 21 5.54678 21 5C21 4.45322 20.5569 4.00987 20.0102 4.00952Z" fill="#5189F7"/>
<path d="M20.0102 20.0095L6 20.0006C5.44782 20.0003 5 20.4478 5 21C5 21.5522 5.44782 21.9997 6 21.9994L20.0102 21.9905C20.5569 21.9901 21 21.5468 21 21C21 20.4532 20.5569 20.0099 20.0102 20.0095Z" fill="#5189F7"/>
<path d="M20.0102 12.0095L6 12.0006C5.44782 12.0003 5 12.4478 5 13C5 13.5522 5.44782 13.9997 6 13.9994L20.0102 13.9905C20.5569 13.9901 21 13.5468 21 13C21 12.4532 20.5569 12.0099 20.0102 12.0095Z" fill="#5189F7"/>
<path d="M13.9905 20.0102L13.9994 6C13.9997 5.44782 13.5522 5 13 5C12.4478 5 12.0003 5.44782 12.0006 6L12.0095 20.0102C12.0099 20.5569 12.4532 21 13 21C13.5468 21 13.9901 20.5569 13.9905 20.0102Z" fill="#5189F7"/>
<path d="M6.99041 21.0102L6.99944 5C6.99975 4.44781 6.55219 4 6 4C5.44781 4 5.00025 4.44781 5.00056 5L5.00959 21.0102C5.0099 21.5569 5.45323 22 6 22C6.54677 22 6.9901 21.5569 6.99041 21.0102Z" fill="#5189F7"/>
<path d="M20.9904 21.0102L20.9994 5C20.9997 4.44781 20.5522 4 20 4C19.4478 4 19.0003 4.44781 19.0006 5L19.0096 21.0102C19.0099 21.5569 19.4532 22 20 22C20.5468 22 20.9901 21.5569 20.9904 21.0102Z" fill="#5189F7"/>
</svg>
