<svg width="118" height="134" viewBox="0 0 118 134" fill="none" xmlns="http://www.w3.org/2000/svg">
<path d="M58 124C62.5 110 72.8 81.6 78 80" stroke="#7AA7FF" stroke-width="6" stroke-linecap="square"/>
<path d="M44.5 58.1016C47.625 60.3056 57 109.53 56.4791 130.102" stroke="#7AA7FF" stroke-width="6" stroke-linecap="square"/>
<path d="M48.3343 59.7153C42.9903 62.6373 15.1235 67.7105 11.7977 56.5489C9.82167 49.9174 24.4 48.2811 31.9361 48.2918C26.3023 47.713 13.4486 45.404 12.145 34.962C11.1946 27.3481 21.5103 26.575 26.3776 29.6373C21.618 25.0402 16.0263 15.7544 21.1301 12.0267C29.2417 6.10212 33.7513 20.2546 35.3979 25.7809C35.682 22.3101 39.3638 14.4418 44.8058 15.6406C52.2476 17.2801 52.0612 31.5368 50.6254 38.3599C52.6764 32.9483 58.9845 25.3516 65.1147 28.8121C76.0092 34.962 55.1358 55.9964 48.3343 59.7153Z" fill="#7AA7FF"/>
<path d="M69.4973 87.5253C65.615 84.7894 56.0013 65.6838 62.4284 59.7425C66.3906 56.0798 71.8689 63.5043 74.4521 68.7827C72.9205 64.6404 70.7965 57.0668 77.657 52.5648C82.6594 49.282 86.7468 54.3274 86.2766 58.7869C87.858 53.8751 92.4353 48.6781 96.7988 50.9691C102.97 54.2094 98.2424 60.7224 94.9405 63.7747C97.4674 62.7804 101.377 64.5616 102.408 68.7827C103.818 74.5503 93.7926 79.3179 88.5199 80.6629C92.9497 80.2469 100.178 82.0481 100.171 87.5253C100.16 96.1597 74.4384 91.0074 69.4973 87.5253Z" fill="#7AA7FF"/>
</svg>
