<svg width="268" height="297" viewBox="0 0 268 297" fill="none" xmlns="http://www.w3.org/2000/svg">
<path d="M0 120.458C0 114.503 2.65313 108.859 7.23767 105.059L125.066 7.40409C130.248 3.10963 137.752 3.10963 142.934 7.40409L260.762 105.059C265.347 108.859 268 114.503 268 120.458V283C268 290.732 261.732 297 254 297H14C6.26802 297 0 290.732 0 283V120.458Z" fill="#BFD5FF"/>
<rect width="13" height="95" rx="4" transform="matrix(-1 0 0 1 25 191)" fill="#669AFF"/>
<rect width="13" height="29" rx="4" transform="matrix(-1 0 0 1 25 257)" fill="#669AFF"/>
<rect width="13" height="35" rx="4" transform="matrix(-1 0 0 1 170 251)" fill="#669AFF"/>
<rect width="158" height="24" rx="4" transform="matrix(-1 0 0 1 170 240)" fill="#669AFF"/>
<path d="M165 238C165 226.954 156.046 218 145 218H73C68.5817 218 65 221.582 65 226V240H165V238Z" fill="white"/>
<path d="M65 226C65 221.582 61.4183 218 57 218H25V240H65V226Z" fill="white"/>
<path d="M198.504 249.944C198.534 247.757 200.316 246 202.503 246H231.497C233.684 246 235.466 247.757 235.496 249.944L235.943 281.944C235.974 284.175 234.175 286 231.944 286H202.056C199.825 286 198.025 284.175 198.057 281.944L198.504 249.944Z" fill="#88B1FF"/>
<mask id="path-9-inside-1_2443_29153" fill="white">
<rect x="52" y="113" width="96" height="68" rx="4"/>
</mask>
<rect x="52" y="113" width="96" height="68" rx="4" stroke="#9CBEFF" stroke-width="12" mask="url(#path-9-inside-1_2443_29153)"/>
<path d="M135 169H98C97.4477 169 97 168.552 97 168V160.486C97 159.933 97.4477 159.486 98 159.486H105.75C106.302 159.486 106.75 159.038 106.75 158.486V151.311C106.75 150.759 107.198 150.311 107.75 150.311H115.5C116.052 150.311 116.5 149.864 116.5 149.311V142.137C116.5 141.584 116.948 141.137 117.5 141.137H125.25C125.802 141.137 126.25 140.689 126.25 140.137V133C126.25 132.448 126.698 132 127.25 132H135C135.552 132 136 132.448 136 133V168C136 168.552 135.552 169 135 169Z" fill="#9CBEFF"/>
<path d="M64 144C64 138.477 68.4772 134 74 134C79.5228 134 84 138.477 84 144V159.47C84 160.315 83.3151 161 82.4703 161H65.5297C64.6849 161 64 160.315 64 159.47V144Z" fill="#9CBEFF"/>
<circle cx="95.5" cy="131.5" r="6.5" fill="#9CBEFF"/>
</svg>
