<svg width="95" height="92" viewBox="0 0 95 92" fill="none" xmlns="http://www.w3.org/2000/svg">
<g opacity="0.6">
<rect x="18.2734" y="15.2617" width="71.3792" height="83.2757" rx="4.95689" fill="#F38B14"/>
<path d="M81.5078 49.403L70.0969 88.6037C69.3357 91.2187 66.6074 92.7297 63.9869 91.9876L28.6845 81.9901" stroke="#DF7E10" stroke-width="9.91378" stroke-linecap="round"/>
<rect x="27.8359" y="8.22266" width="62.6822" height="70.5973" rx="4.95689" transform="rotate(16 27.8359 8.22266)" fill="white"/>
<path d="M37.543 32.375L66.1322 40.5728" stroke="#FBA907" stroke-width="5.94827" stroke-linecap="round"/>
<path d="M34.2656 43.8125L62.8548 52.0103" stroke="#FBA907" stroke-width="5.94827" stroke-linecap="round"/>
<path d="M30.9844 55.2461L59.5736 63.4439" stroke="#FBA907" stroke-width="5.94827" stroke-linecap="round"/>
<path d="M56.4746 3.36719C59.2122 3.36726 61.4316 5.58665 61.4316 8.32422V9.38672L65.0059 9.38672C68.9442 9.38672 72.1367 12.5792 72.1367 16.5176C72.1367 18.4867 70.5405 20.083 68.5713 20.083H43.6123C41.6433 20.0828 40.0469 18.4866 40.0469 16.5176C40.0469 12.5792 43.2403 9.38672 47.1787 9.38672H50.7344V8.32422C50.7344 5.5867 52.9539 3.36735 55.6914 3.36719H56.4746Z" fill="#FFDFA1"/>
</g>
</svg>
