<svg width="164" height="134" viewBox="0 0 164 134" fill="none" xmlns="http://www.w3.org/2000/svg">
<rect x="-27" y="51" width="203" height="84" fill="#4C89FF"/>
<path opacity="0.2" d="M128.712 52.9883C128.993 53.113 129.303 53.1544 129.606 53.1075L140.228 51.4676C141.104 51.3323 141.923 51.9353 142.054 52.8121L143.4 61.8049C143.424 61.9659 143.313 62.116 143.152 62.1401C142.826 62.1892 142.814 62.6551 143.137 62.7207L183.782 70.9672C184.867 71.1873 185.406 72.4166 184.833 73.3638L183.325 75.8539C182.952 76.4705 182.213 76.7614 181.519 76.5645L128.607 61.5369C128.367 61.4687 128.114 61.4576 127.869 61.5045L9.77454 84.1075C8.66637 84.3196 8.70296 85.9183 9.81969 86.0794L86.3504 97.1229C86.5093 97.1459 86.6708 97.1448 86.8293 97.1196L193.688 80.1823C194.49 80.0551 195.261 80.55 195.479 81.3329L196.515 85.046C196.773 85.9713 196.163 86.9138 195.213 87.0576L113.956 99.3649C112.812 99.5381 112.826 101.192 113.973 101.345L174.041 109.362C175.228 109.521 175.826 110.879 175.143 111.862L169.361 120.175C169.01 120.679 168.402 120.938 167.795 120.841L84.8022 107.554C84.6199 107.525 84.434 107.528 84.2526 107.562L-28.9479 128.924C-29.8328 129.091 -30.6811 128.495 -30.8242 127.606L-32.2123 118.981C-32.3528 118.108 -31.7587 117.287 -30.8857 117.147L55.7573 103.268C56.8848 103.087 56.8776 101.462 55.7486 101.292L-12.2068 91.0245C-12.3648 91.0006 -12.5256 91.0005 -12.6837 91.0243L-40.8954 95.2656C-41.7606 95.3956 -42.5697 94.8067 -42.712 93.9435L-43.7799 87.4633C-43.9392 86.4968 -43.2003 85.6153 -42.2208 85.6033L-36.2982 85.5307C-34.6148 85.5101 -34.101 83.2379 -35.6118 82.4951L-56.5953 72.1768C-57.376 71.7929 -57.7069 70.8555 -57.3402 70.0666L-54.7747 64.5475C-54.4208 63.7862 -53.5386 63.4279 -52.7541 63.7268L-8.66562 80.5267C-8.38813 80.6324 -8.08669 80.6588 -7.79503 80.603L108.838 58.2722C109.444 58.1562 109.929 57.7025 110.085 57.106L112.516 47.8218C112.766 46.8671 113.812 46.3641 114.714 46.765L128.712 52.9883Z" fill="#8EB4FF"/>
<g opacity="0.9">
<path d="M172.017 76.6821C171.883 81.6959 144.921 85.0454 111.721 86.9995C78.5953 86.1176 51.8501 81.3382 51.9836 76.3244C52.1171 71.3106 79.1542 65.1251 112.28 66.007C145.405 66.8889 172.15 71.6683 172.017 76.6821Z" fill="#3378FF"/>
</g>
<path d="M57.2682 33.752L102.763 37.323C104.788 37.4819 106.725 36.4715 107.754 34.7205L123.462 7.98038C124.085 6.9191 123.32 5.58203 122.089 5.58203H120.108H85.3855C84.0326 5.58203 82.7307 6.09882 81.746 7.02674L56.3009 31.0063C55.2957 31.9536 55.8912 33.6439 57.2682 33.752Z" fill="#2C68DD"/>
<path d="M62.9871 32.3301L87.7194 7.64453L112.516 33.7733V83.9985L64.8106 78.8496C63.7761 78.7379 62.9919 77.8646 62.9918 76.8241L62.9871 32.3301Z" fill="#A6C4FF"/>
<path d="M112.52 30.3449L153.794 29.3633V75.7513C153.794 76.754 153.065 77.6077 152.074 77.7639L112.52 84.0015V30.3449Z" fill="#90B5FF"/>
<path d="M73.3423 57.0953C73.3423 50.1122 78.7412 44.3175 85.7068 43.8242C92.8454 45.0295 98.0713 51.2117 98.0713 58.4514V82.4202L73.3423 80.2453V57.0953Z" fill="#3974E7"/>
<path d="M77.4434 33.4574C77.4434 29.3934 80.6098 26.033 84.6667 25.7918L85.6982 25.7305C90.3263 26.0056 93.9531 29.8399 93.9531 34.4762C93.9531 36.7133 92.0664 38.4872 89.8335 38.3494L81.5629 37.8391C79.2478 37.6962 77.4434 35.777 77.4434 33.4574Z" fill="#3974E7"/>
<path d="M121.201 53.5968C121.201 50.5997 123.374 48.0448 126.332 47.5637C130.051 46.959 133.426 49.8295 133.426 53.5968V60.0013V64.6906C133.426 65.9049 132.545 66.9401 131.347 67.135L124.075 68.3175C122.569 68.5625 121.201 67.3995 121.201 65.8732V61.9893V53.5968Z" fill="#336EE3"/>
<path d="M137.502 50.0751C137.502 47.3582 139.451 45.0328 142.126 44.5583C145.559 43.9493 148.708 46.5891 148.708 50.0751V56.9818V61.7016C148.708 62.9024 147.846 63.9302 146.664 64.14L140.411 65.2493C138.894 65.5184 137.502 64.3517 137.502 62.8109V58.9698V50.0751Z" fill="#336EE3"/>
<path d="M157.876 31.9487L113.779 38.185C111.95 38.4437 110.118 37.7326 108.943 36.3077L84.5967 6.7973C84.1729 6.28364 84.5004 5.50542 85.164 5.44941L89.1094 5.11636L128.085 0.843396C129.702 0.666039 131.312 1.24079 132.451 2.40268L158.79 29.2577C159.704 30.1899 159.169 31.7658 157.876 31.9487Z" fill="#4081FF"/>
</svg>
