<svg width="90" height="83" viewBox="0 0 90 83" fill="none" xmlns="http://www.w3.org/2000/svg">
<g opacity="0.7">
<ellipse cx="46.9051" cy="46.905" rx="46.9051" ry="46.905" transform="matrix(-1 0 0 1 101.988 0)" fill="#AAC3F2"/>
<path d="M20.5947 10.9912C10.55 10.9914 2.04492 20.4662 2.04492 32.6338C2.04512 44.8012 10.5501 54.2752 20.5947 54.2754C30.6395 54.2754 39.1453 44.8013 39.1455 32.6338C39.1455 20.4661 30.6396 10.9912 20.5947 10.9912Z" fill="white" stroke="#D7DEE7" stroke-width="3.09174"/>
<ellipse cx="7.72936" cy="9.27522" rx="7.72936" ry="9.27522" transform="matrix(-1 0 0 1 22.1406 21.8125)" fill="#64779C"/>
<path d="M20.5947 10.9912C10.55 10.9914 2.04492 20.4662 2.04492 32.6338C2.04512 44.8012 10.5501 54.2752 20.5947 54.2754C30.6395 54.2754 39.1453 44.8013 39.1455 32.6338C39.1455 20.4661 30.6396 10.9912 20.5947 10.9912Z" stroke="#D7DEE7" stroke-width="3.09174"/>
<path d="M48.4229 17.1787C38.3781 17.1789 29.873 26.6537 29.873 38.8213C29.8732 50.9887 38.3783 60.4627 48.4229 60.4629C58.4676 60.4629 66.9734 50.9888 66.9736 38.8213C66.9736 26.6536 58.4677 17.1787 48.4229 17.1787Z" fill="white" stroke="#D7DEE7" stroke-width="3.09174"/>
<path d="M48.4229 17.1787C38.3781 17.1789 29.873 26.6537 29.873 38.8213C29.8732 50.9887 38.3783 60.4627 48.4229 60.4629C58.4676 60.4629 66.9734 50.9888 66.9736 38.8213C66.9736 26.6536 58.4677 17.1787 48.4229 17.1787Z" stroke="#D7DEE7" stroke-width="3.09174"/>
<ellipse cx="7.72936" cy="9.27522" rx="7.72936" ry="9.27522" transform="matrix(-1 0 0 1 49.9648 28.0039)" fill="#64779C"/>
</g>
</svg>
