<svg width="70" height="104" viewBox="0 0 70 104" fill="none" xmlns="http://www.w3.org/2000/svg">
<path d="M36.3639 82.5584C37.1726 84.0323 37.5592 85.7007 37.4812 87.3801L36.9599 98.6006C37.0956 99.7405 35.8005 100.488 34.8811 99.8007L25.9317 93.9029C24.6817 93.0791 23.6531 91.9609 22.9363 90.6466L8.42532 64.0396C8.08589 63.4172 8.30495 62.6377 8.9189 62.2832L20.2261 55.755C20.8625 55.3876 21.6766 55.6174 22.027 56.2633L29.994 70.9483L36.3639 82.5584ZM18.7755 50.5603C19.1361 51.185 18.9221 51.9837 18.2975 52.3444L6.98704 58.8744C6.36238 59.2351 5.56364 59.0211 5.20299 58.3964L2.96083 54.5129C1.87889 52.6389 2.52096 50.2427 4.39493 49.1607L11.1812 45.2427C13.0552 44.1607 15.4514 44.8028 16.5333 46.6768L18.7755 50.5603Z" fill="#226DFF"/>
<path d="M35.9324 99.8015C35.5915 99.8734 35.2175 99.814 34.8904 99.5694L25.5286 93.7713C24.5374 93.0297 23.7065 92.0949 23.0875 91.0228L8.46623 64.0503C8.1059 63.4257 8.31998 62.6278 8.94451 62.2673L14.2413 59.2076L35.9324 99.8015ZM12.2822 55.8137L6.98549 58.8734C6.36083 59.2341 5.56184 59.0198 5.2012 58.3951L2.95904 54.5115C1.87749 52.6377 2.51905 50.2419 4.39259 49.1599L7.42805 47.4062L12.2822 55.8137Z" fill="#1060FA"/>
<path opacity="0.8" d="M49.4658 0.535156C60.8075 0.535266 70.0019 9.72956 70.002 21.0713C70.002 32.413 60.8076 41.6073 49.4658 41.6074H47.7161C47.2905 41.6074 46.8941 41.8181 46.634 42.155C43.4376 46.2955 38.9328 47.5678 35.2275 47.6973C34.1211 47.7359 33.9092 46.0267 34.5908 45.1543C35.1708 44.4119 35.4655 43.5663 35.5926 42.6809C35.688 42.0161 35.1619 41.4537 34.4987 41.3473C24.7141 39.7786 17.2383 31.298 17.2383 21.0713C17.2383 9.72964 26.4328 0.5354 37.7744 0.535156H49.4658Z" fill="#84AEFF"/>
<ellipse cx="43.618" cy="34.646" rx="9.10459" ry="2.84519" fill="#5991FE"/>
<path d="M43.6081 6.76172C49.8872 6.76173 54.9773 11.9099 54.9774 18.2606C54.9774 18.4998 54.9692 18.7373 54.955 18.9728C54.9894 19.0814 55.0054 19.1988 54.9988 19.3222C54.7393 24.1562 49.8934 29.2653 45.7103 33.2394C44.523 34.3674 42.7107 34.3454 41.5159 33.2258C37.6802 29.6316 33.2428 25.5861 32.3862 20.1152C32.2894 19.5115 32.2388 18.892 32.2388 18.2606C32.2388 11.9099 37.329 6.76172 43.6081 6.76172Z" fill="#BFD5FF"/>
<circle cx="43.618" cy="18.1437" r="9.10459" fill="#669AFF"/>
<path d="M39.0664 18.1406H48.171" stroke="#BFD5FF" stroke-width="2.27615" stroke-linecap="round"/>
<path d="M43.6211 13.5898L43.6211 22.6944" stroke="#BFD5FF" stroke-width="2.27615" stroke-linecap="round"/>
</svg>
