<svg width="80" height="121" viewBox="0 0 80 121" fill="none" xmlns="http://www.w3.org/2000/svg">
<path opacity="0.4" d="M61.2025 60.6315L8.33214 149.521L-1.0905 148.391L35.4114 83.037C36.1177 81.7725 34.8883 80.3046 33.5194 80.7781L22.8634 84.4635C21.5106 84.9314 20.2846 83.4998 20.9549 82.2351L69.3311 -9.04612L77.3332 -8.09305L44.6617 61.7844C44.0447 63.104 45.3942 64.483 46.7269 63.8946L59.2105 58.3831C60.6151 57.763 61.9873 59.312 61.2025 60.6315Z" fill="white"/>
<path d="M39.5293 102.947L40.7839 89.1938L45.8235 87.9447L43.459 107.733L38.2901 109.015L26.957 92.6211L31.9967 91.3719L39.5293 102.947Z" fill="white"/>
<path d="M31.3268 88.6585L31.544 88.6131C32.6345 88.4325 33.7392 88.9119 34.3497 89.85L37.4756 94.6537L37.9967 88.946C38.1052 87.7571 38.9551 86.7676 40.1139 86.4804L45.1537 85.2312C46.0474 85.0098 46.9929 85.2412 47.683 85.8507C48.3732 86.4602 48.7198 87.3699 48.6105 88.2842L46.2463 108.073C46.1081 109.23 45.2684 110.18 44.1375 110.461L38.9688 111.742C37.8379 112.022 36.6513 111.574 35.9888 110.615L24.6556 94.2219C24.1319 93.4645 24.0141 92.4981 24.3398 91.6368C24.6654 90.7755 25.3932 90.1292 26.287 89.9077L31.3268 88.6585ZM26.9613 92.6282L38.2945 109.021L43.4632 107.74L45.828 87.9517L40.7882 89.2009L39.5335 102.953L32.0011 91.3789L26.9613 92.6282Z" fill="#F5D9A2"/>
<path d="M52.0499 103.055C56.7552 104.315 59.9504 105.121 61.6355 105.475C62.0351 105.559 62.3715 105.512 62.6448 105.333C62.939 105.141 63.1281 104.845 63.212 104.446L63.7044 102.101L57.7109 100.842C55.8868 100.459 54.6435 99.7721 53.981 98.7805C53.3396 97.7752 53.2104 96.3605 53.5933 94.5364L53.7574 93.7547C54.1404 91.9306 54.8258 90.696 55.8137 90.0509C56.8227 89.3921 58.2392 89.2542 60.0633 89.6371L69.2098 91.5573L68.444 95.2055L60.3397 93.5041C59.2974 93.2853 58.6668 93.6971 58.448 94.7394L58.3386 95.2606C58.1197 96.3029 58.5315 96.9335 59.5738 97.1523L64.2644 98.1371C65.9669 98.4945 67.1338 99.1566 67.7652 100.124C68.3965 101.09 68.5335 102.425 68.1761 104.128L67.9026 105.431C67.5451 107.133 66.883 108.3 65.9161 108.931C64.9492 109.563 63.6145 109.7 61.912 109.342C61.026 109.156 60.0915 108.942 59.1086 108.699L56.7331 108.092C54.9794 107.633 53.1721 107.127 51.3113 106.573L52.0499 103.055Z" fill="white"/>
<path d="M59.3856 97.105C58.5423 96.8685 58.1821 96.3167 58.3046 95.4496L58.3384 95.2588L58.4478 94.7378C58.6666 93.6955 59.2968 93.2835 60.3391 93.5023L68.4436 95.2037L69.2094 91.5559L60.0629 89.6357L60.6387 86.8927L69.7852 88.8129C71.3001 89.131 72.2704 90.6169 71.9524 92.1318L71.1866 95.7795C70.9878 96.7263 70.3327 97.4601 69.4997 97.7999C69.7209 98.0421 69.9255 98.3051 70.1114 98.5897C71.3149 100.433 71.3526 102.635 70.9188 104.702L70.6452 106.005C70.2114 108.071 69.2912 110.073 67.448 111.276C65.6047 112.48 63.4019 112.517 61.3354 112.083C60.4139 111.89 59.4472 111.668 58.4362 111.419C58.4286 111.417 58.4212 111.415 58.4137 111.413L56.038 110.806C56.033 110.804 56.0277 110.803 56.0228 110.802C54.237 110.334 52.3999 109.819 50.5115 109.257C49.1136 108.841 48.2684 107.423 48.5681 105.995L49.3066 102.477C49.4648 101.724 49.9261 101.068 50.582 100.665C50.9016 100.469 51.2535 100.34 51.6165 100.284C50.4097 98.3904 50.3984 96.108 50.8496 93.9586L51.0137 93.1771C51.4637 91.0336 52.3918 88.9359 54.2809 87.7024C56.1801 86.4623 58.4754 86.4386 60.6387 86.8927L60.0629 89.6357L59.7257 89.5699C58.0633 89.2718 56.759 89.4313 55.8131 90.049C54.8252 90.694 54.1396 91.9289 53.7567 93.753L53.5926 94.5345C53.2097 96.3586 53.3389 97.7736 53.9804 98.7789L54.1114 98.9609C54.7545 99.7954 55.8425 100.397 57.3753 100.766L57.7105 100.841L63.7041 102.099L63.2118 104.444C63.1279 104.844 62.9386 105.14 62.6444 105.332L62.5387 105.392C62.2858 105.52 61.9847 105.547 61.6351 105.473L60.9326 105.319C59.1278 104.911 56.1668 104.156 52.0496 103.053L51.3111 106.571C53.1717 107.125 54.9789 107.631 56.7325 108.09L59.1082 108.697C60.091 108.94 61.0253 109.154 61.9112 109.34C63.5073 109.676 64.7803 109.576 65.7299 109.042L65.9158 108.93C66.8221 108.338 67.4608 107.275 67.8316 105.742L67.9022 105.429L68.1758 104.126C68.5109 102.53 68.4108 101.257 67.8769 100.308L67.7648 100.122C67.1729 99.2155 66.1101 98.5768 64.5767 98.206L64.2636 98.1354L59.5731 97.1507L59.3856 97.105Z" fill="#C1D2F5"/>
</svg>
