<svg width="36" height="39" viewBox="0 0 36 39" fill="none" xmlns="http://www.w3.org/2000/svg">
<path d="M6.21961 7.96684L10.2385 9.38129C10.3395 9.41683 10.4585 9.38154 10.5129 9.29988L11.2598 8.17957C11.3056 8.11077 11.2937 8.02632 11.2302 7.97074L7.87826 5.03539C7.77404 4.94413 7.58912 4.97354 7.52602 5.09142L6.11219 7.73263C6.06337 7.82384 6.1115 7.92879 6.21961 7.96684Z" fill="#669AFF"/>
<path d="M9.65604 2.26656L13.5119 6.5453C13.5823 6.62343 13.6971 6.65058 13.7808 6.6089L14.4442 6.27863C14.5112 6.24528 14.5433 6.17484 14.526 6.09951L13.2415 0.532351C13.2102 0.396888 13.0413 0.312965 12.921 0.373157L9.68627 1.99185C9.58496 2.04254 9.57073 2.17189 9.65604 2.26656Z" fill="#669AFF"/>
<path d="M21.6059 4.67083L18.2489 7.18854C18.164 7.25225 18.0319 7.2467 17.9506 7.176L16.9519 6.30679C16.8937 6.25618 16.8749 6.18288 16.9035 6.11862L18.5856 2.34041C18.6384 2.22186 18.8203 2.18964 18.9324 2.27897L21.606 4.40867C21.6975 4.48151 21.6974 4.60221 21.6059 4.67083Z" fill="#669AFF"/>
<path d="M15.036 8.16746C18.6209 7.05531 21.0384 17.1027 21.5273 20.7937C21.4317 20.0734 22.9694 22.9521 22.9694 24.392C22.9694 30.4052 12.8905 35.1907 12.8905 29.4314C12.8905 24.8239 15.5309 22.717 17.21 22.2371C15.7702 20.0773 9.65356 9.83726 15.036 8.16746Z" fill="#FBA907"/>
<path d="M11.4531 30.1594C9.14938 32.4631 7.61356 30.1593 7.13361 28.7195C5.98174 25.2636 7.54397 23.92 8.74383 23.6803C8.74383 20.8006 10.7332 20.5608 11.4531 20.8008C10.8772 19.6489 11.6751 18.4891 12.1551 18.249C15.7519 16.0844 17.2125 20.0805 17.2125 23.6801C17.2125 26.5598 15.2927 26.3198 14.3328 25.8398C14.3328 28.7195 12.893 28.9595 12.173 28.7195L11.4531 30.1594Z" fill="#FBA907"/>
<path d="M15.0483 24.3864C14.4724 27.2661 18.6328 28.3164 21.5125 24.7168L20.8094 27.9902C17.4498 27.5102 10.7488 27.4143 10.7306 30.8699C10.7136 34.0757 13.1478 35.5133 14.3132 35.5133C16.4578 38.7192 22.348 36.7891 24.3921 35.1894C25.8151 34.0757 26.0373 32.0697 25.3174 30.8699C26.7403 28.7101 27.8054 23.9925 25.112 20.3997C22.77 17.2756 15.7682 20.7868 15.0483 24.3864Z" fill="#FBA907"/>
<path d="M18.636 26.8828C18.1561 27.8427 17.4841 30.1944 18.636 31.9222" stroke="#EA8F0C" stroke-width="1.43984" stroke-linecap="round" stroke-linejoin="round"/>
<path d="M9.99609 31.195C10.476 30.955 12.1558 30.4751 12.1558 28.3153C13.5341 29.8477 16.0006 28.8611 16.0006 26.3945" stroke="#EA8F0C" stroke-width="1.43984" stroke-linecap="round" stroke-linejoin="round"/>
<path d="M21.5144 25.4418C19.3547 26.6416 15.0352 27.6015 15.0352 24.7219C15.0352 23.762 15.8991 21.5542 19.3547 20.4023" stroke="#EA8F0C" stroke-width="1.43984" stroke-linecap="round" stroke-linejoin="round"/>
</svg>
