<svg width="52" height="52" viewBox="0 0 52 52" fill="none" xmlns="http://www.w3.org/2000/svg">
<rect x="12.2422" y="9.20312" width="33.5833" height="26" rx="4.76667" fill="#669AFF"/>
<rect x="12.2422" y="31.9531" width="34.6667" height="4.33333" rx="2.16667" fill="#4081FF"/>
<path d="M12.35 30.6602C9.56398 30.6602 6.96414 31.4898 5.01885 33.0837C3.07493 34.6766 1.62501 37.1974 1.62501 40.559L1.625 41.1597C1.62497 41.5018 1.62493 41.8502 1.64092 42.148C1.65872 42.4793 1.70159 42.8904 1.84174 43.3088C2.03238 43.8779 2.33658 44.3406 2.71073 44.6306C2.98579 44.8438 3.25603 44.9089 3.47381 44.936C3.66957 44.9603 3.89856 44.9602 4.12349 44.9601L20.5768 44.9587C20.8017 44.9587 21.0307 44.9587 21.2264 44.9344C21.4442 44.9073 21.7144 44.8421 21.9894 44.6289C22.3635 44.3389 22.6677 43.8762 22.8583 43.3071C22.9984 42.8887 23.0413 42.4777 23.0591 42.1464C23.0751 41.8487 23.075 41.5003 23.075 41.1582L23.075 40.559C23.075 37.1974 21.6251 34.6766 19.6812 33.0837C17.7359 31.4898 15.136 30.6602 12.35 30.6602Z" fill="#FBA907"/>
<circle cx="12.3492" cy="24.7008" r="7.15" fill="#FBA907"/>
<rect width="2.36627" height="14.7046" rx="1.18313" transform="matrix(-0.788625 -0.614875 -0.614875 0.788625 38.7656 19.6133)" fill="white"/>
<path d="M19.2561 32.569C22.1384 32.0183 24.3504 30.9998 25.0961 30.5594C26.8433 29.9276 30.2129 29.3136 29.7135 31.9118C29.2141 34.51 24.1034 37.304 21.6104 38.3762C19.6247 36.6699 16.3738 33.1197 19.2561 32.569Z" fill="#FBA907"/>
<path d="M25.0499 30.6265C24.8438 32.2399 26.303 33.7555 28.309 34.0118C30.315 34.2681 32.1083 33.1679 32.3144 31.5545C32.5205 29.9412 30.7378 29.1401 28.7318 28.8839C27.2962 26.786 25.256 29.0131 25.0499 30.6265Z" fill="#FBA907"/>
<path d="M14.4585 40.3817L12.8838 42.0141C12.5958 42.3126 12.1152 42.3043 11.8377 41.996L10.2242 40.2033C10.064 40.0253 10.0036 39.7788 10.0632 39.5469L11.652 33.3682C11.8365 32.6506 12.8565 32.6529 13.0377 33.3714L14.6372 39.7103C14.6976 39.95 14.6301 40.2038 14.4585 40.3817Z" fill="#669AFF"/>
<path d="M13.9289 34.1633L13.0952 34.8302C12.66 35.1784 12.0416 35.1784 11.6064 34.8302L10.7727 34.1633C9.98205 33.5308 10.2906 32.2628 11.2834 32.0643L12.1171 31.8975C12.2714 31.8667 12.4302 31.8667 12.5845 31.8975L13.4181 32.0643C14.411 32.2628 14.7195 33.5308 13.9289 34.1633Z" fill="#669AFF"/>
</svg>
